{"glyphs":{"0":{"ha":913,"x_min":78,"x_max":833,"o":"m 456 -14 q 288 15 357 -14 q 174 96 218 44 q 107 215 129 147 q 81 358 85 282 q 78 441 79 396 q 78 532 78 486 q 81 617 79 578 q 107 760 83 693 q 176 878 131 828 q 290 957 221 928 q 456 986 360 986 q 622 957 553 986 q 737 878 692 928 q 805 760 782 828 q 831 617 828 693 q 833 532 833 578 q 833 441 833 486 q 831 358 833 396 q 806 215 828 282 q 739 96 783 147 q 624 15 694 44 q 456 -14 554 -14 m 456 146 q 588 205 546 146 q 632 365 631 264 q 635 447 635 406 q 635 529 635 488 q 632 608 635 571 q 588 767 631 707 q 456 828 546 828 q 324 767 367 828 q 279 608 282 707 q 278 529 279 571 q 278 447 278 488 q 279 365 279 406 q 325 205 282 264 q 456 146 368 146 z "},"1":{"ha":643,"x_min":26,"x_max":544,"o":"m 385 0 q 360 10 369 0 q 351 33 351 19 l 351 753 l 140 590 q 115 584 128 582 q 93 599 103 586 l 35 674 q 28 700 26 686 q 43 722 31 714 l 354 963 q 371 971 363 969 q 389 972 379 972 l 511 972 q 535 963 525 972 q 544 939 544 953 l 544 33 q 535 10 544 19 q 511 0 525 0 l 385 0 z "},"2":{"ha":860,"x_min":63,"x_max":793,"o":"m 96 0 q 72 10 82 0 q 63 33 63 19 l 63 104 q 69 134 63 117 q 97 169 75 151 l 317 388 q 465 510 408 460 q 547 603 521 561 q 572 688 572 646 q 538 789 572 750 q 431 828 504 828 q 349 808 382 828 q 297 754 315 788 q 271 681 278 721 q 256 656 268 663 q 231 649 243 649 l 107 649 q 86 657 94 649 q 78 676 78 665 q 103 792 79 736 q 172 892 126 849 q 282 963 217 936 q 429 989 347 989 q 620 950 544 989 q 734 844 696 911 q 772 694 772 778 q 747 574 772 629 q 675 469 722 519 q 561 365 628 418 l 364 165 l 760 165 q 784 156 775 165 q 793 132 793 147 l 793 33 q 784 10 793 19 q 760 0 775 0 l 96 0 z "},"3":{"ha":875,"x_min":51,"x_max":814,"o":"m 432 -14 q 264 10 335 -14 q 147 72 193 33 q 76 155 100 110 q 51 244 53 200 q 60 265 51 257 q 82 272 69 272 l 207 272 q 231 267 221 272 q 247 244 240 261 q 288 185 260 207 q 354 153 317 163 q 433 144 392 144 q 566 184 517 144 q 615 297 615 224 q 569 403 615 371 q 442 436 524 436 l 299 436 q 274 445 283 436 q 264 469 264 454 l 264 528 q 270 552 264 542 q 283 569 276 563 l 532 813 l 135 813 q 110 822 119 813 q 101 846 101 832 l 101 938 q 110 963 101 953 q 135 972 119 972 l 731 972 q 756 963 746 972 q 765 938 765 953 l 765 854 q 760 832 765 842 q 747 815 754 822 l 507 568 l 524 567 q 674 528 608 560 q 777 438 740 497 q 814 288 814 378 q 765 126 814 193 q 629 22 715 58 q 432 -14 543 -14 z "},"4":{"ha":906,"x_min":42,"x_max":861,"o":"m 549 0 q 525 10 535 0 q 515 33 515 19 l 515 211 l 75 211 q 51 221 60 211 q 42 244 42 231 l 42 339 q 45 359 42 347 q 57 381 49 371 l 467 949 q 518 972 485 972 l 669 972 q 693 963 683 972 q 703 939 703 953 l 703 375 l 826 375 q 852 366 843 375 q 861 342 861 357 l 861 244 q 851 221 861 231 q 828 211 842 211 l 703 211 l 703 33 q 693 10 703 19 q 669 0 683 0 l 549 0 m 235 369 l 519 369 l 519 771 l 235 369 z "},"5":{"ha":861,"x_min":53,"x_max":804,"o":"m 425 -15 q 224 24 306 -15 q 99 128 142 64 q 54 264 57 192 q 62 284 53 276 q 83 292 71 292 l 213 292 q 238 285 228 292 q 254 264 249 279 q 294 196 268 222 q 353 157 319 169 q 425 144 388 144 q 516 165 475 144 q 582 225 557 185 q 607 324 607 265 q 583 413 607 375 q 519 472 560 450 q 425 493 478 493 q 361 483 386 493 q 319 461 336 474 q 288 439 301 449 q 258 429 275 429 l 131 429 q 109 438 118 429 q 100 460 100 447 l 149 935 q 161 963 150 953 q 188 972 172 972 l 710 972 q 733 963 724 972 q 743 939 743 953 l 743 846 q 733 822 743 832 q 710 813 724 813 l 308 813 l 286 586 q 353 618 311 603 q 468 633 394 633 q 595 612 535 633 q 703 549 656 590 q 777 451 750 508 q 804 319 804 393 q 757 143 804 218 q 625 26 710 68 q 425 -15 540 -15 z "},"6":{"ha":871,"x_min":57,"x_max":825,"o":"m 443 -14 q 238 31 324 -14 q 104 153 151 76 q 57 326 57 231 q 68 410 57 369 q 97 486 79 450 q 133 551 115 522 q 164 596 150 579 l 418 944 q 435 962 424 951 q 465 972 446 972 l 594 972 q 615 963 607 972 q 624 942 624 954 q 622 931 624 936 q 617 924 619 926 l 422 654 q 451 660 435 658 q 482 661 468 661 q 614 634 551 660 q 724 564 676 608 q 798 460 771 519 q 825 329 825 400 q 779 159 825 238 q 648 33 733 81 q 443 -14 563 -14 m 442 146 q 534 167 492 146 q 603 228 576 188 q 629 328 629 268 q 603 426 629 386 q 534 488 576 467 q 442 508 492 508 q 349 488 392 508 q 281 426 307 467 q 254 328 254 386 q 281 228 254 268 q 349 167 307 188 q 442 146 392 146 z "},"7":{"ha":754,"x_min":40,"x_max":717,"o":"m 201 0 q 181 9 189 0 q 172 31 172 18 q 175 43 172 36 l 510 807 l 74 807 q 49 817 58 807 q 40 840 40 826 l 40 938 q 49 963 40 953 q 74 972 58 972 l 683 972 q 708 963 699 972 q 717 938 717 953 l 717 851 q 713 819 717 832 q 704 792 710 806 l 372 33 q 358 12 368 24 q 328 0 347 0 l 201 0 z "},"8":{"ha":911,"x_min":69,"x_max":842,"o":"m 456 -14 q 292 8 364 -14 q 170 71 219 31 q 95 165 121 111 q 69 286 69 219 q 109 426 69 367 q 213 517 149 485 q 133 599 161 549 q 104 715 104 649 q 145 856 104 796 q 265 951 186 917 q 456 986 343 986 q 646 952 568 986 q 764 858 724 918 q 804 717 804 797 q 776 600 804 650 q 699 517 749 550 q 803 426 764 486 q 842 285 842 365 q 797 130 842 197 q 665 24 751 63 q 456 -14 578 -14 m 456 131 q 553 149 510 131 q 623 203 597 168 q 649 285 649 238 q 623 367 649 333 q 553 420 597 401 q 456 439 510 439 q 358 420 401 439 q 288 367 314 401 q 263 285 263 333 q 288 203 263 238 q 358 149 314 168 q 456 131 401 131 m 456 576 q 540 594 501 578 q 601 640 578 611 q 624 708 624 669 q 602 778 624 749 q 542 825 581 808 q 456 842 504 842 q 369 825 407 842 q 309 778 331 808 q 288 708 288 749 q 309 639 288 668 q 369 593 331 610 q 456 576 407 576 z "},"9":{"ha":857,"x_min":46,"x_max":800,"o":"m 256 0 q 235 9 243 0 q 226 31 226 18 q 228 42 226 38 q 232 49 231 46 l 436 331 q 379 325 410 324 q 248 352 308 326 q 142 422 188 378 q 72 523 97 465 q 46 649 46 581 q 69 772 46 711 q 140 881 93 832 q 256 958 186 929 q 421 986 326 986 q 585 960 514 986 q 703 887 656 933 q 776 781 751 840 q 800 654 800 721 q 781 543 800 594 q 733 449 761 492 q 676 367 704 407 l 432 28 q 416 10 426 21 q 385 0 406 0 l 256 0 m 422 472 q 513 494 472 472 q 578 555 554 515 q 603 649 603 594 q 578 744 603 704 q 513 805 554 783 q 422 826 471 826 q 331 805 372 826 q 266 744 290 783 q 242 649 242 704 q 266 555 242 594 q 331 494 290 515 q 422 472 372 472 z "},"A":{"ha":963,"x_min":19,"x_max":942,"o":"m 49 0 q 28 8 38 0 q 19 29 19 17 q 22 42 19 35 l 357 938 q 373 962 361 951 q 406 972 385 972 l 557 972 q 589 962 578 972 q 606 938 600 951 l 940 42 q 942 29 942 35 q 933 8 942 17 q 914 0 925 0 l 793 0 q 765 9 774 0 q 753 26 756 18 l 688 196 l 275 196 l 210 26 q 198 9 207 18 q 169 0 189 0 l 49 0 m 324 356 l 639 356 l 481 785 l 324 356 z "},"Á":{"ha":963,"x_min":19,"x_max":942,"o":"m 49 0 q 28 8 38 0 q 19 29 19 17 q 22 42 19 35 l 357 938 q 373 962 361 951 q 406 972 385 972 l 557 972 q 589 962 578 972 q 606 938 600 951 l 940 42 q 942 29 942 35 q 933 8 942 17 q 914 0 925 0 l 793 0 q 765 9 774 0 q 753 26 756 18 l 688 196 l 275 196 l 210 26 q 198 9 207 18 q 169 0 189 0 l 49 0 m 324 356 l 639 356 l 481 785 l 324 356 m 419 1042 q 397 1064 397 1042 q 404 1082 397 1075 l 517 1219 q 540 1240 531 1235 q 568 1244 550 1244 l 717 1244 q 743 1218 743 1244 q 736 1201 743 1208 l 564 1060 q 542 1046 553 1050 q 515 1042 532 1042 l 419 1042 z "},"Ă":{"ha":963,"x_min":19,"x_max":942,"o":"m 49 0 q 28 8 38 0 q 19 29 19 17 q 22 42 19 35 l 357 938 q 373 962 361 951 q 406 972 385 972 l 557 972 q 589 962 578 972 q 606 938 600 951 l 940 42 q 942 29 942 35 q 933 8 942 17 q 914 0 925 0 l 793 0 q 765 9 774 0 q 753 26 756 18 l 688 196 l 275 196 l 210 26 q 198 9 207 18 q 169 0 189 0 l 49 0 m 324 356 l 639 356 l 481 785 l 324 356 m 481 1031 q 367 1056 410 1031 q 305 1124 324 1082 q 286 1214 286 1165 q 293 1233 286 1225 q 313 1240 300 1240 l 381 1240 q 400 1233 393 1240 q 407 1214 407 1225 q 422 1156 407 1182 q 481 1129 436 1129 q 540 1156 525 1129 q 554 1214 554 1182 q 561 1233 554 1225 q 581 1240 568 1240 l 649 1240 q 668 1233 661 1240 q 675 1214 675 1225 q 656 1124 675 1165 q 595 1056 638 1082 q 481 1031 553 1031 z "},"Â":{"ha":963,"x_min":19,"x_max":942,"o":"m 49 0 q 28 8 38 0 q 19 29 19 17 q 22 42 19 35 l 357 938 q 373 962 361 951 q 406 972 385 972 l 557 972 q 589 962 578 972 q 606 938 600 951 l 940 42 q 942 29 942 35 q 933 8 942 17 q 914 0 925 0 l 793 0 q 765 9 774 0 q 753 26 756 18 l 688 196 l 275 196 l 210 26 q 198 9 207 18 q 169 0 189 0 l 49 0 m 324 356 l 639 356 l 481 785 l 324 356 m 267 1042 q 246 1060 246 1042 q 258 1083 246 1071 l 394 1222 q 419 1241 408 1238 q 442 1244 429 1244 l 522 1244 q 546 1241 536 1244 q 569 1222 556 1238 l 706 1083 q 718 1060 718 1071 q 697 1042 718 1042 l 643 1042 q 621 1044 632 1042 q 600 1051 610 1046 l 482 1125 l 364 1051 q 344 1044 356 1046 q 321 1042 332 1042 l 267 1042 z "},"Ä":{"ha":963,"x_min":19,"x_max":942,"o":"m 49 0 q 28 8 38 0 q 19 29 19 17 q 22 42 19 35 l 357 938 q 373 962 361 951 q 406 972 385 972 l 557 972 q 589 962 578 972 q 606 938 600 951 l 940 42 q 942 29 942 35 q 933 8 942 17 q 914 0 925 0 l 793 0 q 765 9 774 0 q 753 26 756 18 l 688 196 l 275 196 l 210 26 q 198 9 207 18 q 169 0 189 0 l 49 0 m 324 356 l 639 356 l 481 785 l 324 356 m 581 1042 q 558 1050 567 1042 q 550 1072 550 1058 l 550 1174 q 558 1197 550 1188 q 581 1206 567 1206 l 682 1206 q 705 1197 696 1206 q 714 1174 714 1188 l 714 1072 q 705 1050 714 1058 q 682 1042 696 1042 l 581 1042 m 278 1042 q 256 1050 264 1042 q 247 1072 247 1058 l 247 1174 q 256 1197 247 1188 q 278 1206 264 1206 l 379 1206 q 402 1197 393 1206 q 411 1174 411 1188 l 411 1072 q 402 1050 411 1058 q 379 1042 393 1042 l 278 1042 z "},"À":{"ha":963,"x_min":19,"x_max":942,"o":"m 49 0 q 28 8 38 0 q 19 29 19 17 q 22 42 19 35 l 357 938 q 373 962 361 951 q 406 972 385 972 l 557 972 q 589 962 578 972 q 606 938 600 951 l 940 42 q 942 29 942 35 q 933 8 942 17 q 914 0 925 0 l 793 0 q 765 9 774 0 q 753 26 756 18 l 688 196 l 275 196 l 210 26 q 198 9 207 18 q 169 0 189 0 l 49 0 m 324 356 l 639 356 l 481 785 l 324 356 m 456 1042 q 427 1046 438 1042 q 406 1060 417 1050 l 233 1201 q 226 1218 226 1208 q 253 1244 226 1244 l 401 1244 q 430 1240 419 1244 q 453 1219 440 1235 l 567 1082 q 574 1064 574 1075 q 551 1042 574 1042 l 456 1042 z "},"Ā":{"ha":963,"x_min":19,"x_max":942,"o":"m 49 0 q 28 8 38 0 q 19 29 19 17 q 22 42 19 35 l 357 938 q 373 962 361 951 q 406 972 385 972 l 557 972 q 589 962 578 972 q 606 938 600 951 l 940 42 q 942 29 942 35 q 933 8 942 17 q 914 0 925 0 l 793 0 q 765 9 774 0 q 753 26 756 18 l 688 196 l 275 196 l 210 26 q 198 9 207 18 q 169 0 189 0 l 49 0 m 324 356 l 639 356 l 481 785 l 324 356 m 292 1042 q 269 1050 278 1042 q 261 1072 261 1058 l 261 1150 q 269 1172 261 1164 q 292 1181 278 1181 l 669 1181 q 692 1172 683 1181 q 700 1150 700 1164 l 700 1072 q 692 1050 700 1058 q 669 1042 683 1042 l 292 1042 z "},"Ą":{"ha":963,"x_min":19,"x_max":942,"o":"m 869 -306 q 757 -278 803 -306 q 688 -204 711 -251 q 664 -96 664 -157 q 689 -3 664 -40 q 756 46 714 33 q 743 55 747 49 q 736 67 739 61 l 688 196 l 275 196 l 210 26 q 198 9 207 18 q 169 0 189 0 l 49 0 q 28 8 38 0 q 19 29 19 17 q 22 42 19 35 l 357 938 q 373 962 361 951 q 406 972 385 972 l 557 972 q 589 962 578 972 q 606 938 600 951 l 940 42 q 942 29 942 35 q 933 8 942 17 q 914 0 925 0 l 872 0 q 808 -28 831 0 q 785 -96 785 -56 q 808 -163 785 -136 q 875 -190 832 -190 l 893 -190 q 917 -199 908 -190 q 926 -224 926 -208 l 926 -272 q 917 -296 926 -286 q 893 -306 908 -306 l 869 -306 m 324 356 l 639 356 l 481 785 l 324 356 z "},"Å":{"ha":963,"x_min":19,"x_max":942,"o":"m 49 0 q 28 8 38 0 q 19 29 19 17 q 22 42 19 35 l 357 938 q 373 962 361 951 q 406 972 385 972 l 557 972 q 589 962 578 972 q 606 938 600 951 l 940 42 q 942 29 942 35 q 933 8 942 17 q 914 0 925 0 l 793 0 q 765 9 774 0 q 753 26 756 18 l 688 196 l 275 196 l 210 26 q 198 9 207 18 q 169 0 189 0 l 49 0 m 324 356 l 639 356 l 481 785 l 324 356 m 482 1028 q 396 1060 432 1028 q 360 1143 360 1093 q 396 1226 360 1193 q 482 1258 432 1258 q 568 1226 532 1258 q 604 1143 604 1193 q 568 1060 604 1093 q 482 1028 532 1028 m 482 1101 q 512 1113 500 1101 q 524 1143 524 1125 q 512 1173 524 1161 q 482 1185 500 1185 q 452 1173 464 1185 q 440 1143 440 1161 q 452 1113 440 1125 q 482 1101 464 1101 z "},"Ã":{"ha":963,"x_min":19,"x_max":942,"o":"m 49 0 q 28 8 38 0 q 19 29 19 17 q 22 42 19 35 l 357 938 q 373 962 361 951 q 406 972 385 972 l 557 972 q 589 962 578 972 q 606 938 600 951 l 940 42 q 942 29 942 35 q 933 8 942 17 q 914 0 925 0 l 793 0 q 765 9 774 0 q 753 26 756 18 l 688 196 l 275 196 l 210 26 q 198 9 207 18 q 169 0 189 0 l 49 0 m 324 356 l 639 356 l 481 785 l 324 356 m 560 1035 q 499 1047 524 1035 q 456 1071 475 1058 q 414 1083 436 1083 q 388 1073 396 1083 q 374 1052 381 1063 q 351 1042 367 1042 l 288 1042 q 271 1049 278 1042 q 264 1065 264 1056 q 272 1113 264 1086 q 297 1163 279 1139 q 340 1203 314 1188 q 401 1218 367 1218 q 463 1206 439 1218 q 507 1182 488 1194 q 549 1169 526 1169 q 574 1181 567 1169 q 589 1202 582 1192 q 611 1213 596 1213 l 675 1213 q 692 1205 686 1213 q 699 1188 699 1197 q 690 1140 699 1167 q 665 1090 682 1114 q 622 1051 647 1067 q 560 1035 596 1035 z "},"Æ":{"ha":1326,"x_min":7,"x_max":1260,"o":"m 35 0 q 15 8 24 0 q 7 29 7 17 q 10 44 7 36 q 33 108 21 75 q 65 187 46 142 q 114 296 85 232 q 186 448 143 360 q 292 657 229 536 q 438 938 354 778 q 456 963 444 953 q 485 972 468 972 l 1214 972 q 1239 963 1229 972 q 1249 938 1249 953 l 1249 846 q 1239 822 1249 832 q 1214 813 1229 813 l 774 813 l 774 567 l 1183 567 q 1208 558 1199 567 q 1218 533 1218 549 l 1218 447 q 1208 423 1218 432 q 1183 414 1199 414 l 774 414 l 774 160 l 1225 160 q 1250 150 1240 160 q 1260 125 1260 140 l 1260 33 q 1250 10 1260 19 q 1225 0 1240 0 l 619 0 q 596 10 606 0 q 586 33 586 19 l 586 196 l 286 196 q 241 111 258 143 q 215 63 224 79 q 203 38 207 46 q 199 26 200 31 q 185 8 194 17 q 158 0 176 0 l 35 0 m 343 356 l 586 356 l 586 807 l 568 807 l 343 356 z "},"Ǽ":{"ha":1326,"x_min":7,"x_max":1260,"o":"m 35 0 q 15 8 24 0 q 7 29 7 17 q 10 44 7 36 q 33 108 21 75 q 65 187 46 142 q 114 296 85 232 q 186 448 143 360 q 292 657 229 536 q 438 938 354 778 q 456 963 444 953 q 485 972 468 972 l 1214 972 q 1239 963 1229 972 q 1249 938 1249 953 l 1249 846 q 1239 822 1249 832 q 1214 813 1229 813 l 774 813 l 774 567 l 1183 567 q 1208 558 1199 567 q 1218 533 1218 549 l 1218 447 q 1208 423 1218 432 q 1183 414 1199 414 l 774 414 l 774 160 l 1225 160 q 1250 150 1240 160 q 1260 125 1260 140 l 1260 33 q 1250 10 1260 19 q 1225 0 1240 0 l 619 0 q 596 10 606 0 q 586 33 586 19 l 586 196 l 286 196 q 241 111 258 143 q 215 63 224 79 q 203 38 207 46 q 199 26 200 31 q 185 8 194 17 q 158 0 176 0 l 35 0 m 343 356 l 586 356 l 586 807 l 568 807 l 343 356 m 601 1042 q 579 1064 579 1042 q 586 1082 579 1075 l 699 1219 q 722 1240 713 1235 q 750 1244 732 1244 l 899 1244 q 925 1218 925 1244 q 918 1201 925 1208 l 746 1060 q 724 1046 735 1050 q 697 1042 714 1042 l 601 1042 z "},"B":{"ha":953,"x_min":108,"x_max":886,"o":"m 142 0 q 118 10 128 0 q 108 33 108 19 l 108 938 q 118 963 108 953 q 142 972 128 972 l 544 972 q 728 938 657 972 q 833 844 799 904 q 867 706 867 785 q 848 613 867 653 q 802 549 829 574 q 749 510 775 524 q 844 426 803 485 q 886 288 886 368 q 849 139 886 204 q 738 37 811 74 q 556 0 664 0 l 142 0 m 301 147 l 533 147 q 647 188 608 147 q 686 288 686 229 q 647 389 686 349 q 533 429 607 429 l 301 429 l 301 147 m 301 574 l 519 574 q 630 609 593 574 q 667 701 667 644 q 630 793 667 760 q 519 826 593 826 l 301 826 l 301 574 z "},"C":{"ha":950,"x_min":74,"x_max":894,"o":"m 483 -14 q 265 31 354 -14 q 128 160 175 76 q 75 363 81 244 q 74 485 74 419 q 75 610 74 550 q 128 811 81 726 q 266 941 176 896 q 483 986 356 986 q 653 961 578 986 q 781 892 728 936 q 863 790 833 849 q 893 664 892 732 q 885 643 894 651 q 864 635 876 635 l 732 635 q 707 642 717 635 q 693 668 697 650 q 617 793 671 760 q 482 826 563 826 q 333 774 389 826 q 274 603 278 722 q 274 369 269 489 q 333 198 278 250 q 482 146 389 146 q 617 180 563 146 q 693 304 672 214 q 707 331 697 324 q 732 338 717 338 l 864 338 q 885 329 876 338 q 893 308 894 321 q 863 182 892 240 q 781 80 833 124 q 653 11 728 36 q 483 -14 578 -14 z "},"Ć":{"ha":950,"x_min":74,"x_max":894,"o":"m 483 -14 q 265 31 354 -14 q 128 160 175 76 q 75 363 81 244 q 74 485 74 419 q 75 610 74 550 q 128 811 81 726 q 266 941 176 896 q 483 986 356 986 q 653 961 578 986 q 781 892 728 936 q 863 790 833 849 q 893 664 892 732 q 885 643 894 651 q 864 635 876 635 l 732 635 q 707 642 717 635 q 693 668 697 650 q 617 793 671 760 q 482 826 563 826 q 333 774 389 826 q 274 603 278 722 q 274 369 269 489 q 333 198 278 250 q 482 146 389 146 q 617 180 563 146 q 693 304 672 214 q 707 331 697 324 q 732 338 717 338 l 864 338 q 885 329 876 338 q 893 308 894 321 q 863 182 892 240 q 781 80 833 124 q 653 11 728 36 q 483 -14 578 -14 m 414 1042 q 392 1064 392 1042 q 399 1082 392 1075 l 511 1219 q 535 1240 525 1235 q 563 1244 544 1244 l 711 1244 q 738 1218 738 1244 q 731 1201 738 1208 l 558 1060 q 537 1046 547 1050 q 510 1042 526 1042 l 414 1042 z "},"Č":{"ha":950,"x_min":74,"x_max":894,"o":"m 483 -14 q 265 31 354 -14 q 128 160 175 76 q 75 363 81 244 q 74 485 74 419 q 75 610 74 550 q 128 811 81 726 q 266 941 176 896 q 483 986 356 986 q 653 961 578 986 q 781 892 728 936 q 863 790 833 849 q 893 664 892 732 q 885 643 894 651 q 864 635 876 635 l 732 635 q 707 642 717 635 q 693 668 697 650 q 617 793 671 760 q 482 826 563 826 q 333 774 389 826 q 274 603 278 722 q 274 369 269 489 q 333 198 278 250 q 482 146 389 146 q 617 180 563 146 q 693 304 672 214 q 707 331 697 324 q 732 338 717 338 l 864 338 q 885 329 876 338 q 893 308 894 321 q 863 182 892 240 q 781 80 833 124 q 653 11 728 36 q 483 -14 578 -14 m 436 1042 q 413 1046 424 1042 q 389 1064 403 1050 l 253 1203 q 240 1226 240 1215 q 261 1244 240 1244 l 315 1244 q 338 1242 326 1244 q 358 1235 350 1240 l 476 1163 l 594 1235 q 615 1242 604 1240 q 638 1244 626 1244 l 692 1244 q 713 1226 713 1244 q 700 1203 713 1215 l 564 1064 q 540 1046 550 1050 q 517 1042 531 1042 l 436 1042 z "},"Ç":{"ha":950,"x_min":74,"x_max":894,"o":"m 476 -306 q 409 -292 439 -304 q 366 -262 379 -279 q 365 -235 353 -246 l 389 -214 q 411 -208 401 -203 q 435 -222 421 -212 q 476 -231 449 -231 q 513 -217 499 -231 q 528 -183 528 -204 q 514 -151 528 -164 q 476 -139 500 -139 q 444 -144 458 -139 q 419 -151 431 -149 q 397 -142 407 -153 l 372 -117 q 366 -97 364 -107 q 375 -74 368 -86 l 403 -8 q 227 53 299 6 q 118 178 156 100 q 75 363 81 257 q 74 485 74 419 q 75 610 74 550 q 128 811 81 726 q 266 941 176 896 q 483 986 356 986 q 653 961 578 986 q 781 892 728 936 q 863 790 833 849 q 893 664 892 732 q 885 643 894 651 q 864 635 876 635 l 732 635 q 707 642 717 635 q 693 668 697 650 q 617 793 671 760 q 482 826 563 826 q 333 774 389 826 q 274 603 278 722 q 274 369 269 489 q 333 198 278 250 q 482 146 389 146 q 617 180 563 146 q 693 304 672 214 q 707 331 697 324 q 732 338 717 338 l 864 338 q 885 329 876 338 q 893 308 894 321 q 863 182 892 240 q 781 80 833 124 q 653 11 728 36 q 483 -14 578 -14 l 454 -74 q 477 -67 463 -69 q 501 -64 492 -64 q 580 -97 550 -64 q 610 -182 610 -131 q 576 -271 610 -235 q 476 -306 542 -307 z "},"Ĉ":{"ha":950,"x_min":74,"x_max":894,"o":"m 483 -14 q 265 31 354 -14 q 128 160 175 76 q 75 363 81 244 q 74 485 74 419 q 75 610 74 550 q 128 811 81 726 q 266 941 176 896 q 483 986 356 986 q 653 961 578 986 q 781 892 728 936 q 863 790 833 849 q 893 664 892 732 q 885 643 894 651 q 864 635 876 635 l 732 635 q 707 642 717 635 q 693 668 697 650 q 617 793 671 760 q 482 826 563 826 q 333 774 389 826 q 274 603 278 722 q 274 369 269 489 q 333 198 278 250 q 482 146 389 146 q 617 180 563 146 q 693 304 672 214 q 707 331 697 324 q 732 338 717 338 l 864 338 q 885 329 876 338 q 893 308 894 321 q 863 182 892 240 q 781 80 833 124 q 653 11 728 36 q 483 -14 578 -14 m 261 1042 q 240 1060 240 1042 q 253 1083 240 1071 l 389 1222 q 413 1241 403 1238 q 436 1244 424 1244 l 517 1244 q 540 1241 531 1244 q 564 1222 550 1238 l 700 1083 q 713 1060 713 1071 q 692 1042 713 1042 l 638 1042 q 615 1044 626 1042 q 594 1051 604 1046 l 476 1125 l 358 1051 q 338 1044 350 1046 q 315 1042 326 1042 l 261 1042 z "},"Ċ":{"ha":950,"x_min":74,"x_max":894,"o":"m 483 -14 q 265 31 354 -14 q 128 160 175 76 q 75 363 81 244 q 74 485 74 419 q 75 610 74 550 q 128 811 81 726 q 266 941 176 896 q 483 986 356 986 q 653 961 578 986 q 781 892 728 936 q 863 790 833 849 q 893 664 892 732 q 885 643 894 651 q 864 635 876 635 l 732 635 q 707 642 717 635 q 693 668 697 650 q 617 793 671 760 q 482 826 563 826 q 333 774 389 826 q 274 603 278 722 q 274 369 269 489 q 333 198 278 250 q 482 146 389 146 q 617 180 563 146 q 693 304 672 214 q 707 331 697 324 q 732 338 717 338 l 864 338 q 885 329 876 338 q 893 308 894 321 q 863 182 892 240 q 781 80 833 124 q 653 11 728 36 q 483 -14 578 -14 m 417 1042 q 394 1050 403 1042 q 386 1072 386 1058 l 386 1189 q 394 1212 386 1203 q 417 1221 403 1221 l 533 1221 q 556 1212 547 1221 q 565 1189 565 1203 l 565 1072 q 556 1050 565 1058 q 533 1042 547 1042 l 417 1042 z "},"D":{"ha":976,"x_min":108,"x_max":900,"o":"m 142 0 q 118 10 128 0 q 108 33 108 19 l 108 938 q 118 963 108 953 q 142 972 128 972 l 481 972 q 712 929 621 972 q 849 801 803 886 q 897 594 896 717 q 900 486 900 533 q 897 379 900 439 q 850 166 894 250 q 716 41 806 82 q 488 0 626 0 l 142 0 m 301 160 l 481 160 q 607 182 558 160 q 678 253 656 204 q 703 383 701 303 q 705 456 704 425 q 705 519 706 488 q 703 590 704 550 q 646 758 700 704 q 474 813 592 813 l 301 813 l 301 160 z "},"Ð":{"ha":996,"x_min":21,"x_max":918,"o":"m 161 0 q 136 10 146 0 q 126 33 126 19 l 126 421 l 54 421 q 30 430 39 421 q 21 454 21 439 l 21 524 q 30 547 21 538 q 54 557 39 557 l 126 557 l 126 938 q 136 963 126 953 q 161 972 146 972 l 499 972 q 731 929 639 972 q 870 801 824 886 q 917 594 917 717 q 918 487 918 536 q 917 379 918 438 q 870 166 915 250 q 734 41 825 82 q 503 0 643 0 l 161 0 m 319 160 l 499 160 q 624 182 576 160 q 695 253 672 204 q 718 383 718 303 q 719 455 719 422 q 719 519 719 488 q 718 590 719 551 q 665 758 717 704 q 494 813 613 813 l 319 813 l 319 557 l 475 557 q 499 547 490 557 q 508 524 508 538 l 508 454 q 499 430 508 439 q 475 421 490 421 l 319 421 l 319 160 z "},"Ď":{"ha":976,"x_min":108,"x_max":900,"o":"m 142 0 q 118 10 128 0 q 108 33 108 19 l 108 938 q 118 963 108 953 q 142 972 128 972 l 481 972 q 712 929 621 972 q 849 801 803 886 q 897 594 896 717 q 900 486 900 533 q 897 379 900 439 q 850 166 894 250 q 716 41 806 82 q 488 0 626 0 l 142 0 m 301 160 l 481 160 q 607 182 558 160 q 678 253 656 204 q 703 383 701 303 q 705 456 704 425 q 705 519 706 488 q 703 590 704 550 q 646 758 700 704 q 474 813 592 813 l 301 813 l 301 160 m 444 1042 q 422 1046 432 1042 q 397 1064 411 1050 l 261 1203 q 249 1226 249 1215 q 269 1244 249 1244 l 324 1244 q 347 1242 335 1244 q 367 1235 358 1240 l 485 1163 l 603 1235 q 624 1242 613 1240 q 646 1244 635 1244 l 700 1244 q 721 1226 721 1244 q 708 1203 721 1215 l 572 1064 q 549 1046 558 1050 q 525 1042 539 1042 l 444 1042 z "},"Đ":{"ha":994,"x_min":21,"x_max":918,"o":"m 161 0 q 136 10 146 0 q 126 33 126 19 l 126 421 l 54 421 q 30 431 39 421 q 21 454 21 440 l 21 524 q 30 549 21 539 q 54 558 39 558 l 126 558 l 126 938 q 136 963 126 953 q 161 972 146 972 l 499 972 q 730 929 639 972 q 867 801 821 886 q 917 594 914 717 q 918 486 918 533 q 917 379 918 439 q 867 166 913 250 q 733 41 822 82 q 503 0 643 0 l 161 0 m 319 160 l 499 160 q 624 182 576 160 q 696 253 672 204 q 721 383 719 303 q 724 456 724 425 q 724 519 724 488 q 721 590 724 550 q 665 758 718 704 q 494 813 613 813 l 319 813 l 319 558 l 475 558 q 499 549 490 558 q 508 524 508 539 l 508 454 q 499 431 508 440 q 475 421 490 421 l 319 421 l 319 160 z "},"E":{"ha":864,"x_min":108,"x_max":799,"o":"m 142 0 q 118 10 128 0 q 108 33 108 19 l 108 938 q 118 963 108 953 q 142 972 128 972 l 753 972 q 778 963 768 972 q 788 938 788 953 l 788 846 q 778 822 788 832 q 753 813 768 813 l 296 813 l 296 567 l 722 567 q 747 558 738 567 q 757 533 757 549 l 757 447 q 747 423 757 432 q 722 414 738 414 l 296 414 l 296 160 l 764 160 q 789 150 779 160 q 799 125 799 140 l 799 33 q 789 10 799 19 q 764 0 779 0 l 142 0 z "},"É":{"ha":864,"x_min":108,"x_max":799,"o":"m 142 0 q 118 10 128 0 q 108 33 108 19 l 108 938 q 118 963 108 953 q 142 972 128 972 l 753 972 q 778 963 768 972 q 788 938 788 953 l 788 846 q 778 822 788 832 q 753 813 768 813 l 296 813 l 296 567 l 722 567 q 747 558 738 567 q 757 533 757 549 l 757 447 q 747 423 757 432 q 722 414 738 414 l 296 414 l 296 160 l 764 160 q 789 150 779 160 q 799 125 799 140 l 799 33 q 789 10 799 19 q 764 0 779 0 l 142 0 m 371 1042 q 349 1064 349 1042 q 356 1082 349 1075 l 468 1219 q 492 1240 482 1235 q 519 1244 501 1244 l 668 1244 q 694 1218 694 1244 q 688 1201 694 1208 l 515 1060 q 494 1046 504 1050 q 467 1042 483 1042 l 371 1042 z "},"Ĕ":{"ha":864,"x_min":108,"x_max":799,"o":"m 142 0 q 118 10 128 0 q 108 33 108 19 l 108 938 q 118 963 108 953 q 142 972 128 972 l 753 972 q 778 963 768 972 q 788 938 788 953 l 788 846 q 778 822 788 832 q 753 813 768 813 l 296 813 l 296 567 l 722 567 q 747 558 738 567 q 757 533 757 549 l 757 447 q 747 423 757 432 q 722 414 738 414 l 296 414 l 296 160 l 764 160 q 789 150 779 160 q 799 125 799 140 l 799 33 q 789 10 799 19 q 764 0 779 0 l 142 0 m 432 1031 q 318 1056 361 1031 q 256 1124 275 1082 q 238 1214 238 1165 q 244 1233 238 1225 q 264 1240 251 1240 l 332 1240 q 351 1233 344 1240 q 358 1214 358 1225 q 373 1156 358 1182 q 432 1129 388 1129 q 491 1156 476 1129 q 506 1214 506 1182 q 513 1233 506 1225 q 532 1240 519 1240 l 600 1240 q 619 1233 613 1240 q 626 1214 626 1225 q 608 1124 626 1165 q 547 1056 589 1082 q 432 1031 504 1031 z "},"Ě":{"ha":864,"x_min":108,"x_max":799,"o":"m 142 0 q 118 10 128 0 q 108 33 108 19 l 108 938 q 118 963 108 953 q 142 972 128 972 l 753 972 q 778 963 768 972 q 788 938 788 953 l 788 846 q 778 822 788 832 q 753 813 768 813 l 296 813 l 296 567 l 722 567 q 747 558 738 567 q 757 533 757 549 l 757 447 q 747 423 757 432 q 722 414 738 414 l 296 414 l 296 160 l 764 160 q 789 150 779 160 q 799 125 799 140 l 799 33 q 789 10 799 19 q 764 0 779 0 l 142 0 m 392 1042 q 369 1046 379 1042 q 344 1064 358 1050 l 208 1203 q 196 1226 196 1215 q 217 1244 196 1244 l 271 1244 q 294 1242 282 1244 q 314 1235 306 1240 l 432 1163 l 550 1235 q 571 1242 560 1240 q 593 1244 582 1244 l 647 1244 q 668 1226 668 1244 q 656 1203 668 1215 l 519 1064 q 496 1046 506 1050 q 472 1042 486 1042 l 392 1042 z "},"Ê":{"ha":864,"x_min":108,"x_max":799,"o":"m 142 0 q 118 10 128 0 q 108 33 108 19 l 108 938 q 118 963 108 953 q 142 972 128 972 l 753 972 q 778 963 768 972 q 788 938 788 953 l 788 846 q 778 822 788 832 q 753 813 768 813 l 296 813 l 296 567 l 722 567 q 747 558 738 567 q 757 533 757 549 l 757 447 q 747 423 757 432 q 722 414 738 414 l 296 414 l 296 160 l 764 160 q 789 150 779 160 q 799 125 799 140 l 799 33 q 789 10 799 19 q 764 0 779 0 l 142 0 m 217 1042 q 196 1060 196 1042 q 208 1083 196 1071 l 344 1222 q 369 1241 358 1238 q 392 1244 379 1244 l 472 1244 q 496 1241 486 1244 q 519 1222 506 1238 l 656 1083 q 668 1060 668 1071 q 647 1042 668 1042 l 593 1042 q 571 1044 582 1042 q 550 1051 560 1046 l 432 1125 l 314 1051 q 294 1044 306 1046 q 271 1042 282 1042 l 217 1042 z "},"Ë":{"ha":864,"x_min":108,"x_max":799,"o":"m 142 0 q 118 10 128 0 q 108 33 108 19 l 108 938 q 118 963 108 953 q 142 972 128 972 l 753 972 q 778 963 768 972 q 788 938 788 953 l 788 846 q 778 822 788 832 q 753 813 768 813 l 296 813 l 296 567 l 722 567 q 747 558 738 567 q 757 533 757 549 l 757 447 q 747 423 757 432 q 722 414 738 414 l 296 414 l 296 160 l 764 160 q 789 150 779 160 q 799 125 799 140 l 799 33 q 789 10 799 19 q 764 0 779 0 l 142 0 m 532 1042 q 510 1050 518 1042 q 501 1072 501 1058 l 501 1174 q 510 1197 501 1188 q 532 1206 518 1206 l 633 1206 q 656 1197 647 1206 q 665 1174 665 1188 l 665 1072 q 656 1050 665 1058 q 633 1042 647 1042 l 532 1042 m 229 1042 q 207 1050 215 1042 q 199 1072 199 1058 l 199 1174 q 207 1197 199 1188 q 229 1206 215 1206 l 331 1206 q 353 1197 344 1206 q 363 1174 363 1188 l 363 1072 q 353 1050 363 1058 q 331 1042 344 1042 l 229 1042 z "},"Ė":{"ha":864,"x_min":108,"x_max":799,"o":"m 142 0 q 118 10 128 0 q 108 33 108 19 l 108 938 q 118 963 108 953 q 142 972 128 972 l 753 972 q 778 963 768 972 q 788 938 788 953 l 788 846 q 778 822 788 832 q 753 813 768 813 l 296 813 l 296 567 l 722 567 q 747 558 738 567 q 757 533 757 549 l 757 447 q 747 423 757 432 q 722 414 738 414 l 296 414 l 296 160 l 764 160 q 789 150 779 160 q 799 125 799 140 l 799 33 q 789 10 799 19 q 764 0 779 0 l 142 0 m 374 1042 q 351 1050 360 1042 q 343 1072 343 1058 l 343 1189 q 351 1212 343 1203 q 374 1221 360 1221 l 490 1221 q 513 1212 504 1221 q 522 1189 522 1203 l 522 1072 q 513 1050 522 1058 q 490 1042 504 1042 l 374 1042 z "},"È":{"ha":864,"x_min":108,"x_max":799,"o":"m 142 0 q 118 10 128 0 q 108 33 108 19 l 108 938 q 118 963 108 953 q 142 972 128 972 l 753 972 q 778 963 768 972 q 788 938 788 953 l 788 846 q 778 822 788 832 q 753 813 768 813 l 296 813 l 296 567 l 722 567 q 747 558 738 567 q 757 533 757 549 l 757 447 q 747 423 757 432 q 722 414 738 414 l 296 414 l 296 160 l 764 160 q 789 150 779 160 q 799 125 799 140 l 799 33 q 789 10 799 19 q 764 0 779 0 l 142 0 m 407 1042 q 378 1046 389 1042 q 357 1060 368 1050 l 185 1201 q 178 1218 178 1208 q 204 1244 178 1244 l 353 1244 q 381 1240 371 1244 q 404 1219 392 1235 l 518 1082 q 525 1064 525 1075 q 503 1042 525 1042 l 407 1042 z "},"Ē":{"ha":864,"x_min":108,"x_max":799,"o":"m 142 0 q 118 10 128 0 q 108 33 108 19 l 108 938 q 118 963 108 953 q 142 972 128 972 l 753 972 q 778 963 768 972 q 788 938 788 953 l 788 846 q 778 822 788 832 q 753 813 768 813 l 296 813 l 296 567 l 722 567 q 747 558 738 567 q 757 533 757 549 l 757 447 q 747 423 757 432 q 722 414 738 414 l 296 414 l 296 160 l 764 160 q 789 150 779 160 q 799 125 799 140 l 799 33 q 789 10 799 19 q 764 0 779 0 l 142 0 m 243 1042 q 221 1050 229 1042 q 213 1072 213 1058 l 213 1150 q 221 1172 213 1164 q 243 1181 229 1181 l 621 1181 q 643 1172 635 1181 q 651 1150 651 1164 l 651 1072 q 643 1050 651 1058 q 621 1042 635 1042 l 243 1042 z "},"Ę":{"ha":864,"x_min":108,"x_max":799,"o":"m 742 -306 q 628 -278 675 -306 q 559 -204 582 -251 q 536 -96 536 -157 q 541 -44 536 -68 q 556 0 546 -19 l 142 0 q 118 10 128 0 q 108 33 108 19 l 108 938 q 118 963 108 953 q 142 972 128 972 l 753 972 q 778 963 768 972 q 788 938 788 953 l 788 846 q 778 822 788 832 q 753 813 768 813 l 296 813 l 296 567 l 722 567 q 747 558 738 567 q 757 533 757 549 l 757 447 q 747 423 757 432 q 722 414 738 414 l 296 414 l 296 160 l 764 160 q 789 150 779 160 q 799 125 799 140 l 799 33 q 789 10 799 19 q 764 0 779 0 l 742 0 q 678 -28 700 -1 q 656 -96 656 -56 q 679 -163 656 -136 q 747 -190 703 -190 l 765 -190 q 789 -199 779 -190 q 799 -224 799 -208 l 799 -272 q 789 -296 799 -286 q 765 -306 779 -306 l 742 -306 z "},"F":{"ha":835,"x_min":108,"x_max":779,"o":"m 142 0 q 118 10 128 0 q 108 33 108 19 l 108 938 q 118 963 108 953 q 142 972 128 972 l 744 972 q 769 963 760 972 q 779 938 779 953 l 779 840 q 769 816 779 825 q 744 807 760 807 l 299 807 l 299 543 l 717 543 q 742 533 732 543 q 751 508 751 524 l 751 411 q 742 388 751 397 q 717 378 732 378 l 299 378 l 299 33 q 289 10 299 19 q 264 0 279 0 l 142 0 z "},"G":{"ha":972,"x_min":75,"x_max":903,"o":"m 486 -14 q 269 31 358 -14 q 130 159 179 75 q 76 360 81 243 q 75 488 75 419 q 76 618 75 557 q 130 815 81 733 q 270 942 179 897 q 486 986 361 986 q 664 959 588 986 q 791 890 740 932 q 867 799 842 847 q 894 708 893 750 q 888 688 896 696 q 865 679 879 679 l 722 679 q 701 685 708 679 q 689 701 694 690 q 654 759 678 731 q 590 807 631 788 q 486 826 550 826 q 335 776 392 826 q 275 611 279 726 q 275 367 271 490 q 337 197 279 249 q 489 146 394 146 q 601 168 551 146 q 678 238 650 190 q 707 358 707 285 l 707 401 l 538 401 q 514 411 524 401 q 504 436 504 421 l 504 510 q 514 535 504 525 q 538 544 524 544 l 869 544 q 894 535 885 544 q 903 510 903 525 l 903 364 q 852 163 903 247 q 708 32 801 78 q 486 -14 614 -14 z "},"Ğ":{"ha":972,"x_min":75,"x_max":903,"o":"m 486 -14 q 269 31 358 -14 q 130 159 179 75 q 76 360 81 243 q 75 488 75 419 q 76 618 75 557 q 130 815 81 733 q 270 942 179 897 q 486 986 361 986 q 664 959 588 986 q 791 890 740 932 q 867 799 842 847 q 894 708 893 750 q 888 688 896 696 q 865 679 879 679 l 722 679 q 701 685 708 679 q 689 701 694 690 q 654 759 678 731 q 590 807 631 788 q 486 826 550 826 q 335 776 392 826 q 275 611 279 726 q 275 367 271 490 q 337 197 279 249 q 489 146 394 146 q 601 168 551 146 q 678 238 650 190 q 707 358 707 285 l 707 401 l 538 401 q 514 411 524 401 q 504 436 504 421 l 504 510 q 514 535 504 525 q 538 544 524 544 l 869 544 q 894 535 885 544 q 903 510 903 525 l 903 364 q 852 163 903 247 q 708 32 801 78 q 486 -14 614 -14 m 492 1031 q 378 1056 421 1031 q 316 1124 335 1082 q 297 1214 297 1165 q 304 1233 297 1225 q 324 1240 311 1240 l 392 1240 q 411 1233 404 1240 q 418 1214 418 1225 q 433 1156 418 1182 q 492 1129 447 1129 q 551 1156 536 1129 q 565 1214 565 1182 q 572 1233 565 1225 q 592 1240 579 1240 l 660 1240 q 679 1233 672 1240 q 686 1214 686 1225 q 667 1124 686 1165 q 606 1056 649 1082 q 492 1031 564 1031 z "},"Ĝ":{"ha":972,"x_min":75,"x_max":903,"o":"m 486 -14 q 269 31 358 -14 q 130 159 179 75 q 76 360 81 243 q 75 488 75 419 q 76 618 75 557 q 130 815 81 733 q 270 942 179 897 q 486 986 361 986 q 664 959 588 986 q 791 890 740 932 q 867 799 842 847 q 894 708 893 750 q 888 688 896 696 q 865 679 879 679 l 722 679 q 701 685 708 679 q 689 701 694 690 q 654 759 678 731 q 590 807 631 788 q 486 826 550 826 q 335 776 392 826 q 275 611 279 726 q 275 367 271 490 q 337 197 279 249 q 489 146 394 146 q 601 168 551 146 q 678 238 650 190 q 707 358 707 285 l 707 401 l 538 401 q 514 411 524 401 q 504 436 504 421 l 504 510 q 514 535 504 525 q 538 544 524 544 l 869 544 q 894 535 885 544 q 903 510 903 525 l 903 364 q 852 163 903 247 q 708 32 801 78 q 486 -14 614 -14 m 276 1042 q 256 1060 256 1042 q 268 1083 256 1071 l 404 1222 q 428 1241 418 1238 q 451 1244 439 1244 l 532 1244 q 556 1241 546 1244 q 579 1222 565 1238 l 715 1083 q 728 1060 728 1071 q 707 1042 728 1042 l 653 1042 q 631 1044 642 1042 q 610 1051 619 1046 l 492 1125 l 374 1051 q 353 1044 365 1046 q 331 1042 342 1042 l 276 1042 z "},"Ģ":{"ha":972,"x_min":75,"x_max":903,"o":"m 486 -14 q 269 31 358 -14 q 130 159 179 75 q 76 360 81 243 q 75 488 75 419 q 76 618 75 557 q 130 815 81 733 q 270 942 179 897 q 486 986 361 986 q 664 959 588 986 q 791 890 740 932 q 867 799 842 847 q 894 708 893 750 q 888 688 896 696 q 865 679 879 679 l 722 679 q 701 685 708 679 q 689 701 694 690 q 654 759 678 731 q 590 807 631 788 q 486 826 550 826 q 335 776 392 826 q 275 611 279 726 q 275 367 271 490 q 337 197 279 249 q 489 146 394 146 q 601 168 551 146 q 678 238 650 190 q 707 358 707 285 l 707 401 l 538 401 q 514 411 524 401 q 504 436 504 421 l 504 510 q 514 535 504 525 q 538 544 524 544 l 869 544 q 894 535 885 544 q 903 510 903 525 l 903 364 q 852 163 903 247 q 708 32 801 78 q 486 -14 614 -14 m 394 -314 q 376 -306 382 -314 q 369 -285 369 -297 l 396 -114 q 409 -83 399 -96 q 440 -69 419 -69 l 563 -69 q 581 -77 574 -69 q 588 -94 588 -85 q 585 -114 588 -104 l 519 -279 q 504 -303 514 -293 q 475 -314 494 -314 l 394 -314 z "},"Ġ":{"ha":972,"x_min":75,"x_max":903,"o":"m 486 -14 q 269 31 358 -14 q 130 159 179 75 q 76 360 81 243 q 75 488 75 419 q 76 618 75 557 q 130 815 81 733 q 270 942 179 897 q 486 986 361 986 q 664 959 588 986 q 791 890 740 932 q 867 799 842 847 q 894 708 893 750 q 888 688 896 696 q 865 679 879 679 l 722 679 q 701 685 708 679 q 689 701 694 690 q 654 759 678 731 q 590 807 631 788 q 486 826 550 826 q 335 776 392 826 q 275 611 279 726 q 275 367 271 490 q 337 197 279 249 q 489 146 394 146 q 601 168 551 146 q 678 238 650 190 q 707 358 707 285 l 707 401 l 538 401 q 514 411 524 401 q 504 436 504 421 l 504 510 q 514 535 504 525 q 538 544 524 544 l 869 544 q 894 535 885 544 q 903 510 903 525 l 903 364 q 852 163 903 247 q 708 32 801 78 q 486 -14 614 -14 m 433 1042 q 411 1050 419 1042 q 403 1072 403 1058 l 403 1189 q 411 1212 403 1203 q 433 1221 419 1221 l 550 1221 q 573 1212 564 1221 q 582 1189 582 1203 l 582 1072 q 573 1050 582 1058 q 550 1042 564 1042 l 433 1042 z "},"H":{"ha":1013,"x_min":108,"x_max":904,"o":"m 142 0 q 118 9 128 0 q 108 33 108 18 l 108 938 q 118 963 108 953 q 142 972 128 972 l 268 972 q 292 963 283 972 q 301 938 301 953 l 301 579 l 711 579 l 711 938 q 721 963 711 953 q 744 972 731 972 l 869 972 q 894 963 885 972 q 904 938 904 953 l 904 33 q 894 10 904 19 q 869 0 885 0 l 744 0 q 721 10 731 0 q 711 33 711 19 l 711 406 l 301 406 l 301 33 q 292 10 301 19 q 268 0 283 0 l 142 0 z "},"Ħ":{"ha":1013,"x_min":51,"x_max":968,"o":"m 85 717 q 61 726 71 717 q 51 750 51 736 l 51 800 q 61 824 51 815 q 85 833 71 833 l 935 833 q 959 824 950 833 q 968 800 968 815 l 968 750 q 959 726 968 736 q 935 717 950 717 l 85 717 m 142 0 q 118 9 128 0 q 108 33 108 18 l 108 938 q 118 963 108 953 q 142 972 128 972 l 268 972 q 292 963 283 972 q 301 938 301 953 l 301 579 l 711 579 l 711 938 q 721 963 711 953 q 744 972 731 972 l 869 972 q 894 963 885 972 q 904 938 904 953 l 904 33 q 894 10 904 19 q 869 0 885 0 l 744 0 q 721 10 731 0 q 711 33 711 19 l 711 406 l 301 406 l 301 33 q 292 10 301 19 q 268 0 283 0 l 142 0 z "},"Ĥ":{"ha":1013,"x_min":108,"x_max":904,"o":"m 142 0 q 118 9 128 0 q 108 33 108 18 l 108 938 q 118 963 108 953 q 142 972 128 972 l 268 972 q 292 963 283 972 q 301 938 301 953 l 301 579 l 711 579 l 711 938 q 721 963 711 953 q 744 972 731 972 l 869 972 q 894 963 885 972 q 904 938 904 953 l 904 33 q 894 10 904 19 q 869 0 885 0 l 744 0 q 721 10 731 0 q 711 33 711 19 l 711 406 l 301 406 l 301 33 q 292 10 301 19 q 268 0 283 0 l 142 0 m 292 1042 q 271 1060 271 1042 q 283 1083 271 1071 l 419 1222 q 444 1241 433 1238 q 467 1244 454 1244 l 547 1244 q 571 1241 561 1244 q 594 1222 581 1238 l 731 1083 q 743 1060 743 1071 q 722 1042 743 1042 l 668 1042 q 646 1044 657 1042 q 625 1051 635 1046 l 507 1125 l 389 1051 q 369 1044 381 1046 q 346 1042 357 1042 l 292 1042 z "},"I":{"ha":415,"x_min":108,"x_max":306,"o":"m 142 0 q 118 10 128 0 q 108 33 108 19 l 108 939 q 118 963 108 953 q 142 972 128 972 l 272 972 q 297 963 288 972 q 306 939 306 953 l 306 33 q 297 10 306 19 q 272 0 288 0 l 142 0 z "},"Ĳ":{"ha":942,"x_min":108,"x_max":840,"o":"m 450 -14 q 426 -4 436 -14 q 417 19 417 6 l 417 122 q 426 147 417 138 q 450 157 436 157 q 595 216 547 157 q 643 379 643 275 l 643 939 q 652 963 643 953 q 676 972 661 972 l 807 972 q 831 963 822 972 q 840 938 840 953 l 840 356 q 794 149 840 232 q 662 26 749 67 q 450 -14 575 -14 m 142 0 q 118 10 128 0 q 108 33 108 19 l 108 939 q 118 963 108 953 q 142 972 128 972 l 272 972 q 297 963 288 972 q 306 939 306 953 l 306 33 q 297 10 306 19 q 272 0 288 0 l 142 0 z "},"Í":{"ha":415,"x_min":108,"x_max":469,"o":"m 142 0 q 118 10 128 0 q 108 33 108 19 l 108 939 q 118 963 108 953 q 142 972 128 972 l 272 972 q 297 963 288 972 q 306 939 306 953 l 306 33 q 297 10 306 19 q 272 0 288 0 l 142 0 m 146 1042 q 124 1064 124 1042 q 131 1082 124 1075 l 243 1219 q 267 1240 257 1235 q 294 1244 276 1244 l 443 1244 q 469 1218 469 1244 q 463 1201 469 1208 l 290 1060 q 269 1046 279 1050 q 242 1042 258 1042 l 146 1042 z "},"Ĭ":{"ha":415,"x_min":13,"x_max":403,"o":"m 142 0 q 118 10 128 0 q 108 33 108 19 l 108 939 q 118 963 108 953 q 142 972 128 972 l 272 972 q 297 963 288 972 q 306 939 306 953 l 306 33 q 297 10 306 19 q 272 0 288 0 l 142 0 m 208 1031 q 94 1056 138 1031 q 33 1124 51 1082 q 14 1214 14 1165 q 21 1233 14 1225 q 40 1240 28 1240 l 108 1240 q 128 1233 121 1240 q 135 1214 135 1225 q 149 1156 135 1182 q 208 1129 164 1129 q 267 1156 253 1129 q 282 1214 282 1182 q 289 1233 282 1225 q 308 1240 296 1240 l 376 1240 q 396 1233 389 1240 q 403 1214 403 1225 q 384 1124 403 1165 q 323 1056 365 1082 q 208 1031 281 1031 z "},"Î":{"ha":415,"x_min":-28,"x_max":443,"o":"m 142 0 q 118 10 128 0 q 108 33 108 19 l 108 939 q 118 963 108 953 q 142 972 128 972 l 272 972 q 297 963 288 972 q 306 939 306 953 l 306 33 q 297 10 306 19 q 272 0 288 0 l 142 0 m -7 1042 q -28 1060 -28 1042 q -15 1083 -28 1071 l 121 1222 q 145 1241 135 1238 q 168 1244 156 1244 l 249 1244 q 272 1241 263 1244 q 296 1222 282 1238 l 432 1083 q 444 1060 444 1071 q 424 1042 444 1042 l 369 1042 q 347 1044 358 1042 q 326 1051 336 1046 l 208 1125 l 90 1051 q 70 1044 82 1046 q 47 1042 58 1042 l -7 1042 z "},"Ï":{"ha":415,"x_min":-26,"x_max":442,"o":"m 142 0 q 118 10 128 0 q 108 33 108 19 l 108 939 q 118 963 108 953 q 142 972 128 972 l 272 972 q 297 963 288 972 q 306 939 306 953 l 306 33 q 297 10 306 19 q 272 0 288 0 l 142 0 m 307 1042 q 285 1050 293 1042 q 276 1072 276 1058 l 276 1174 q 285 1197 276 1188 q 307 1206 293 1206 l 408 1206 q 431 1197 422 1206 q 440 1174 440 1188 l 440 1072 q 431 1050 440 1058 q 408 1042 422 1042 l 307 1042 m 4 1042 q -18 1050 -10 1042 q -26 1072 -26 1058 l -26 1174 q -18 1197 -26 1188 q 4 1206 -10 1206 l 106 1206 q 128 1197 119 1206 q 138 1174 138 1188 l 138 1072 q 128 1050 138 1058 q 106 1042 119 1042 l 4 1042 z "},"İ":{"ha":415,"x_min":108,"x_max":306,"o":"m 142 0 q 118 10 128 0 q 108 33 108 19 l 108 939 q 118 963 108 953 q 142 972 128 972 l 272 972 q 297 963 288 972 q 306 939 306 953 l 306 33 q 297 10 306 19 q 272 0 288 0 l 142 0 m 149 1042 q 126 1050 135 1042 q 118 1072 118 1058 l 118 1189 q 126 1212 118 1203 q 149 1221 135 1221 l 265 1221 q 288 1212 279 1221 q 297 1189 297 1203 l 297 1072 q 288 1050 297 1058 q 265 1042 279 1042 l 149 1042 z "},"Ì":{"ha":415,"x_min":-47,"x_max":306,"o":"m 142 0 q 118 10 128 0 q 108 33 108 19 l 108 939 q 118 963 108 953 q 142 972 128 972 l 272 972 q 297 963 288 972 q 306 939 306 953 l 306 33 q 297 10 306 19 q 272 0 288 0 l 142 0 m 182 1042 q 153 1046 164 1042 q 132 1060 143 1050 l -40 1201 q -47 1218 -47 1208 q -21 1244 -47 1244 l 128 1244 q 156 1240 146 1244 q 179 1219 167 1235 l 293 1082 q 300 1064 300 1075 q 278 1042 300 1042 l 182 1042 z "},"Ī":{"ha":415,"x_min":-12,"x_max":426,"o":"m 142 0 q 118 10 128 0 q 108 33 108 19 l 108 939 q 118 963 108 953 q 142 972 128 972 l 272 972 q 297 963 288 972 q 306 939 306 953 l 306 33 q 297 10 306 19 q 272 0 288 0 l 142 0 m 18 1042 q -4 1050 4 1042 q -12 1072 -12 1058 l -12 1150 q -4 1172 -12 1164 q 18 1181 4 1181 l 396 1181 q 418 1172 410 1181 q 426 1150 426 1164 l 426 1072 q 418 1050 426 1058 q 396 1042 410 1042 l 18 1042 z "},"Į":{"ha":429,"x_min":58,"x_max":321,"o":"m 264 -307 q 151 -280 197 -307 q 81 -205 104 -253 q 58 -96 58 -157 q 83 -3 58 -40 q 151 46 108 33 l 139 53 q 128 61 132 54 q 124 76 124 68 l 124 939 q 133 963 124 953 q 157 972 142 972 l 288 972 q 311 963 301 972 q 321 939 321 953 l 321 33 q 311 10 321 19 q 288 0 301 0 l 269 0 q 203 -28 226 0 q 179 -96 179 -56 q 203 -163 179 -136 q 269 -190 226 -190 l 288 -190 q 311 -200 301 -190 q 321 -224 321 -210 l 321 -274 q 311 -297 321 -287 q 288 -307 301 -307 l 264 -307 z "},"Ĩ":{"ha":415,"x_min":-11,"x_max":425,"o":"m 142 0 q 118 10 128 0 q 108 33 108 19 l 108 939 q 118 963 108 953 q 142 972 128 972 l 272 972 q 297 963 288 972 q 306 939 306 953 l 306 33 q 297 10 306 19 q 272 0 288 0 l 142 0 m 286 1035 q 226 1047 250 1035 q 182 1071 201 1058 q 140 1083 163 1083 q 115 1073 122 1083 q 100 1052 107 1063 q 78 1042 93 1042 l 14 1042 q -3 1049 4 1042 q -10 1065 -10 1056 q -2 1113 -10 1086 q 23 1163 6 1139 q 67 1203 40 1188 q 128 1218 93 1218 q 190 1206 165 1218 q 233 1182 214 1194 q 275 1169 253 1169 q 301 1181 293 1169 q 315 1202 308 1192 q 338 1213 322 1213 l 401 1213 q 419 1205 413 1213 q 425 1188 425 1197 q 417 1140 425 1167 q 391 1090 408 1114 q 348 1051 374 1067 q 286 1035 322 1035 z "},"J":{"ha":906,"x_min":43,"x_max":806,"o":"m 422 -14 q 280 5 347 -14 q 160 63 213 24 q 76 158 107 101 q 43 293 44 215 q 51 315 43 306 q 72 324 60 324 l 204 324 q 231 314 222 324 q 246 288 240 304 q 278 206 253 238 q 341 160 303 175 q 426 146 379 146 q 560 203 514 146 q 607 361 607 260 l 607 808 l 136 808 q 112 818 121 808 q 103 842 103 828 l 103 939 q 112 963 103 953 q 136 972 121 972 l 771 972 q 796 963 786 972 q 806 938 806 953 l 806 356 q 758 157 806 240 q 624 30 710 74 q 422 -14 539 -14 z "},"Ĵ":{"ha":906,"x_min":43,"x_max":806,"o":"m 422 -14 q 280 5 347 -14 q 160 63 213 24 q 76 158 107 101 q 43 293 44 215 q 51 315 43 306 q 72 324 60 324 l 204 324 q 231 314 222 324 q 246 288 240 304 q 278 206 253 238 q 341 160 303 175 q 426 146 379 146 q 560 203 514 146 q 607 361 607 260 l 607 808 l 136 808 q 112 818 121 808 q 103 842 103 828 l 103 939 q 112 963 103 953 q 136 972 121 972 l 771 972 q 796 963 786 972 q 806 938 806 953 l 806 356 q 758 157 806 240 q 624 30 710 74 q 422 -14 539 -14 m 244 1042 q 224 1060 224 1042 q 236 1083 224 1071 l 372 1222 q 397 1241 386 1238 q 419 1244 407 1244 l 500 1244 q 524 1241 514 1244 q 547 1222 533 1238 l 683 1083 q 696 1060 696 1071 q 675 1042 696 1042 l 621 1042 q 599 1044 610 1042 q 578 1051 588 1046 l 460 1125 l 342 1051 q 322 1044 333 1046 q 299 1042 310 1042 l 244 1042 z "},"K":{"ha":878,"x_min":108,"x_max":861,"o":"m 142 0 q 118 10 128 0 q 108 33 108 19 l 108 938 q 118 963 108 953 q 142 972 128 972 l 264 972 q 289 963 279 972 q 299 938 299 953 l 299 613 l 613 947 q 631 963 618 954 q 667 972 644 972 l 804 972 q 824 964 815 972 q 833 943 833 956 q 828 926 833 933 l 446 507 l 854 47 q 861 29 861 39 q 852 8 861 17 q 832 0 843 0 l 689 0 q 652 10 665 0 q 635 25 639 21 l 299 393 l 299 33 q 289 10 299 19 q 264 0 279 0 l 142 0 z "},"Ķ":{"ha":878,"x_min":108,"x_max":861,"o":"m 142 0 q 118 10 128 0 q 108 33 108 19 l 108 938 q 118 963 108 953 q 142 972 128 972 l 264 972 q 289 963 279 972 q 299 938 299 953 l 299 613 l 613 947 q 631 963 618 954 q 667 972 644 972 l 804 972 q 824 964 815 972 q 833 943 833 956 q 828 926 833 933 l 446 507 l 854 47 q 861 29 861 39 q 852 8 861 17 q 832 0 843 0 l 689 0 q 652 10 665 0 q 635 25 639 21 l 299 393 l 299 33 q 289 10 299 19 q 264 0 279 0 l 142 0 m 349 -314 q 330 -306 336 -314 q 324 -285 324 -297 l 350 -114 q 363 -83 353 -96 q 394 -69 374 -69 l 517 -69 q 535 -77 528 -69 q 542 -94 542 -85 q 539 -114 542 -104 l 474 -279 q 458 -303 468 -293 q 429 -314 449 -314 l 349 -314 z "},"L":{"ha":806,"x_min":108,"x_max":779,"o":"m 142 0 q 118 10 128 0 q 108 33 108 19 l 108 939 q 118 963 108 953 q 142 972 128 972 l 271 972 q 294 963 285 972 q 304 939 304 953 l 304 165 l 744 165 q 769 156 760 165 q 779 131 779 146 l 779 33 q 769 10 779 19 q 744 0 760 0 l 142 0 z "},"Ĺ":{"ha":806,"x_min":108,"x_max":779,"o":"m 142 0 q 118 10 128 0 q 108 33 108 19 l 108 939 q 118 963 108 953 q 142 972 128 972 l 271 972 q 294 963 285 972 q 304 939 304 953 l 304 165 l 744 165 q 769 156 760 165 q 779 131 779 146 l 779 33 q 769 10 779 19 q 744 0 760 0 l 142 0 m 138 1042 q 115 1064 115 1042 q 122 1082 115 1075 l 235 1219 q 258 1240 249 1235 q 286 1244 268 1244 l 435 1244 q 461 1218 461 1244 q 454 1201 461 1208 l 282 1060 q 260 1046 271 1050 q 233 1042 250 1042 l 138 1042 z "},"Ľ":{"ha":806,"x_min":108,"x_max":779,"o":"m 142 0 q 118 10 128 0 q 108 33 108 19 l 108 939 q 118 963 108 953 q 142 972 128 972 l 271 972 q 294 963 285 972 q 304 939 304 953 l 304 165 l 744 165 q 769 156 760 165 q 779 131 779 146 l 779 33 q 769 10 779 19 q 744 0 760 0 l 142 0 m 493 690 q 474 699 481 690 q 468 719 468 707 l 494 890 q 508 922 497 908 q 539 935 518 935 l 656 935 q 674 927 667 935 q 681 910 681 919 q 676 890 681 900 l 613 725 q 597 701 607 711 q 567 690 588 690 l 493 690 z "},"Ļ":{"ha":806,"x_min":108,"x_max":779,"o":"m 142 0 q 118 10 128 0 q 108 33 108 19 l 108 939 q 118 963 108 953 q 142 972 128 972 l 271 972 q 294 963 285 972 q 304 939 304 953 l 304 165 l 744 165 q 769 156 760 165 q 779 131 779 146 l 779 33 q 769 10 779 19 q 744 0 760 0 l 142 0 m 325 -314 q 306 -306 313 -314 q 300 -285 300 -297 l 326 -114 q 340 -83 329 -96 q 371 -69 350 -69 l 493 -69 q 511 -77 504 -69 q 518 -94 518 -85 q 515 -114 518 -104 l 450 -279 q 435 -303 444 -293 q 406 -314 425 -314 l 325 -314 z "},"Ŀ":{"ha":815,"x_min":108,"x_max":779,"o":"m 142 0 q 118 10 128 0 q 108 33 108 19 l 108 939 q 118 963 108 953 q 142 972 128 972 l 271 972 q 294 963 285 972 q 304 939 304 953 l 304 165 l 744 165 q 769 156 760 165 q 779 131 779 146 l 779 33 q 769 10 779 19 q 744 0 760 0 l 142 0 m 556 433 q 532 442 540 433 q 524 465 524 450 l 524 578 q 532 601 524 592 q 556 610 540 610 l 668 610 q 691 601 682 610 q 700 578 700 592 l 700 465 q 691 442 700 450 q 668 433 682 433 l 556 433 z "},"Ł":{"ha":817,"x_min":17,"x_max":790,"o":"m 153 0 q 129 10 139 0 q 119 33 119 19 l 119 368 l 61 346 q 44 342 51 342 q 25 349 33 342 q 17 368 17 356 l 17 444 q 24 470 17 461 q 47 485 31 479 l 119 511 l 119 939 q 129 963 119 953 q 153 972 139 972 l 282 972 q 306 963 296 972 q 315 939 315 953 l 315 589 l 517 667 q 533 671 528 671 q 553 664 544 671 q 561 644 561 657 l 561 568 q 554 544 561 551 q 531 529 547 536 l 315 444 l 315 165 l 757 165 q 781 156 771 165 q 790 132 790 146 l 790 33 q 781 10 790 19 q 757 0 771 0 l 153 0 z "},"M":{"ha":1126,"x_min":108,"x_max":1018,"o":"m 143 0 q 118 10 128 0 q 108 33 108 19 l 108 938 q 118 963 108 953 q 143 972 128 972 l 253 972 q 282 962 272 972 q 294 946 292 951 l 563 446 l 833 946 q 846 962 836 951 q 875 972 856 972 l 983 972 q 1008 963 999 972 q 1018 938 1018 953 l 1018 33 q 1008 10 1018 19 q 983 0 999 0 l 867 0 q 842 10 851 0 q 833 33 833 19 l 833 635 l 639 264 q 621 242 632 251 q 592 233 610 233 l 535 233 q 505 242 515 233 q 488 264 494 251 l 293 635 l 293 33 q 283 10 293 19 q 260 0 274 0 l 143 0 z "},"N":{"ha":982,"x_min":108,"x_max":874,"o":"m 142 0 q 118 10 128 0 q 108 33 108 19 l 108 938 q 118 963 108 953 q 142 972 128 972 l 249 972 q 277 963 268 972 q 289 950 286 954 l 689 328 l 689 938 q 698 963 689 953 q 722 972 707 972 l 839 972 q 864 963 854 972 q 874 938 874 953 l 874 35 q 864 10 874 19 q 840 0 854 0 l 732 0 q 704 10 713 0 q 692 22 696 19 l 293 631 l 293 33 q 283 10 293 19 q 258 0 274 0 l 142 0 z "},"Ń":{"ha":982,"x_min":108,"x_max":874,"o":"m 142 0 q 118 10 128 0 q 108 33 108 19 l 108 938 q 118 963 108 953 q 142 972 128 972 l 249 972 q 277 963 268 972 q 289 950 286 954 l 689 328 l 689 938 q 698 963 689 953 q 722 972 707 972 l 839 972 q 864 963 854 972 q 874 938 874 953 l 874 35 q 864 10 874 19 q 840 0 854 0 l 732 0 q 704 10 713 0 q 692 22 696 19 l 293 631 l 293 33 q 283 10 293 19 q 258 0 274 0 l 142 0 m 429 1042 q 407 1064 407 1042 q 414 1082 407 1075 l 526 1219 q 550 1240 540 1235 q 578 1244 560 1244 l 726 1244 q 753 1218 753 1244 q 746 1201 753 1208 l 574 1060 q 552 1046 563 1050 q 525 1042 542 1042 l 429 1042 z "},"Ň":{"ha":982,"x_min":108,"x_max":874,"o":"m 142 0 q 118 10 128 0 q 108 33 108 19 l 108 938 q 118 963 108 953 q 142 972 128 972 l 249 972 q 277 963 268 972 q 289 950 286 954 l 689 328 l 689 938 q 698 963 689 953 q 722 972 707 972 l 839 972 q 864 963 854 972 q 874 938 874 953 l 874 35 q 864 10 874 19 q 840 0 854 0 l 732 0 q 704 10 713 0 q 692 22 696 19 l 293 631 l 293 33 q 283 10 293 19 q 258 0 274 0 l 142 0 m 450 1042 q 427 1046 438 1042 q 403 1064 417 1050 l 267 1203 q 254 1226 254 1215 q 275 1244 254 1244 l 329 1244 q 352 1242 340 1244 q 372 1235 364 1240 l 490 1163 l 608 1235 q 629 1242 618 1240 q 651 1244 640 1244 l 706 1244 q 726 1226 726 1244 q 714 1203 726 1215 l 578 1064 q 554 1046 564 1050 q 531 1042 544 1042 l 450 1042 z "},"Ņ":{"ha":982,"x_min":108,"x_max":874,"o":"m 142 0 q 118 10 128 0 q 108 33 108 19 l 108 938 q 118 963 108 953 q 142 972 128 972 l 249 972 q 277 963 268 972 q 289 950 286 954 l 689 328 l 689 938 q 698 963 689 953 q 722 972 707 972 l 839 972 q 864 963 854 972 q 874 938 874 953 l 874 35 q 864 10 874 19 q 840 0 854 0 l 732 0 q 704 10 713 0 q 692 22 696 19 l 293 631 l 293 33 q 283 10 293 19 q 258 0 274 0 l 142 0 m 392 -314 q 373 -306 379 -314 q 367 -285 367 -297 l 393 -114 q 406 -83 396 -96 q 438 -69 417 -69 l 560 -69 q 578 -77 571 -69 q 585 -94 585 -85 q 582 -114 585 -104 l 517 -279 q 501 -303 511 -293 q 472 -314 492 -314 l 392 -314 z "},"Ñ":{"ha":982,"x_min":108,"x_max":874,"o":"m 142 0 q 118 10 128 0 q 108 33 108 19 l 108 938 q 118 963 108 953 q 142 972 128 972 l 249 972 q 277 963 268 972 q 289 950 286 954 l 689 328 l 689 938 q 698 963 689 953 q 722 972 707 972 l 839 972 q 864 963 854 972 q 874 938 874 953 l 874 35 q 864 10 874 19 q 840 0 854 0 l 732 0 q 704 10 713 0 q 692 22 696 19 l 293 631 l 293 33 q 283 10 293 19 q 258 0 274 0 l 142 0 m 568 1035 q 508 1047 532 1035 q 464 1071 483 1058 q 422 1083 444 1083 q 397 1073 404 1083 q 382 1052 389 1063 q 360 1042 375 1042 l 296 1042 q 279 1049 286 1042 q 272 1065 272 1056 q 280 1113 272 1086 q 305 1163 288 1139 q 349 1203 322 1188 q 410 1218 375 1218 q 472 1206 447 1218 q 515 1182 496 1194 q 557 1169 535 1169 q 583 1181 575 1169 q 597 1202 590 1192 q 619 1213 604 1213 l 683 1213 q 701 1205 694 1213 q 707 1188 707 1197 q 699 1140 707 1167 q 673 1090 690 1114 q 630 1051 656 1067 q 568 1035 604 1035 z "},"Ŋ":{"ha":982,"x_min":108,"x_max":874,"o":"m 553 -312 q 528 -303 538 -312 q 519 -279 519 -293 l 519 -182 q 528 -158 519 -168 q 553 -149 538 -149 l 578 -149 q 646 -133 622 -149 q 679 -89 669 -117 q 689 -26 689 -61 l 689 28 l 293 631 l 293 33 q 283 10 293 19 q 258 0 274 0 l 142 0 q 118 10 128 0 q 108 33 108 19 l 108 938 q 118 963 108 953 q 142 972 128 972 l 249 972 q 277 963 268 972 q 289 950 286 954 l 689 328 l 689 938 q 698 963 689 953 q 722 972 707 972 l 839 972 q 864 963 854 972 q 874 938 874 953 l 874 -32 q 840 -182 874 -119 q 737 -278 806 -244 q 565 -312 668 -312 l 553 -312 z "},"O":{"ha":965,"x_min":75,"x_max":892,"o":"m 482 -14 q 269 27 358 -14 q 131 153 181 68 q 76 367 81 239 q 75 485 75 426 q 76 604 75 543 q 132 815 81 731 q 273 943 183 900 q 482 986 363 986 q 692 943 601 986 q 833 815 782 900 q 889 604 885 731 q 892 485 892 543 q 889 367 892 426 q 835 153 885 239 q 695 27 785 68 q 482 -14 606 -14 m 482 146 q 629 199 572 146 q 690 374 686 253 q 693 487 693 435 q 690 599 693 539 q 660 730 688 679 q 588 803 633 781 q 482 826 542 826 q 378 803 424 826 q 305 730 332 781 q 275 599 278 679 q 274 487 274 539 q 275 374 274 435 q 336 199 279 253 q 482 146 393 146 z "},"Ó":{"ha":965,"x_min":75,"x_max":892,"o":"m 482 -14 q 269 27 358 -14 q 131 153 181 68 q 76 367 81 239 q 75 485 75 426 q 76 604 75 543 q 132 815 81 731 q 273 943 183 900 q 482 986 363 986 q 692 943 601 986 q 833 815 782 900 q 889 604 885 731 q 892 485 892 543 q 889 367 892 426 q 835 153 885 239 q 695 27 785 68 q 482 -14 606 -14 m 482 146 q 629 199 572 146 q 690 374 686 253 q 693 487 693 435 q 690 599 693 539 q 660 730 688 679 q 588 803 633 781 q 482 826 542 826 q 378 803 424 826 q 305 730 332 781 q 275 599 278 679 q 274 487 274 539 q 275 374 274 435 q 336 199 279 253 q 482 146 393 146 m 419 1042 q 397 1064 397 1042 q 404 1082 397 1075 l 517 1219 q 540 1240 531 1235 q 568 1244 550 1244 l 717 1244 q 743 1218 743 1244 q 736 1201 743 1208 l 564 1060 q 542 1046 553 1050 q 515 1042 532 1042 l 419 1042 z "},"Ŏ":{"ha":965,"x_min":75,"x_max":892,"o":"m 482 -14 q 269 27 358 -14 q 131 153 181 68 q 76 367 81 239 q 75 485 75 426 q 76 604 75 543 q 132 815 81 731 q 273 943 183 900 q 482 986 363 986 q 692 943 601 986 q 833 815 782 900 q 889 604 885 731 q 892 485 892 543 q 889 367 892 426 q 835 153 885 239 q 695 27 785 68 q 482 -14 606 -14 m 482 146 q 629 199 572 146 q 690 374 686 253 q 693 487 693 435 q 690 599 693 539 q 660 730 688 679 q 588 803 633 781 q 482 826 542 826 q 378 803 424 826 q 305 730 332 781 q 275 599 278 679 q 274 487 274 539 q 275 374 274 435 q 336 199 279 253 q 482 146 393 146 m 482 1031 q 368 1056 411 1031 q 306 1124 325 1082 q 288 1214 288 1165 q 294 1233 288 1225 q 314 1240 301 1240 l 382 1240 q 401 1233 394 1240 q 408 1214 408 1225 q 423 1156 408 1182 q 482 1129 438 1129 q 541 1156 526 1129 q 556 1214 556 1182 q 563 1233 556 1225 q 582 1240 569 1240 l 650 1240 q 669 1233 663 1240 q 676 1214 676 1225 q 658 1124 676 1165 q 597 1056 639 1082 q 482 1031 554 1031 z "},"Ô":{"ha":965,"x_min":75,"x_max":892,"o":"m 482 -14 q 269 27 358 -14 q 131 153 181 68 q 76 367 81 239 q 75 485 75 426 q 76 604 75 543 q 132 815 81 731 q 273 943 183 900 q 482 986 363 986 q 692 943 601 986 q 833 815 782 900 q 889 604 885 731 q 892 485 892 543 q 889 367 892 426 q 835 153 885 239 q 695 27 785 68 q 482 -14 606 -14 m 482 146 q 629 199 572 146 q 690 374 686 253 q 693 487 693 435 q 690 599 693 539 q 660 730 688 679 q 588 803 633 781 q 482 826 542 826 q 378 803 424 826 q 305 730 332 781 q 275 599 278 679 q 274 487 274 539 q 275 374 274 435 q 336 199 279 253 q 482 146 393 146 m 267 1042 q 246 1060 246 1042 q 258 1083 246 1071 l 394 1222 q 419 1241 408 1238 q 442 1244 429 1244 l 522 1244 q 546 1241 536 1244 q 569 1222 556 1238 l 706 1083 q 718 1060 718 1071 q 697 1042 718 1042 l 643 1042 q 621 1044 632 1042 q 600 1051 610 1046 l 482 1125 l 364 1051 q 344 1044 356 1046 q 321 1042 332 1042 l 267 1042 z "},"Ö":{"ha":965,"x_min":75,"x_max":892,"o":"m 482 -14 q 269 27 358 -14 q 131 153 181 68 q 76 367 81 239 q 75 485 75 426 q 76 604 75 543 q 132 815 81 731 q 273 943 183 900 q 482 986 363 986 q 692 943 601 986 q 833 815 782 900 q 889 604 885 731 q 892 485 892 543 q 889 367 892 426 q 835 153 885 239 q 695 27 785 68 q 482 -14 606 -14 m 482 146 q 629 199 572 146 q 690 374 686 253 q 693 487 693 435 q 690 599 693 539 q 660 730 688 679 q 588 803 633 781 q 482 826 542 826 q 378 803 424 826 q 305 730 332 781 q 275 599 278 679 q 274 487 274 539 q 275 374 274 435 q 336 199 279 253 q 482 146 393 146 m 582 1042 q 560 1050 568 1042 q 551 1072 551 1058 l 551 1174 q 560 1197 551 1188 q 582 1206 568 1206 l 683 1206 q 706 1197 697 1206 q 715 1174 715 1188 l 715 1072 q 706 1050 715 1058 q 683 1042 697 1042 l 582 1042 m 279 1042 q 257 1050 265 1042 q 249 1072 249 1058 l 249 1174 q 257 1197 249 1188 q 279 1206 265 1206 l 381 1206 q 403 1197 394 1206 q 413 1174 413 1188 l 413 1072 q 403 1050 413 1058 q 381 1042 394 1042 l 279 1042 z "},"Ò":{"ha":965,"x_min":75,"x_max":892,"o":"m 482 -14 q 269 27 358 -14 q 131 153 181 68 q 76 367 81 239 q 75 485 75 426 q 76 604 75 543 q 132 815 81 731 q 273 943 183 900 q 482 986 363 986 q 692 943 601 986 q 833 815 782 900 q 889 604 885 731 q 892 485 892 543 q 889 367 892 426 q 835 153 885 239 q 695 27 785 68 q 482 -14 606 -14 m 482 146 q 629 199 572 146 q 690 374 686 253 q 693 487 693 435 q 690 599 693 539 q 660 730 688 679 q 588 803 633 781 q 482 826 542 826 q 378 803 424 826 q 305 730 332 781 q 275 599 278 679 q 274 487 274 539 q 275 374 274 435 q 336 199 279 253 q 482 146 393 146 m 457 1042 q 428 1046 439 1042 q 407 1060 418 1050 l 235 1201 q 228 1218 228 1208 q 254 1244 228 1244 l 403 1244 q 431 1240 421 1244 q 454 1219 442 1235 l 568 1082 q 575 1064 575 1075 q 553 1042 575 1042 l 457 1042 z "},"Ő":{"ha":965,"x_min":75,"x_max":892,"o":"m 482 -14 q 269 27 358 -14 q 131 153 181 68 q 76 367 81 239 q 75 485 75 426 q 76 604 75 543 q 132 815 81 731 q 273 943 183 900 q 482 986 363 986 q 692 943 601 986 q 833 815 782 900 q 889 604 885 731 q 892 485 892 543 q 889 367 892 426 q 835 153 885 239 q 695 27 785 68 q 482 -14 606 -14 m 482 146 q 629 199 572 146 q 690 374 686 253 q 693 487 693 435 q 690 599 693 539 q 660 730 688 679 q 588 803 633 781 q 482 826 542 826 q 378 803 424 826 q 305 730 332 781 q 275 599 278 679 q 274 487 274 539 q 275 374 274 435 q 336 199 279 253 q 482 146 393 146 m 572 1042 q 550 1064 550 1042 q 553 1075 550 1069 q 557 1085 556 1081 l 618 1218 q 669 1244 631 1244 l 790 1244 q 818 1218 818 1244 q 810 1200 818 1208 l 688 1061 q 643 1042 671 1042 l 572 1042 m 313 1042 q 290 1064 290 1042 q 293 1075 290 1069 q 297 1085 296 1081 l 357 1218 q 408 1244 369 1244 l 531 1244 q 558 1218 558 1244 q 550 1200 558 1208 l 426 1061 q 383 1042 410 1042 l 313 1042 z "},"Ō":{"ha":965,"x_min":75,"x_max":892,"o":"m 482 -14 q 269 27 358 -14 q 131 153 181 68 q 76 367 81 239 q 75 485 75 426 q 76 604 75 543 q 132 815 81 731 q 273 943 183 900 q 482 986 363 986 q 692 943 601 986 q 833 815 782 900 q 889 604 885 731 q 892 485 892 543 q 889 367 892 426 q 835 153 885 239 q 695 27 785 68 q 482 -14 606 -14 m 482 146 q 629 199 572 146 q 690 374 686 253 q 693 487 693 435 q 690 599 693 539 q 660 730 688 679 q 588 803 633 781 q 482 826 542 826 q 378 803 424 826 q 305 730 332 781 q 275 599 278 679 q 274 487 274 539 q 275 374 274 435 q 336 199 279 253 q 482 146 393 146 m 293 1042 q 271 1050 279 1042 q 263 1072 263 1058 l 263 1150 q 271 1172 263 1164 q 293 1181 279 1181 l 671 1181 q 693 1172 685 1181 q 701 1150 701 1164 l 701 1072 q 693 1050 701 1058 q 671 1042 685 1042 l 293 1042 z "},"Ø":{"ha":965,"x_min":75,"x_max":892,"o":"m 482 -14 q 269 27 358 -14 q 131 153 181 68 q 76 367 81 239 q 75 485 75 426 q 76 604 75 543 q 132 815 81 731 q 273 943 183 900 q 482 986 363 986 q 692 943 601 986 q 833 815 782 900 q 889 604 885 731 q 892 485 892 543 q 889 367 892 426 q 835 153 885 239 q 695 27 785 68 q 482 -14 606 -14 m 482 146 q 629 199 572 146 q 690 374 686 253 q 693 487 693 435 q 690 599 693 539 q 660 730 688 679 q 588 803 633 781 q 482 826 542 826 q 378 803 424 826 q 305 730 332 781 q 275 599 278 679 q 274 487 274 539 q 275 374 274 435 q 336 199 279 253 q 482 146 393 146 m 131 -90 q 106 -75 113 -90 q 108 -42 99 -60 l 763 1042 q 772 1055 765 1047 q 793 1063 779 1063 l 835 1063 q 859 1049 851 1063 q 856 1015 867 1035 l 200 -69 q 190 -83 197 -75 q 168 -90 183 -90 l 131 -90 z "},"Ǿ":{"ha":965,"x_min":75,"x_max":892,"o":"m 482 -14 q 269 27 358 -14 q 131 153 181 68 q 76 367 81 239 q 75 485 75 426 q 76 604 75 543 q 132 815 81 731 q 273 943 183 900 q 482 986 363 986 q 692 943 601 986 q 833 815 782 900 q 889 604 885 731 q 892 485 892 543 q 889 367 892 426 q 835 153 885 239 q 695 27 785 68 q 482 -14 606 -14 m 482 146 q 629 199 572 146 q 690 374 686 253 q 693 487 693 435 q 690 599 693 539 q 660 730 688 679 q 588 803 633 781 q 482 826 542 826 q 378 803 424 826 q 305 730 332 781 q 275 599 278 679 q 274 487 274 539 q 275 374 274 435 q 336 199 279 253 q 482 146 393 146 m 131 -90 q 106 -75 113 -90 q 108 -42 99 -60 l 763 1042 q 772 1055 765 1047 q 793 1063 779 1063 l 835 1063 q 859 1049 851 1063 q 856 1015 867 1035 l 200 -69 q 190 -83 197 -75 q 168 -90 183 -90 l 131 -90 m 419 1042 q 397 1064 397 1042 q 404 1082 397 1075 l 517 1219 q 540 1240 531 1235 q 568 1244 550 1244 l 717 1244 q 743 1218 743 1244 q 736 1201 743 1208 l 564 1060 q 542 1046 553 1050 q 515 1042 532 1042 l 419 1042 z "},"Õ":{"ha":965,"x_min":75,"x_max":892,"o":"m 482 -14 q 269 27 358 -14 q 131 153 181 68 q 76 367 81 239 q 75 485 75 426 q 76 604 75 543 q 132 815 81 731 q 273 943 183 900 q 482 986 363 986 q 692 943 601 986 q 833 815 782 900 q 889 604 885 731 q 892 485 892 543 q 889 367 892 426 q 835 153 885 239 q 695 27 785 68 q 482 -14 606 -14 m 482 146 q 629 199 572 146 q 690 374 686 253 q 693 487 693 435 q 690 599 693 539 q 660 730 688 679 q 588 803 633 781 q 482 826 542 826 q 378 803 424 826 q 305 730 332 781 q 275 599 278 679 q 274 487 274 539 q 275 374 274 435 q 336 199 279 253 q 482 146 393 146 m 560 1035 q 499 1047 524 1035 q 456 1071 475 1058 q 414 1083 436 1083 q 388 1073 396 1083 q 374 1052 381 1063 q 351 1042 367 1042 l 288 1042 q 271 1049 278 1042 q 264 1065 264 1056 q 272 1113 264 1086 q 297 1163 279 1139 q 340 1203 314 1188 q 401 1218 367 1218 q 463 1206 439 1218 q 507 1182 488 1194 q 549 1169 526 1169 q 574 1181 567 1169 q 589 1202 582 1192 q 611 1213 596 1213 l 675 1213 q 692 1205 686 1213 q 699 1188 699 1197 q 690 1140 699 1167 q 665 1090 682 1114 q 622 1051 647 1067 q 560 1035 596 1035 z "},"Œ":{"ha":1307,"x_min":76,"x_max":1242,"o":"m 489 0 q 260 41 350 0 q 126 166 169 82 q 78 379 82 250 q 76 486 76 439 q 78 594 76 533 q 127 801 82 717 q 264 929 172 886 q 496 972 356 972 l 1196 972 q 1221 963 1211 972 q 1231 938 1231 953 l 1231 846 q 1221 822 1231 832 q 1196 813 1211 813 l 783 813 l 783 567 l 1165 567 q 1190 558 1181 567 q 1200 533 1200 549 l 1200 447 q 1190 423 1200 432 q 1165 414 1181 414 l 783 414 l 783 160 l 1207 160 q 1232 150 1222 160 q 1242 125 1242 140 l 1242 33 q 1232 10 1242 19 q 1207 0 1222 0 l 489 0 m 496 160 l 597 160 l 597 813 l 503 813 q 329 758 383 813 q 272 590 275 704 q 272 519 272 550 q 272 456 271 488 q 272 383 272 425 q 298 253 275 303 q 369 182 321 204 q 496 160 418 160 z "},"P":{"ha":915,"x_min":108,"x_max":872,"o":"m 142 0 q 118 10 128 0 q 108 33 108 19 l 108 938 q 118 963 108 953 q 142 972 128 972 l 514 972 q 703 938 622 972 q 828 835 783 904 q 872 664 872 767 q 828 492 872 560 q 703 392 783 425 q 514 358 622 358 l 307 358 l 307 33 q 298 10 307 19 q 274 0 289 0 l 142 0 m 304 513 l 507 513 q 631 551 588 513 q 674 664 674 589 q 633 776 674 733 q 507 818 593 818 l 304 818 l 304 513 z "},"Þ":{"ha":919,"x_min":108,"x_max":872,"o":"m 142 0 q 118 10 128 0 q 108 33 108 19 l 108 939 q 118 963 108 953 q 142 972 128 972 l 274 972 q 298 963 289 972 q 307 939 307 953 l 307 799 l 511 799 q 702 764 621 799 q 828 661 783 729 q 872 489 872 593 q 828 319 872 386 q 702 218 783 251 q 511 185 621 185 l 307 185 l 307 33 q 298 10 307 19 q 274 0 289 0 l 142 0 m 304 339 l 507 339 q 631 377 588 339 q 674 490 674 415 q 633 602 674 560 q 507 644 593 644 l 304 644 l 304 339 z "},"Q":{"ha":965,"x_min":74,"x_max":890,"o":"m 732 -90 q 701 -78 713 -90 q 682 -58 689 -67 l 631 11 q 482 -14 565 -14 q 269 27 358 -14 q 130 153 179 68 q 75 367 81 239 q 74 485 74 426 q 75 604 74 543 q 131 815 81 731 q 272 943 182 900 q 482 986 363 986 q 692 943 601 986 q 833 815 782 900 q 888 604 885 731 q 890 485 890 543 q 888 367 890 426 q 788 90 881 185 l 885 -47 q 888 -52 886 -49 q 889 -61 889 -56 q 881 -82 890 -74 q 861 -90 872 -90 l 732 -90 m 482 146 q 628 199 571 146 q 689 374 685 253 q 692 487 692 435 q 689 599 692 539 q 660 730 688 679 q 587 803 632 781 q 482 826 542 826 q 378 803 424 826 q 305 730 332 781 q 274 599 278 679 q 272 487 272 539 q 274 374 272 435 q 336 199 279 253 q 482 146 393 146 z "},"R":{"ha":935,"x_min":108,"x_max":885,"o":"m 142 0 q 118 10 128 0 q 108 33 108 19 l 108 938 q 118 963 108 953 q 142 972 128 972 l 501 972 q 767 894 669 972 q 864 668 864 817 q 813 497 864 565 q 678 399 763 429 l 881 44 q 885 29 885 36 q 876 8 885 17 q 856 0 867 0 l 729 0 q 693 13 706 0 q 674 38 681 25 l 494 367 l 301 367 l 301 33 q 292 10 301 19 q 268 0 283 0 l 142 0 m 301 524 l 497 524 q 624 562 582 524 q 665 669 665 600 q 624 778 665 739 q 497 818 583 818 l 301 818 l 301 524 z "},"Ŕ":{"ha":935,"x_min":108,"x_max":885,"o":"m 142 0 q 118 10 128 0 q 108 33 108 19 l 108 938 q 118 963 108 953 q 142 972 128 972 l 501 972 q 767 894 669 972 q 864 668 864 817 q 813 497 864 565 q 678 399 763 429 l 881 44 q 885 29 885 36 q 876 8 885 17 q 856 0 867 0 l 729 0 q 693 13 706 0 q 674 38 681 25 l 494 367 l 301 367 l 301 33 q 292 10 301 19 q 268 0 283 0 l 142 0 m 301 524 l 497 524 q 624 562 582 524 q 665 669 665 600 q 624 778 665 739 q 497 818 583 818 l 301 818 l 301 524 m 376 1042 q 354 1064 354 1042 q 361 1082 354 1075 l 474 1219 q 497 1240 488 1235 q 525 1244 507 1244 l 674 1244 q 700 1218 700 1244 q 693 1201 700 1208 l 521 1060 q 499 1046 510 1050 q 472 1042 489 1042 l 376 1042 z "},"Ř":{"ha":935,"x_min":108,"x_max":885,"o":"m 142 0 q 118 10 128 0 q 108 33 108 19 l 108 938 q 118 963 108 953 q 142 972 128 972 l 501 972 q 767 894 669 972 q 864 668 864 817 q 813 497 864 565 q 678 399 763 429 l 881 44 q 885 29 885 36 q 876 8 885 17 q 856 0 867 0 l 729 0 q 693 13 706 0 q 674 38 681 25 l 494 367 l 301 367 l 301 33 q 292 10 301 19 q 268 0 283 0 l 142 0 m 301 524 l 497 524 q 624 562 582 524 q 665 669 665 600 q 624 778 665 739 q 497 818 583 818 l 301 818 l 301 524 m 399 1042 q 376 1046 386 1042 q 351 1064 365 1050 l 215 1203 q 203 1226 203 1215 q 224 1244 203 1244 l 278 1244 q 301 1242 289 1244 q 321 1235 313 1240 l 439 1163 l 557 1235 q 578 1242 567 1240 q 600 1244 589 1244 l 654 1244 q 675 1226 675 1244 q 663 1203 675 1215 l 526 1064 q 503 1046 513 1050 q 479 1042 493 1042 l 399 1042 z "},"Ŗ":{"ha":935,"x_min":108,"x_max":885,"o":"m 142 0 q 118 10 128 0 q 108 33 108 19 l 108 938 q 118 963 108 953 q 142 972 128 972 l 501 972 q 767 894 669 972 q 864 668 864 817 q 813 497 864 565 q 678 399 763 429 l 881 44 q 885 29 885 36 q 876 8 885 17 q 856 0 867 0 l 729 0 q 693 13 706 0 q 674 38 681 25 l 494 367 l 301 367 l 301 33 q 292 10 301 19 q 268 0 283 0 l 142 0 m 301 524 l 497 524 q 624 562 582 524 q 665 669 665 600 q 624 778 665 739 q 497 818 583 818 l 301 818 l 301 524 m 371 -314 q 352 -306 358 -314 q 346 -285 346 -297 l 372 -114 q 385 -83 375 -96 q 417 -69 396 -69 l 539 -69 q 557 -77 550 -69 q 564 -94 564 -85 q 561 -114 564 -104 l 496 -279 q 481 -303 490 -293 q 451 -314 471 -314 l 371 -314 z "},"S":{"ha":892,"x_min":50,"x_max":840,"o":"m 446 -14 q 230 24 317 -14 q 98 124 143 63 q 50 254 53 186 q 58 275 50 267 q 79 283 67 283 l 203 283 q 230 276 221 283 q 246 257 239 268 q 278 205 254 231 q 342 163 301 179 q 446 146 383 146 q 595 179 546 146 q 644 269 644 213 q 618 334 644 310 q 537 378 592 358 q 392 421 482 399 q 217 481 288 446 q 112 571 147 517 q 76 708 76 625 q 120 851 76 789 q 245 950 164 914 q 439 986 326 986 q 599 962 529 986 q 714 898 668 938 q 784 813 760 858 q 810 725 808 768 q 802 705 810 714 q 781 696 794 696 l 651 696 q 629 701 640 696 q 611 722 618 707 q 557 796 603 765 q 439 826 511 826 q 318 799 364 826 q 272 713 272 771 q 295 648 272 674 q 369 603 318 622 q 503 561 419 583 q 696 500 621 535 q 806 412 771 465 q 840 276 840 358 q 791 120 840 185 q 653 21 742 56 q 446 -14 564 -14 z "},"Ś":{"ha":892,"x_min":50,"x_max":840,"o":"m 446 -14 q 230 24 317 -14 q 98 124 143 63 q 50 254 53 186 q 58 275 50 267 q 79 283 67 283 l 203 283 q 230 276 221 283 q 246 257 239 268 q 278 205 254 231 q 342 163 301 179 q 446 146 383 146 q 595 179 546 146 q 644 269 644 213 q 618 334 644 310 q 537 378 592 358 q 392 421 482 399 q 217 481 288 446 q 112 571 147 517 q 76 708 76 625 q 120 851 76 789 q 245 950 164 914 q 439 986 326 986 q 599 962 529 986 q 714 898 668 938 q 784 813 760 858 q 810 725 808 768 q 802 705 810 714 q 781 696 794 696 l 651 696 q 629 701 640 696 q 611 722 618 707 q 557 796 603 765 q 439 826 511 826 q 318 799 364 826 q 272 713 272 771 q 295 648 272 674 q 369 603 318 622 q 503 561 419 583 q 696 500 621 535 q 806 412 771 465 q 840 276 840 358 q 791 120 840 185 q 653 21 742 56 q 446 -14 564 -14 m 385 1042 q 363 1064 363 1042 q 369 1082 363 1075 l 482 1219 q 506 1240 496 1235 q 533 1244 515 1244 l 682 1244 q 708 1218 708 1244 q 701 1201 708 1208 l 529 1060 q 508 1046 518 1050 q 481 1042 497 1042 l 385 1042 z "},"Š":{"ha":892,"x_min":50,"x_max":840,"o":"m 446 -14 q 230 24 317 -14 q 98 124 143 63 q 50 254 53 186 q 58 275 50 267 q 79 283 67 283 l 203 283 q 230 276 221 283 q 246 257 239 268 q 278 205 254 231 q 342 163 301 179 q 446 146 383 146 q 595 179 546 146 q 644 269 644 213 q 618 334 644 310 q 537 378 592 358 q 392 421 482 399 q 217 481 288 446 q 112 571 147 517 q 76 708 76 625 q 120 851 76 789 q 245 950 164 914 q 439 986 326 986 q 599 962 529 986 q 714 898 668 938 q 784 813 760 858 q 810 725 808 768 q 802 705 810 714 q 781 696 794 696 l 651 696 q 629 701 640 696 q 611 722 618 707 q 557 796 603 765 q 439 826 511 826 q 318 799 364 826 q 272 713 272 771 q 295 648 272 674 q 369 603 318 622 q 503 561 419 583 q 696 500 621 535 q 806 412 771 465 q 840 276 840 358 q 791 120 840 185 q 653 21 742 56 q 446 -14 564 -14 m 407 1042 q 384 1046 394 1042 q 360 1064 374 1050 l 224 1203 q 211 1226 211 1215 q 232 1244 211 1244 l 286 1244 q 309 1242 297 1244 q 329 1235 321 1240 l 447 1163 l 565 1235 q 586 1242 575 1240 q 608 1244 597 1244 l 663 1244 q 683 1226 683 1244 q 671 1203 683 1215 l 535 1064 q 511 1046 521 1050 q 488 1042 501 1042 l 407 1042 z "},"Ş":{"ha":892,"x_min":50,"x_max":840,"o":"m 443 -306 q 375 -292 406 -304 q 332 -262 344 -279 q 332 -235 319 -246 l 356 -214 q 377 -208 368 -203 q 401 -222 386 -212 q 443 -231 415 -231 q 480 -217 465 -231 q 494 -183 494 -204 q 480 -151 494 -164 q 443 -139 465 -139 q 410 -144 425 -139 q 385 -151 396 -149 q 363 -142 374 -153 l 338 -117 q 332 -97 329 -107 q 340 -74 335 -86 l 368 -8 q 194 42 265 3 q 88 137 124 81 q 50 254 51 193 q 58 275 50 267 q 79 283 67 283 l 203 283 q 230 276 221 283 q 246 257 239 268 q 278 205 254 231 q 342 163 301 179 q 446 146 383 146 q 595 179 546 146 q 644 269 644 213 q 618 334 644 310 q 537 378 592 358 q 392 421 482 399 q 217 481 288 446 q 112 571 147 517 q 76 708 76 625 q 120 851 76 789 q 245 950 164 914 q 439 986 326 986 q 599 962 529 986 q 714 898 668 938 q 784 813 760 858 q 810 725 808 768 q 802 705 810 714 q 781 696 794 696 l 651 696 q 629 701 640 696 q 611 722 618 707 q 557 796 603 765 q 439 826 511 826 q 318 799 364 826 q 272 713 272 771 q 295 648 272 674 q 369 603 318 622 q 503 561 419 583 q 696 500 621 535 q 806 412 771 465 q 840 276 840 358 q 791 121 840 186 q 654 21 742 56 q 449 -14 567 -14 l 419 -74 q 442 -67 428 -69 q 468 -64 457 -64 q 547 -97 517 -64 q 576 -182 576 -131 q 542 -271 576 -235 q 443 -306 507 -307 z "},"Ŝ":{"ha":892,"x_min":50,"x_max":840,"o":"m 446 -14 q 230 24 317 -14 q 98 124 143 63 q 50 254 53 186 q 58 275 50 267 q 79 283 67 283 l 203 283 q 230 276 221 283 q 246 257 239 268 q 278 205 254 231 q 342 163 301 179 q 446 146 383 146 q 595 179 546 146 q 644 269 644 213 q 618 334 644 310 q 537 378 592 358 q 392 421 482 399 q 217 481 288 446 q 112 571 147 517 q 76 708 76 625 q 120 851 76 789 q 245 950 164 914 q 439 986 326 986 q 599 962 529 986 q 714 898 668 938 q 784 813 760 858 q 810 725 808 768 q 802 705 810 714 q 781 696 794 696 l 651 696 q 629 701 640 696 q 611 722 618 707 q 557 796 603 765 q 439 826 511 826 q 318 799 364 826 q 272 713 272 771 q 295 648 272 674 q 369 603 318 622 q 503 561 419 583 q 696 500 621 535 q 806 412 771 465 q 840 276 840 358 q 791 120 840 185 q 653 21 742 56 q 446 -14 564 -14 m 232 1042 q 211 1060 211 1042 q 224 1083 211 1071 l 360 1222 q 384 1241 374 1238 q 407 1244 394 1244 l 488 1244 q 511 1241 501 1244 q 535 1222 521 1238 l 671 1083 q 683 1060 683 1071 q 663 1042 683 1042 l 608 1042 q 586 1044 597 1042 q 565 1051 575 1046 l 447 1125 l 329 1051 q 309 1044 321 1046 q 286 1042 297 1042 l 232 1042 z "},"Ș":{"ha":892,"x_min":50,"x_max":840,"o":"m 446 -14 q 230 24 317 -14 q 98 124 143 63 q 50 254 53 186 q 58 275 50 267 q 79 283 67 283 l 203 283 q 230 276 221 283 q 246 257 239 268 q 278 205 254 231 q 342 163 301 179 q 446 146 383 146 q 595 179 546 146 q 644 269 644 213 q 618 334 644 310 q 537 378 592 358 q 392 421 482 399 q 217 481 288 446 q 112 571 147 517 q 76 708 76 625 q 120 851 76 789 q 245 950 164 914 q 439 986 326 986 q 599 962 529 986 q 714 898 668 938 q 784 813 760 858 q 810 725 808 768 q 802 705 810 714 q 781 696 794 696 l 651 696 q 629 701 640 696 q 611 722 618 707 q 557 796 603 765 q 439 826 511 826 q 318 799 364 826 q 272 713 272 771 q 295 648 272 674 q 369 603 318 622 q 503 561 419 583 q 696 500 621 535 q 806 412 771 465 q 840 276 840 358 q 791 120 840 185 q 653 21 742 56 q 446 -14 564 -14 m 344 -314 q 326 -306 332 -314 q 319 -285 319 -297 l 346 -114 q 359 -83 349 -96 q 390 -69 369 -69 l 513 -69 q 531 -77 524 -69 q 538 -94 538 -85 q 535 -114 538 -104 l 469 -279 q 454 -303 464 -293 q 425 -314 444 -314 l 344 -314 z "},"T":{"ha":840,"x_min":32,"x_max":808,"o":"m 356 0 q 332 10 342 0 q 322 33 322 19 l 322 801 l 65 801 q 42 811 51 801 q 32 835 32 821 l 32 938 q 42 963 32 953 q 65 972 51 972 l 774 972 q 799 963 789 972 q 808 938 808 953 l 808 835 q 799 811 808 821 q 774 801 789 801 l 518 801 l 518 33 q 508 10 518 19 q 483 0 499 0 l 356 0 z "},"Ŧ":{"ha":853,"x_min":39,"x_max":814,"o":"m 363 0 q 338 10 347 0 q 329 33 329 19 l 329 435 l 181 435 q 157 444 167 435 q 147 468 147 453 l 147 519 q 157 544 147 535 q 181 554 167 554 l 329 554 l 329 801 l 72 801 q 48 811 57 801 q 39 835 39 821 l 39 938 q 48 963 39 953 q 72 972 57 972 l 781 972 q 805 963 796 972 q 814 938 814 953 l 814 835 q 805 811 814 821 q 781 801 796 801 l 524 801 l 524 554 l 671 554 q 696 544 686 554 q 706 519 706 535 l 706 468 q 696 444 706 453 q 671 435 686 435 l 524 435 l 524 33 q 515 10 524 19 q 490 0 506 0 l 363 0 z "},"Ť":{"ha":840,"x_min":32,"x_max":808,"o":"m 356 0 q 332 10 342 0 q 322 33 322 19 l 322 801 l 65 801 q 42 811 51 801 q 32 835 32 821 l 32 938 q 42 963 32 953 q 65 972 51 972 l 774 972 q 799 963 789 972 q 808 938 808 953 l 808 835 q 799 811 808 821 q 774 801 789 801 l 518 801 l 518 33 q 508 10 518 19 q 483 0 499 0 l 356 0 m 381 1042 q 358 1046 368 1042 q 333 1064 347 1050 l 197 1203 q 185 1226 185 1215 q 206 1244 185 1244 l 260 1244 q 283 1242 271 1244 q 303 1235 294 1240 l 421 1163 l 539 1235 q 560 1242 549 1240 q 582 1244 571 1244 l 636 1244 q 657 1226 657 1244 q 644 1203 657 1215 l 508 1064 q 485 1046 494 1050 q 461 1042 475 1042 l 381 1042 z "},"Ț":{"ha":840,"x_min":32,"x_max":808,"o":"m 356 0 q 332 10 342 0 q 322 33 322 19 l 322 801 l 65 801 q 42 811 51 801 q 32 835 32 821 l 32 938 q 42 963 32 953 q 65 972 51 972 l 774 972 q 799 963 789 972 q 808 938 808 953 l 808 835 q 799 811 808 821 q 774 801 789 801 l 518 801 l 518 33 q 508 10 518 19 q 483 0 499 0 l 356 0 m 315 -314 q 297 -306 303 -314 q 290 -285 290 -297 l 317 -114 q 330 -83 319 -96 q 361 -69 340 -69 l 483 -69 q 501 -77 494 -69 q 508 -94 508 -85 q 506 -114 508 -104 l 440 -279 q 425 -303 435 -293 q 396 -314 415 -314 l 315 -314 z "},"U":{"ha":990,"x_min":100,"x_max":890,"o":"m 496 -14 q 286 27 375 -14 q 149 153 197 68 q 100 372 100 239 l 100 938 q 110 963 100 953 q 133 972 119 972 l 260 972 q 284 963 275 972 q 293 938 293 953 l 293 372 q 347 203 293 258 q 496 149 401 149 q 644 203 590 149 q 697 372 697 258 l 697 938 q 707 963 697 953 q 732 972 717 972 l 857 972 q 881 963 872 972 q 890 938 890 953 l 890 372 q 842 153 890 239 q 706 27 794 68 q 496 -14 618 -14 z "},"Ú":{"ha":990,"x_min":100,"x_max":890,"o":"m 496 -14 q 286 27 375 -14 q 149 153 197 68 q 100 372 100 239 l 100 938 q 110 963 100 953 q 133 972 119 972 l 260 972 q 284 963 275 972 q 293 938 293 953 l 293 372 q 347 203 293 258 q 496 149 401 149 q 644 203 590 149 q 697 372 697 258 l 697 938 q 707 963 697 953 q 732 972 717 972 l 857 972 q 881 963 872 972 q 890 938 890 953 l 890 372 q 842 153 890 239 q 706 27 794 68 q 496 -14 618 -14 m 433 1042 q 411 1064 411 1042 q 418 1082 411 1075 l 531 1219 q 554 1240 544 1235 q 582 1244 564 1244 l 731 1244 q 757 1218 757 1244 q 750 1201 757 1208 l 578 1060 q 556 1046 567 1050 q 529 1042 546 1042 l 433 1042 z "},"Ŭ":{"ha":990,"x_min":100,"x_max":890,"o":"m 496 -14 q 286 27 375 -14 q 149 153 197 68 q 100 372 100 239 l 100 938 q 110 963 100 953 q 133 972 119 972 l 260 972 q 284 963 275 972 q 293 938 293 953 l 293 372 q 347 203 293 258 q 496 149 401 149 q 644 203 590 149 q 697 372 697 258 l 697 938 q 707 963 697 953 q 732 972 717 972 l 857 972 q 881 963 872 972 q 890 938 890 953 l 890 372 q 842 153 890 239 q 706 27 794 68 q 496 -14 618 -14 m 496 1031 q 382 1056 425 1031 q 320 1124 339 1082 q 301 1214 301 1165 q 308 1233 301 1225 q 328 1240 315 1240 l 396 1240 q 415 1233 408 1240 q 422 1214 422 1225 q 437 1156 422 1182 q 496 1129 451 1129 q 555 1156 540 1129 q 569 1214 569 1182 q 576 1233 569 1225 q 596 1240 583 1240 l 664 1240 q 683 1233 676 1240 q 690 1214 690 1225 q 672 1124 690 1165 q 610 1056 653 1082 q 496 1031 568 1031 z "},"Û":{"ha":990,"x_min":100,"x_max":890,"o":"m 496 -14 q 286 27 375 -14 q 149 153 197 68 q 100 372 100 239 l 100 938 q 110 963 100 953 q 133 972 119 972 l 260 972 q 284 963 275 972 q 293 938 293 953 l 293 372 q 347 203 293 258 q 496 149 401 149 q 644 203 590 149 q 697 372 697 258 l 697 938 q 707 963 697 953 q 732 972 717 972 l 857 972 q 881 963 872 972 q 890 938 890 953 l 890 372 q 842 153 890 239 q 706 27 794 68 q 496 -14 618 -14 m 281 1042 q 260 1060 260 1042 q 272 1083 260 1071 l 408 1222 q 433 1241 422 1238 q 456 1244 443 1244 l 536 1244 q 560 1241 550 1244 q 583 1222 569 1238 l 719 1083 q 732 1060 732 1071 q 711 1042 732 1042 l 657 1042 q 635 1044 646 1042 q 614 1051 624 1046 l 496 1125 l 378 1051 q 358 1044 369 1046 q 335 1042 346 1042 l 281 1042 z "},"Ü":{"ha":990,"x_min":100,"x_max":890,"o":"m 496 -14 q 286 27 375 -14 q 149 153 197 68 q 100 372 100 239 l 100 938 q 110 963 100 953 q 133 972 119 972 l 260 972 q 284 963 275 972 q 293 938 293 953 l 293 372 q 347 203 293 258 q 496 149 401 149 q 644 203 590 149 q 697 372 697 258 l 697 938 q 707 963 697 953 q 732 972 717 972 l 857 972 q 881 963 872 972 q 890 938 890 953 l 890 372 q 842 153 890 239 q 706 27 794 68 q 496 -14 618 -14 m 596 1042 q 574 1050 582 1042 q 565 1072 565 1058 l 565 1174 q 574 1197 565 1188 q 596 1206 582 1206 l 697 1206 q 720 1197 711 1206 q 729 1174 729 1188 l 729 1072 q 720 1050 729 1058 q 697 1042 711 1042 l 596 1042 m 293 1042 q 271 1050 279 1042 q 263 1072 263 1058 l 263 1174 q 271 1197 263 1188 q 293 1206 279 1206 l 394 1206 q 417 1197 408 1206 q 426 1174 426 1188 l 426 1072 q 417 1050 426 1058 q 394 1042 408 1042 l 293 1042 z "},"Ù":{"ha":990,"x_min":100,"x_max":890,"o":"m 496 -14 q 286 27 375 -14 q 149 153 197 68 q 100 372 100 239 l 100 938 q 110 963 100 953 q 133 972 119 972 l 260 972 q 284 963 275 972 q 293 938 293 953 l 293 372 q 347 203 293 258 q 496 149 401 149 q 644 203 590 149 q 697 372 697 258 l 697 938 q 707 963 697 953 q 732 972 717 972 l 857 972 q 881 963 872 972 q 890 938 890 953 l 890 372 q 842 153 890 239 q 706 27 794 68 q 496 -14 618 -14 m 471 1042 q 442 1046 453 1042 q 421 1060 432 1050 l 249 1201 q 242 1218 242 1208 q 268 1244 242 1244 l 417 1244 q 445 1240 435 1244 q 468 1219 456 1235 l 582 1082 q 589 1064 589 1075 q 567 1042 589 1042 l 471 1042 z "},"Ű":{"ha":990,"x_min":100,"x_max":890,"o":"m 496 -14 q 286 27 375 -14 q 149 153 197 68 q 100 372 100 239 l 100 938 q 110 963 100 953 q 133 972 119 972 l 260 972 q 284 963 275 972 q 293 938 293 953 l 293 372 q 347 203 293 258 q 496 149 401 149 q 644 203 590 149 q 697 372 697 258 l 697 938 q 707 963 697 953 q 732 972 717 972 l 857 972 q 881 963 872 972 q 890 938 890 953 l 890 372 q 842 153 890 239 q 706 27 794 68 q 496 -14 618 -14 m 586 1042 q 564 1064 564 1042 q 567 1075 564 1069 q 571 1085 569 1081 l 632 1218 q 683 1244 644 1244 l 804 1244 q 832 1218 832 1244 q 824 1200 832 1208 l 701 1061 q 657 1042 685 1042 l 586 1042 m 326 1042 q 304 1064 304 1042 q 307 1075 304 1069 q 311 1085 310 1081 l 371 1218 q 422 1244 383 1244 l 544 1244 q 572 1218 572 1244 q 564 1200 572 1208 l 440 1061 q 397 1042 424 1042 l 326 1042 z "},"Ū":{"ha":990,"x_min":100,"x_max":890,"o":"m 496 -14 q 286 27 375 -14 q 149 153 197 68 q 100 372 100 239 l 100 938 q 110 963 100 953 q 133 972 119 972 l 260 972 q 284 963 275 972 q 293 938 293 953 l 293 372 q 347 203 293 258 q 496 149 401 149 q 644 203 590 149 q 697 372 697 258 l 697 938 q 707 963 697 953 q 732 972 717 972 l 857 972 q 881 963 872 972 q 890 938 890 953 l 890 372 q 842 153 890 239 q 706 27 794 68 q 496 -14 618 -14 m 307 1042 q 285 1050 293 1042 q 276 1072 276 1058 l 276 1150 q 285 1172 276 1164 q 307 1181 293 1181 l 685 1181 q 707 1172 699 1181 q 715 1150 715 1164 l 715 1072 q 707 1050 715 1058 q 685 1042 699 1042 l 307 1042 z "},"Ų":{"ha":990,"x_min":100,"x_max":890,"o":"m 596 -306 q 482 -278 528 -306 q 413 -204 436 -251 q 389 -96 389 -157 q 393 -45 389 -67 q 404 -7 397 -24 q 181 106 263 14 q 100 372 100 199 l 100 938 q 110 963 100 953 q 133 972 119 972 l 260 972 q 284 963 275 972 q 293 938 293 953 l 293 372 q 347 203 293 258 q 496 149 401 149 q 644 203 590 149 q 697 372 697 258 l 697 938 q 707 963 697 953 q 732 972 717 972 l 857 972 q 881 963 872 972 q 890 938 890 953 l 890 372 q 854 180 890 258 q 751 56 818 101 q 593 -7 685 10 q 531 -35 553 -15 q 510 -96 510 -56 q 533 -163 510 -136 q 601 -190 557 -190 l 618 -190 q 643 -199 633 -190 q 653 -224 653 -208 l 653 -272 q 643 -296 653 -286 q 618 -306 633 -306 l 596 -306 z "},"Ů":{"ha":990,"x_min":100,"x_max":890,"o":"m 496 -14 q 286 27 375 -14 q 149 153 197 68 q 100 372 100 239 l 100 938 q 110 963 100 953 q 133 972 119 972 l 260 972 q 284 963 275 972 q 293 938 293 953 l 293 372 q 347 203 293 258 q 496 149 401 149 q 644 203 590 149 q 697 372 697 258 l 697 938 q 707 963 697 953 q 732 972 717 972 l 857 972 q 881 963 872 972 q 890 938 890 953 l 890 372 q 842 153 890 239 q 706 27 794 68 q 496 -14 618 -14 m 496 1028 q 410 1060 446 1028 q 374 1143 374 1093 q 410 1226 374 1193 q 496 1258 446 1258 q 582 1226 546 1258 q 618 1143 618 1193 q 582 1060 618 1093 q 496 1028 546 1028 m 496 1101 q 526 1113 514 1101 q 538 1143 538 1125 q 526 1173 538 1161 q 496 1185 514 1185 q 466 1173 478 1185 q 454 1143 454 1161 q 466 1113 454 1125 q 496 1101 478 1101 z "},"Ũ":{"ha":990,"x_min":100,"x_max":890,"o":"m 496 -14 q 286 27 375 -14 q 149 153 197 68 q 100 372 100 239 l 100 938 q 110 963 100 953 q 133 972 119 972 l 260 972 q 284 963 275 972 q 293 938 293 953 l 293 372 q 347 203 293 258 q 496 149 401 149 q 644 203 590 149 q 697 372 697 258 l 697 938 q 707 963 697 953 q 732 972 717 972 l 857 972 q 881 963 872 972 q 890 938 890 953 l 890 372 q 842 153 890 239 q 706 27 794 68 q 496 -14 618 -14 m 574 1035 q 513 1047 538 1035 q 469 1071 489 1058 q 428 1083 450 1083 q 402 1073 410 1083 q 388 1052 394 1063 q 365 1042 381 1042 l 301 1042 q 285 1049 292 1042 q 278 1065 278 1056 q 285 1113 278 1086 q 310 1163 293 1139 q 354 1203 328 1188 q 415 1218 381 1218 q 477 1206 453 1218 q 521 1182 501 1194 q 563 1169 540 1169 q 588 1181 581 1169 q 603 1202 596 1192 q 625 1213 610 1213 l 689 1213 q 706 1205 700 1213 q 713 1188 713 1197 q 704 1140 713 1167 q 678 1090 696 1114 q 635 1051 661 1067 q 574 1035 610 1035 z "},"V":{"ha":936,"x_min":39,"x_max":897,"o":"m 392 0 q 357 11 369 0 q 339 39 344 22 l 42 931 q 39 943 39 938 q 47 964 39 956 q 68 972 56 972 l 190 972 q 220 962 210 972 q 233 942 231 951 l 468 226 l 703 942 q 716 962 706 951 q 746 972 726 972 l 868 972 q 888 964 879 972 q 897 943 897 956 q 894 931 897 938 l 597 39 q 579 11 592 22 q 544 0 567 0 l 392 0 z "},"W":{"ha":1133,"x_min":53,"x_max":1079,"o":"m 268 0 q 235 12 247 0 q 219 42 224 24 l 54 932 q 53 939 54 936 q 53 943 53 942 q 62 964 53 956 q 82 972 71 972 l 204 972 q 243 944 239 972 l 358 315 l 483 722 q 498 745 488 733 q 529 757 508 757 l 604 757 q 636 745 626 757 q 649 722 646 733 l 775 317 l 890 944 q 929 972 894 972 l 1051 972 q 1071 964 1063 972 q 1079 943 1079 956 q 1079 939 1079 942 q 1078 932 1079 936 l 913 42 q 897 12 910 24 q 864 0 885 0 l 771 0 q 738 11 750 0 q 722 35 726 22 l 567 499 l 411 35 q 394 11 406 22 q 361 0 383 0 l 268 0 z "},"Ẃ":{"ha":1133,"x_min":53,"x_max":1079,"o":"m 268 0 q 235 12 247 0 q 219 42 224 24 l 54 932 q 53 939 54 936 q 53 943 53 942 q 62 964 53 956 q 82 972 71 972 l 204 972 q 243 944 239 972 l 358 315 l 483 722 q 498 745 488 733 q 529 757 508 757 l 604 757 q 636 745 626 757 q 649 722 646 733 l 775 317 l 890 944 q 929 972 894 972 l 1051 972 q 1071 964 1063 972 q 1079 943 1079 956 q 1079 939 1079 942 q 1078 932 1079 936 l 913 42 q 897 12 910 24 q 864 0 885 0 l 771 0 q 738 11 750 0 q 722 35 726 22 l 567 499 l 411 35 q 394 11 406 22 q 361 0 383 0 l 268 0 m 504 1042 q 482 1064 482 1042 q 489 1082 482 1075 l 601 1219 q 625 1240 615 1235 q 653 1244 635 1244 l 801 1244 q 828 1218 828 1244 q 821 1201 828 1208 l 649 1060 q 627 1046 638 1050 q 600 1042 617 1042 l 504 1042 z "},"Ŵ":{"ha":1133,"x_min":53,"x_max":1079,"o":"m 268 0 q 235 12 247 0 q 219 42 224 24 l 54 932 q 53 939 54 936 q 53 943 53 942 q 62 964 53 956 q 82 972 71 972 l 204 972 q 243 944 239 972 l 358 315 l 483 722 q 498 745 488 733 q 529 757 508 757 l 604 757 q 636 745 626 757 q 649 722 646 733 l 775 317 l 890 944 q 929 972 894 972 l 1051 972 q 1071 964 1063 972 q 1079 943 1079 956 q 1079 939 1079 942 q 1078 932 1079 936 l 913 42 q 897 12 910 24 q 864 0 885 0 l 771 0 q 738 11 750 0 q 722 35 726 22 l 567 499 l 411 35 q 394 11 406 22 q 361 0 383 0 l 268 0 m 351 1042 q 331 1060 331 1042 q 343 1083 331 1071 l 479 1222 q 503 1241 493 1238 q 526 1244 514 1244 l 607 1244 q 631 1241 621 1244 q 654 1222 640 1238 l 790 1083 q 803 1060 803 1071 q 782 1042 803 1042 l 728 1042 q 706 1044 717 1042 q 685 1051 694 1046 l 567 1125 l 449 1051 q 428 1044 440 1046 q 406 1042 417 1042 l 351 1042 z "},"Ẅ":{"ha":1133,"x_min":53,"x_max":1079,"o":"m 268 0 q 235 12 247 0 q 219 42 224 24 l 54 932 q 53 939 54 936 q 53 943 53 942 q 62 964 53 956 q 82 972 71 972 l 204 972 q 243 944 239 972 l 358 315 l 483 722 q 498 745 488 733 q 529 757 508 757 l 604 757 q 636 745 626 757 q 649 722 646 733 l 775 317 l 890 944 q 929 972 894 972 l 1051 972 q 1071 964 1063 972 q 1079 943 1079 956 q 1079 939 1079 942 q 1078 932 1079 936 l 913 42 q 897 12 910 24 q 864 0 885 0 l 771 0 q 738 11 750 0 q 722 35 726 22 l 567 499 l 411 35 q 394 11 406 22 q 361 0 383 0 l 268 0 m 667 1042 q 644 1050 653 1042 q 636 1072 636 1058 l 636 1174 q 644 1197 636 1188 q 667 1206 653 1206 l 768 1206 q 791 1197 782 1206 q 800 1174 800 1188 l 800 1072 q 791 1050 800 1058 q 768 1042 782 1042 l 667 1042 m 364 1042 q 342 1050 350 1042 q 333 1072 333 1058 l 333 1174 q 342 1197 333 1188 q 364 1206 350 1206 l 465 1206 q 488 1197 479 1206 q 497 1174 497 1188 l 497 1072 q 488 1050 497 1058 q 465 1042 479 1042 l 364 1042 z "},"Ẁ":{"ha":1133,"x_min":53,"x_max":1079,"o":"m 268 0 q 235 12 247 0 q 219 42 224 24 l 54 932 q 53 939 54 936 q 53 943 53 942 q 62 964 53 956 q 82 972 71 972 l 204 972 q 243 944 239 972 l 358 315 l 483 722 q 498 745 488 733 q 529 757 508 757 l 604 757 q 636 745 626 757 q 649 722 646 733 l 775 317 l 890 944 q 929 972 894 972 l 1051 972 q 1071 964 1063 972 q 1079 943 1079 956 q 1079 939 1079 942 q 1078 932 1079 936 l 913 42 q 897 12 910 24 q 864 0 885 0 l 771 0 q 738 11 750 0 q 722 35 726 22 l 567 499 l 411 35 q 394 11 406 22 q 361 0 383 0 l 268 0 m 542 1042 q 513 1046 524 1042 q 492 1060 503 1050 l 319 1201 q 313 1218 313 1208 q 339 1244 313 1244 l 488 1244 q 516 1240 506 1244 q 539 1219 526 1235 l 653 1082 q 660 1064 660 1075 q 638 1042 660 1042 l 542 1042 z "},"X":{"ha":919,"x_min":25,"x_max":896,"o":"m 54 0 q 33 8 42 0 q 25 29 25 17 q 26 38 25 33 q 29 46 28 42 l 340 496 l 49 926 q 44 943 44 935 q 53 964 44 956 q 74 972 61 972 l 215 972 q 242 964 232 972 q 258 946 251 956 l 463 646 l 668 946 q 684 964 674 956 q 711 972 694 972 l 846 972 q 867 964 858 972 q 875 943 875 956 q 869 926 875 935 l 579 496 l 890 46 q 894 38 893 42 q 896 29 896 33 q 887 8 896 17 q 867 0 878 0 l 719 0 q 693 8 703 0 q 678 25 683 17 l 456 339 l 238 25 q 222 8 232 17 q 194 0 213 0 l 54 0 z "},"Y":{"ha":922,"x_min":32,"x_max":890,"o":"m 397 0 q 374 10 383 0 q 364 33 364 19 l 364 347 l 36 928 q 33 935 35 931 q 32 943 32 939 q 40 964 32 956 q 60 972 49 972 l 183 972 q 210 964 200 972 q 225 946 221 956 l 461 542 l 696 946 q 712 964 701 956 q 739 972 722 972 l 861 972 q 882 964 874 972 q 890 943 890 956 q 890 935 890 939 q 886 928 889 931 l 558 347 l 558 33 q 549 10 558 19 q 524 0 539 0 l 397 0 z "},"Ý":{"ha":922,"x_min":32,"x_max":890,"o":"m 397 0 q 374 10 383 0 q 364 33 364 19 l 364 347 l 36 928 q 33 935 35 931 q 32 943 32 939 q 40 964 32 956 q 60 972 49 972 l 183 972 q 210 964 200 972 q 225 946 221 956 l 461 542 l 696 946 q 712 964 701 956 q 739 972 722 972 l 861 972 q 882 964 874 972 q 890 943 890 956 q 890 935 890 939 q 886 928 889 931 l 558 347 l 558 33 q 549 10 558 19 q 524 0 539 0 l 397 0 m 399 1042 q 376 1064 376 1042 q 383 1082 376 1075 l 496 1219 q 519 1240 510 1235 q 547 1244 529 1244 l 696 1244 q 722 1218 722 1244 q 715 1201 722 1208 l 543 1060 q 522 1046 532 1050 q 494 1042 511 1042 l 399 1042 z "},"Ŷ":{"ha":922,"x_min":32,"x_max":890,"o":"m 397 0 q 374 10 383 0 q 364 33 364 19 l 364 347 l 36 928 q 33 935 35 931 q 32 943 32 939 q 40 964 32 956 q 60 972 49 972 l 183 972 q 210 964 200 972 q 225 946 221 956 l 461 542 l 696 946 q 712 964 701 956 q 739 972 722 972 l 861 972 q 882 964 874 972 q 890 943 890 956 q 890 935 890 939 q 886 928 889 931 l 558 347 l 558 33 q 549 10 558 19 q 524 0 539 0 l 397 0 m 246 1042 q 225 1060 225 1042 q 238 1083 225 1071 l 374 1222 q 398 1241 388 1238 q 421 1244 408 1244 l 501 1244 q 525 1241 515 1244 q 549 1222 535 1238 l 685 1083 q 697 1060 697 1071 q 676 1042 697 1042 l 622 1042 q 600 1044 611 1042 q 579 1051 589 1046 l 461 1125 l 343 1051 q 323 1044 335 1046 q 300 1042 311 1042 l 246 1042 z "},"Ÿ":{"ha":922,"x_min":32,"x_max":890,"o":"m 397 0 q 374 10 383 0 q 364 33 364 19 l 364 347 l 36 928 q 33 935 35 931 q 32 943 32 939 q 40 964 32 956 q 60 972 49 972 l 183 972 q 210 964 200 972 q 225 946 221 956 l 461 542 l 696 946 q 712 964 701 956 q 739 972 722 972 l 861 972 q 882 964 874 972 q 890 943 890 956 q 890 935 890 939 q 886 928 889 931 l 558 347 l 558 33 q 549 10 558 19 q 524 0 539 0 l 397 0 m 561 1042 q 539 1050 547 1042 q 531 1072 531 1058 l 531 1174 q 539 1197 531 1188 q 561 1206 547 1206 l 663 1206 q 685 1197 676 1206 q 694 1174 694 1188 l 694 1072 q 685 1050 694 1058 q 663 1042 676 1042 l 561 1042 m 258 1042 q 236 1050 244 1042 q 228 1072 228 1058 l 228 1174 q 236 1197 228 1188 q 258 1206 244 1206 l 360 1206 q 383 1197 374 1206 q 392 1174 392 1188 l 392 1072 q 383 1050 392 1058 q 360 1042 374 1042 l 258 1042 z "},"Ỳ":{"ha":922,"x_min":32,"x_max":890,"o":"m 397 0 q 374 10 383 0 q 364 33 364 19 l 364 347 l 36 928 q 33 935 35 931 q 32 943 32 939 q 40 964 32 956 q 60 972 49 972 l 183 972 q 210 964 200 972 q 225 946 221 956 l 461 542 l 696 946 q 712 964 701 956 q 739 972 722 972 l 861 972 q 882 964 874 972 q 890 943 890 956 q 890 935 890 939 q 886 928 889 931 l 558 347 l 558 33 q 549 10 558 19 q 524 0 539 0 l 397 0 m 436 1042 q 408 1046 418 1042 q 386 1060 397 1050 l 214 1201 q 207 1218 207 1208 q 233 1244 207 1244 l 382 1244 q 410 1240 400 1244 q 433 1219 421 1235 l 547 1082 q 554 1064 554 1075 q 532 1042 554 1042 l 436 1042 z "},"Z":{"ha":868,"x_min":54,"x_max":815,"o":"m 88 0 q 64 10 74 0 q 54 35 54 19 l 54 132 q 63 165 54 153 q 75 183 71 178 l 558 808 l 101 808 q 77 818 86 808 q 68 842 68 828 l 68 938 q 77 963 68 953 q 101 972 86 972 l 765 972 q 790 963 781 972 q 800 938 800 953 l 800 842 q 794 814 800 825 q 782 793 789 803 l 308 165 l 781 165 q 806 156 796 165 q 815 131 815 146 l 815 33 q 806 10 815 19 q 781 0 796 0 l 88 0 z "},"Ź":{"ha":868,"x_min":54,"x_max":815,"o":"m 88 0 q 64 10 74 0 q 54 35 54 19 l 54 132 q 63 165 54 153 q 75 183 71 178 l 558 808 l 101 808 q 77 818 86 808 q 68 842 68 828 l 68 938 q 77 963 68 953 q 101 972 86 972 l 765 972 q 790 963 781 972 q 800 938 800 953 l 800 842 q 794 814 800 825 q 782 793 789 803 l 308 165 l 781 165 q 806 156 796 165 q 815 131 815 146 l 815 33 q 806 10 815 19 q 781 0 796 0 l 88 0 m 358 1042 q 336 1064 336 1042 q 343 1082 336 1075 l 456 1219 q 479 1240 469 1235 q 507 1244 489 1244 l 656 1244 q 682 1218 682 1244 q 675 1201 682 1208 l 503 1060 q 481 1046 492 1050 q 454 1042 471 1042 l 358 1042 z "},"Ž":{"ha":868,"x_min":54,"x_max":815,"o":"m 88 0 q 64 10 74 0 q 54 35 54 19 l 54 132 q 63 165 54 153 q 75 183 71 178 l 558 808 l 101 808 q 77 818 86 808 q 68 842 68 828 l 68 938 q 77 963 68 953 q 101 972 86 972 l 765 972 q 790 963 781 972 q 800 938 800 953 l 800 842 q 794 814 800 825 q 782 793 789 803 l 308 165 l 781 165 q 806 156 796 165 q 815 131 815 146 l 815 33 q 806 10 815 19 q 781 0 796 0 l 88 0 m 381 1042 q 358 1046 368 1042 q 333 1064 347 1050 l 197 1203 q 185 1226 185 1215 q 206 1244 185 1244 l 260 1244 q 283 1242 271 1244 q 303 1235 294 1240 l 421 1163 l 539 1235 q 560 1242 549 1240 q 582 1244 571 1244 l 636 1244 q 657 1226 657 1244 q 644 1203 657 1215 l 508 1064 q 485 1046 494 1050 q 461 1042 475 1042 l 381 1042 z "},"Ż":{"ha":868,"x_min":54,"x_max":815,"o":"m 88 0 q 64 10 74 0 q 54 35 54 19 l 54 132 q 63 165 54 153 q 75 183 71 178 l 558 808 l 101 808 q 77 818 86 808 q 68 842 68 828 l 68 938 q 77 963 68 953 q 101 972 86 972 l 765 972 q 790 963 781 972 q 800 938 800 953 l 800 842 q 794 814 800 825 q 782 793 789 803 l 308 165 l 781 165 q 806 156 796 165 q 815 131 815 146 l 815 33 q 806 10 815 19 q 781 0 796 0 l 88 0 m 361 1042 q 339 1050 347 1042 q 331 1072 331 1058 l 331 1189 q 339 1212 331 1203 q 361 1221 347 1221 l 478 1221 q 501 1212 492 1221 q 510 1189 510 1203 l 510 1072 q 501 1050 510 1058 q 478 1042 492 1042 l 361 1042 z "},"a":{"ha":793,"x_min":44,"x_max":707,"o":"m 301 -14 q 171 15 229 -14 q 78 91 113 43 q 44 199 44 139 q 124 353 44 296 q 331 431 203 411 l 521 458 l 521 488 q 492 578 521 546 q 392 610 463 610 q 310 590 342 610 q 264 536 279 569 q 232 518 253 518 l 122 518 q 99 526 107 518 q 92 549 92 535 q 110 603 93 571 q 163 665 128 635 q 256 715 199 694 q 393 736 313 736 q 541 715 481 736 q 638 657 601 693 q 690 572 674 621 q 707 469 707 524 l 707 33 q 697 10 707 19 q 674 0 688 0 l 561 0 q 537 10 546 0 q 528 33 528 19 l 528 88 q 479 39 510 63 q 405 1 449 15 q 301 -14 361 -14 m 349 118 q 437 139 397 118 q 499 203 476 160 q 522 314 522 247 l 522 343 l 383 321 q 261 281 301 308 q 221 213 221 253 q 240 160 221 182 q 288 128 258 139 q 349 118 317 118 z "},"á":{"ha":793,"x_min":44,"x_max":707,"o":"m 301 -14 q 171 15 229 -14 q 78 91 113 43 q 44 199 44 139 q 124 353 44 296 q 331 431 203 411 l 521 458 l 521 488 q 492 578 521 546 q 392 610 463 610 q 310 590 342 610 q 264 536 279 569 q 232 518 253 518 l 122 518 q 99 526 107 518 q 92 549 92 535 q 110 603 93 571 q 163 665 128 635 q 256 715 199 694 q 393 736 313 736 q 541 715 481 736 q 638 657 601 693 q 690 572 674 621 q 707 469 707 524 l 707 33 q 697 10 707 19 q 674 0 688 0 l 561 0 q 537 10 546 0 q 528 33 528 19 l 528 88 q 479 39 510 63 q 405 1 449 15 q 301 -14 361 -14 m 349 118 q 437 139 397 118 q 499 203 476 160 q 522 314 522 247 l 522 343 l 383 321 q 261 281 301 308 q 221 213 221 253 q 240 160 221 182 q 288 128 258 139 q 349 118 317 118 m 335 826 q 313 849 313 826 q 319 867 313 860 l 432 1004 q 456 1024 446 1019 q 483 1029 465 1029 l 622 1029 q 649 1003 649 1029 q 642 986 649 993 l 469 844 q 448 831 458 835 q 419 826 438 826 l 335 826 z "},"ă":{"ha":793,"x_min":44,"x_max":707,"o":"m 301 -14 q 171 15 229 -14 q 78 91 113 43 q 44 199 44 139 q 124 353 44 296 q 331 431 203 411 l 521 458 l 521 488 q 492 578 521 546 q 392 610 463 610 q 310 590 342 610 q 264 536 279 569 q 232 518 253 518 l 122 518 q 99 526 107 518 q 92 549 92 535 q 110 603 93 571 q 163 665 128 635 q 256 715 199 694 q 393 736 313 736 q 541 715 481 736 q 638 657 601 693 q 690 572 674 621 q 707 469 707 524 l 707 33 q 697 10 707 19 q 674 0 688 0 l 561 0 q 537 10 546 0 q 528 33 528 19 l 528 88 q 479 39 510 63 q 405 1 449 15 q 301 -14 361 -14 m 349 118 q 437 139 397 118 q 499 203 476 160 q 522 314 522 247 l 522 343 l 383 321 q 261 281 301 308 q 221 213 221 253 q 240 160 221 182 q 288 128 258 139 q 349 118 317 118 m 393 819 q 285 845 326 819 q 224 913 243 871 q 206 1003 206 954 q 213 1022 206 1014 q 232 1029 219 1029 l 297 1029 q 317 1022 310 1029 q 324 1003 324 1014 q 338 944 324 971 q 393 918 353 918 q 449 944 435 918 q 463 1003 463 971 q 469 1022 463 1014 q 489 1029 476 1029 l 554 1029 q 574 1022 567 1029 q 581 1003 581 1014 q 562 913 581 954 q 502 845 543 871 q 393 819 461 819 z "},"â":{"ha":793,"x_min":44,"x_max":707,"o":"m 301 -14 q 171 15 229 -14 q 78 91 113 43 q 44 199 44 139 q 124 353 44 296 q 331 431 203 411 l 521 458 l 521 488 q 492 578 521 546 q 392 610 463 610 q 310 590 342 610 q 264 536 279 569 q 232 518 253 518 l 122 518 q 99 526 107 518 q 92 549 92 535 q 110 603 93 571 q 163 665 128 635 q 256 715 199 694 q 393 736 313 736 q 541 715 481 736 q 638 657 601 693 q 690 572 674 621 q 707 469 707 524 l 707 33 q 697 10 707 19 q 674 0 688 0 l 561 0 q 537 10 546 0 q 528 33 528 19 l 528 88 q 479 39 510 63 q 405 1 449 15 q 301 -14 361 -14 m 349 118 q 437 139 397 118 q 499 203 476 160 q 522 314 522 247 l 522 343 l 383 321 q 261 281 301 308 q 221 213 221 253 q 240 160 221 182 q 288 128 258 139 q 349 118 317 118 m 182 826 q 161 844 161 826 q 174 868 161 856 l 308 1007 q 334 1026 324 1022 q 356 1029 344 1029 l 432 1029 q 455 1026 444 1029 q 479 1007 465 1022 l 614 868 q 626 844 626 856 q 606 826 626 826 l 556 826 q 533 828 544 826 q 511 836 521 831 l 394 910 l 276 836 q 255 828 267 831 q 233 826 243 826 l 182 826 z "},"ä":{"ha":793,"x_min":44,"x_max":707,"o":"m 301 -14 q 171 15 229 -14 q 78 91 113 43 q 44 199 44 139 q 124 353 44 296 q 331 431 203 411 l 521 458 l 521 488 q 492 578 521 546 q 392 610 463 610 q 310 590 342 610 q 264 536 279 569 q 232 518 253 518 l 122 518 q 99 526 107 518 q 92 549 92 535 q 110 603 93 571 q 163 665 128 635 q 256 715 199 694 q 393 736 313 736 q 541 715 481 736 q 638 657 601 693 q 690 572 674 621 q 707 469 707 524 l 707 33 q 697 10 707 19 q 674 0 688 0 l 561 0 q 537 10 546 0 q 528 33 528 19 l 528 88 q 479 39 510 63 q 405 1 449 15 q 301 -14 361 -14 m 349 118 q 437 139 397 118 q 499 203 476 160 q 522 314 522 247 l 522 343 l 383 321 q 261 281 301 308 q 221 213 221 253 q 240 160 221 182 q 288 128 258 139 q 349 118 317 118 m 472 853 q 450 861 458 853 q 442 883 442 869 l 442 985 q 450 1008 442 999 q 472 1017 458 1017 l 574 1017 q 597 1008 588 1017 q 606 985 606 999 l 606 883 q 597 861 606 869 q 574 853 588 853 l 472 853 m 211 853 q 189 861 197 853 q 181 883 181 869 l 181 985 q 189 1008 181 999 q 211 1017 197 1017 l 313 1017 q 335 1008 326 1017 q 344 985 344 999 l 344 883 q 335 861 344 869 q 313 853 326 853 l 211 853 z "},"à":{"ha":793,"x_min":44,"x_max":707,"o":"m 301 -14 q 171 15 229 -14 q 78 91 113 43 q 44 199 44 139 q 124 353 44 296 q 331 431 203 411 l 521 458 l 521 488 q 492 578 521 546 q 392 610 463 610 q 310 590 342 610 q 264 536 279 569 q 232 518 253 518 l 122 518 q 99 526 107 518 q 92 549 92 535 q 110 603 93 571 q 163 665 128 635 q 256 715 199 694 q 393 736 313 736 q 541 715 481 736 q 638 657 601 693 q 690 572 674 621 q 707 469 707 524 l 707 33 q 697 10 707 19 q 674 0 688 0 l 561 0 q 537 10 546 0 q 528 33 528 19 l 528 88 q 479 39 510 63 q 405 1 449 15 q 301 -14 361 -14 m 349 118 q 437 139 397 118 q 499 203 476 160 q 522 314 522 247 l 522 343 l 383 321 q 261 281 301 308 q 221 213 221 253 q 240 160 221 182 q 288 128 258 139 q 349 118 317 118 m 375 826 q 348 831 358 826 q 326 844 338 835 l 153 986 q 146 1003 146 993 q 172 1029 146 1029 l 311 1029 q 340 1024 329 1029 q 363 1004 350 1019 l 476 867 q 483 849 483 860 q 461 826 483 826 l 375 826 z "},"ā":{"ha":793,"x_min":44,"x_max":707,"o":"m 301 -14 q 171 15 229 -14 q 78 91 113 43 q 44 199 44 139 q 124 353 44 296 q 331 431 203 411 l 521 458 l 521 488 q 492 578 521 546 q 392 610 463 610 q 310 590 342 610 q 264 536 279 569 q 232 518 253 518 l 122 518 q 99 526 107 518 q 92 549 92 535 q 110 603 93 571 q 163 665 128 635 q 256 715 199 694 q 393 736 313 736 q 541 715 481 736 q 638 657 601 693 q 690 572 674 621 q 707 469 707 524 l 707 33 q 697 10 707 19 q 674 0 688 0 l 561 0 q 537 10 546 0 q 528 33 528 19 l 528 88 q 479 39 510 63 q 405 1 449 15 q 301 -14 361 -14 m 349 118 q 437 139 397 118 q 499 203 476 160 q 522 314 522 247 l 522 343 l 383 321 q 261 281 301 308 q 221 213 221 253 q 240 160 221 182 q 288 128 258 139 q 349 118 317 118 m 218 849 q 196 857 204 849 q 188 879 188 865 l 188 950 q 196 972 188 964 q 218 981 204 981 l 567 981 q 590 972 581 981 q 599 950 599 964 l 599 879 q 590 857 599 865 q 567 849 581 849 l 218 849 z "},"ą":{"ha":793,"x_min":44,"x_max":707,"o":"m 658 -306 q 558 -280 600 -306 q 492 -208 515 -254 q 469 -101 469 -162 q 480 -45 469 -71 q 507 -1 490 -19 q 539 29 524 18 q 531 35 533 31 q 528 47 528 40 l 528 88 q 479 39 510 63 q 405 1 449 15 q 301 -14 361 -14 q 171 15 229 -14 q 78 91 113 43 q 44 199 44 139 q 124 353 44 296 q 331 431 203 411 l 521 458 l 521 488 q 492 578 521 546 q 392 610 463 610 q 325 597 351 610 q 281 566 299 583 q 250 535 264 549 q 241 522 246 525 q 229 518 236 518 l 122 518 q 101 526 110 518 q 92 549 92 535 q 110 603 93 571 q 163 665 128 635 q 256 715 199 694 q 393 736 313 736 q 541 715 481 736 q 638 657 601 693 q 690 572 674 621 q 707 469 707 524 l 707 33 q 700 13 707 22 q 681 1 693 4 l 669 0 q 608 -39 628 -14 q 589 -101 589 -64 q 608 -166 589 -142 q 664 -190 626 -190 l 674 -190 q 697 -199 688 -190 q 707 -224 707 -208 l 707 -272 q 697 -296 707 -286 q 674 -306 688 -306 l 658 -306 m 349 118 q 437 139 397 118 q 499 203 476 160 q 522 314 522 247 l 522 343 l 383 321 q 261 281 301 308 q 221 213 221 253 q 240 160 221 182 q 288 128 258 139 q 349 118 317 118 z "},"å":{"ha":793,"x_min":44,"x_max":707,"o":"m 301 -14 q 171 15 229 -14 q 78 91 113 43 q 44 199 44 139 q 124 353 44 296 q 331 431 203 411 l 521 458 l 521 488 q 492 578 521 546 q 392 610 463 610 q 310 590 342 610 q 264 536 279 569 q 232 518 253 518 l 122 518 q 99 526 107 518 q 92 549 92 535 q 110 603 93 571 q 163 665 128 635 q 256 715 199 694 q 393 736 313 736 q 541 715 481 736 q 638 657 601 693 q 690 572 674 621 q 707 469 707 524 l 707 33 q 697 10 707 19 q 674 0 688 0 l 561 0 q 537 10 546 0 q 528 33 528 19 l 528 88 q 479 39 510 63 q 405 1 449 15 q 301 -14 361 -14 m 349 118 q 437 139 397 118 q 499 203 476 160 q 522 314 522 247 l 522 343 l 383 321 q 261 281 301 308 q 221 213 221 253 q 240 160 221 182 q 288 128 258 139 q 349 118 317 118 m 393 819 q 307 852 343 819 q 271 935 271 885 q 307 1017 271 985 q 393 1050 343 1050 q 479 1017 443 1050 q 515 935 515 985 q 479 852 515 885 q 393 819 443 819 m 393 893 q 423 905 411 893 q 435 935 435 917 q 423 965 435 953 q 393 976 411 976 q 363 965 375 976 q 351 935 351 953 q 363 905 351 917 q 393 893 375 893 z "},"ã":{"ha":793,"x_min":44,"x_max":707,"o":"m 301 -14 q 171 15 229 -14 q 78 91 113 43 q 44 199 44 139 q 124 353 44 296 q 331 431 203 411 l 521 458 l 521 488 q 492 578 521 546 q 392 610 463 610 q 310 590 342 610 q 264 536 279 569 q 232 518 253 518 l 122 518 q 99 526 107 518 q 92 549 92 535 q 110 603 93 571 q 163 665 128 635 q 256 715 199 694 q 393 736 313 736 q 541 715 481 736 q 638 657 601 693 q 690 572 674 621 q 707 469 707 524 l 707 33 q 697 10 707 19 q 674 0 688 0 l 561 0 q 537 10 546 0 q 528 33 528 19 l 528 88 q 479 39 510 63 q 405 1 449 15 q 301 -14 361 -14 m 349 118 q 437 139 397 118 q 499 203 476 160 q 522 314 522 247 l 522 343 l 383 321 q 261 281 301 308 q 221 213 221 253 q 240 160 221 182 q 288 128 258 139 q 349 118 317 118 m 469 819 q 411 831 433 819 q 370 856 389 843 q 329 868 351 868 q 303 858 311 868 q 289 837 296 847 q 267 826 282 826 l 203 826 q 186 833 193 826 q 179 850 179 840 q 187 897 179 871 q 211 946 194 922 q 253 984 228 969 q 314 999 279 999 q 374 987 351 999 q 415 963 396 975 q 456 950 433 950 q 481 961 474 950 q 496 983 489 972 q 518 993 503 993 l 582 993 q 599 985 593 993 q 606 968 606 978 q 598 922 606 947 q 574 872 590 896 q 531 834 557 849 q 469 819 506 819 z "},"æ":{"ha":1254,"x_min":44,"x_max":1197,"o":"m 314 -14 q 171 15 232 -14 q 77 91 110 43 q 44 199 44 139 q 124 354 44 296 q 332 432 203 413 l 522 460 l 522 489 q 492 578 522 547 q 393 610 463 610 q 326 597 353 610 q 282 566 300 583 q 250 535 264 549 q 241 522 246 525 q 229 518 236 518 l 122 518 q 101 526 110 518 q 92 549 92 535 q 109 603 92 571 q 163 665 126 635 q 256 715 199 694 q 394 736 314 736 q 544 710 489 736 q 629 643 600 683 q 726 710 669 685 q 860 736 782 736 q 1024 703 958 736 q 1127 615 1089 669 q 1181 497 1165 561 q 1197 369 1197 432 l 1197 340 q 1188 317 1197 326 q 1163 307 1178 307 l 710 307 l 710 296 q 733 192 711 232 q 788 133 754 151 q 858 115 822 115 q 929 131 894 115 q 989 179 964 147 q 1008 199 1000 194 q 1032 203 1017 203 l 1149 203 q 1179 174 1179 203 q 1159 122 1179 154 q 1099 60 1139 90 q 1000 8 1060 29 q 858 -14 940 -14 q 699 20 764 -14 q 593 111 633 54 q 472 15 544 44 q 314 -14 399 -14 m 350 118 q 438 139 399 118 q 501 203 478 160 q 524 314 524 247 l 524 343 l 385 321 q 262 281 301 308 q 222 213 222 253 q 240 160 222 182 q 288 128 258 139 q 350 118 317 118 m 710 424 l 1008 424 l 1008 429 q 972 560 1008 510 q 860 610 935 610 q 788 590 821 610 q 733 531 754 571 q 710 429 711 492 l 710 424 z "},"ǽ":{"ha":1254,"x_min":44,"x_max":1197,"o":"m 314 -14 q 171 15 232 -14 q 77 91 110 43 q 44 199 44 139 q 124 354 44 296 q 332 432 203 413 l 522 460 l 522 489 q 492 578 522 547 q 393 610 463 610 q 326 597 353 610 q 282 566 300 583 q 250 535 264 549 q 241 522 246 525 q 229 518 236 518 l 122 518 q 101 526 110 518 q 92 549 92 535 q 109 603 92 571 q 163 665 126 635 q 256 715 199 694 q 394 736 314 736 q 544 710 489 736 q 629 643 600 683 q 726 710 669 685 q 860 736 782 736 q 1024 703 958 736 q 1127 615 1089 669 q 1181 497 1165 561 q 1197 369 1197 432 l 1197 340 q 1188 317 1197 326 q 1163 307 1178 307 l 710 307 l 710 296 q 733 192 711 232 q 788 133 754 151 q 858 115 822 115 q 929 131 894 115 q 989 179 964 147 q 1008 199 1000 194 q 1032 203 1017 203 l 1149 203 q 1179 174 1179 203 q 1159 122 1179 154 q 1099 60 1139 90 q 1000 8 1060 29 q 858 -14 940 -14 q 699 20 764 -14 q 593 111 633 54 q 472 15 544 44 q 314 -14 399 -14 m 350 118 q 438 139 399 118 q 501 203 478 160 q 524 314 524 247 l 524 343 l 385 321 q 262 281 301 308 q 222 213 222 253 q 240 160 222 182 q 288 128 258 139 q 350 118 317 118 m 710 424 l 1008 424 l 1008 429 q 972 560 1008 510 q 860 610 935 610 q 788 590 821 610 q 733 531 754 571 q 710 429 711 492 l 710 424 m 569 826 q 547 849 547 826 q 554 867 547 860 l 667 1004 q 690 1024 681 1019 q 718 1029 700 1029 l 857 1029 q 883 1003 883 1029 q 876 986 883 993 l 704 844 q 683 831 693 835 q 654 826 672 826 l 569 826 z "},"b":{"ha":851,"x_min":93,"x_max":789,"o":"m 492 -14 q 358 14 411 -14 q 269 85 304 42 l 269 33 q 260 10 269 19 q 236 0 251 0 l 126 0 q 103 10 113 0 q 93 33 93 19 l 93 953 q 103 976 93 967 q 126 986 113 986 l 244 986 q 269 976 260 986 q 278 953 278 967 l 278 644 q 365 710 313 685 q 492 736 417 736 q 619 711 565 736 q 710 641 674 686 q 767 536 747 596 q 788 407 786 476 q 789 362 789 382 q 788 317 789 342 q 765 184 785 244 q 710 79 746 124 q 619 10 674 35 q 492 -14 565 -14 m 440 135 q 533 160 500 135 q 582 228 567 186 q 600 319 597 269 q 600 403 601 361 q 582 494 597 453 q 533 562 567 536 q 440 588 500 588 q 350 563 385 588 q 297 499 315 538 q 278 419 279 461 q 276 366 276 394 q 278 313 276 338 q 297 228 281 269 q 348 161 313 188 q 440 135 383 135 z "},"c":{"ha":793,"x_min":63,"x_max":742,"o":"m 404 -14 q 228 24 304 -14 q 110 133 153 61 q 64 306 68 204 q 63 360 63 326 q 64 417 63 394 q 110 590 68 518 q 228 699 153 661 q 404 736 304 736 q 556 712 493 736 q 658 649 618 688 q 719 570 699 611 q 740 496 739 529 q 731 472 742 481 q 707 463 721 463 l 585 463 q 563 469 571 463 q 549 490 556 476 q 494 569 528 546 q 407 592 460 592 q 297 548 338 592 q 253 410 256 504 q 253 313 250 357 q 297 174 256 217 q 407 131 338 131 q 494 153 461 131 q 549 232 528 176 q 563 253 556 246 q 585 260 571 260 l 707 260 q 731 251 721 260 q 740 226 742 242 q 727 170 739 201 q 690 106 715 139 q 625 47 664 74 q 531 3 586 19 q 404 -14 476 -14 z "},"ć":{"ha":793,"x_min":63,"x_max":742,"o":"m 404 -14 q 228 24 304 -14 q 110 133 153 61 q 64 306 68 204 q 63 360 63 326 q 64 417 63 394 q 110 590 68 518 q 228 699 153 661 q 404 736 304 736 q 556 712 493 736 q 658 649 618 688 q 719 570 699 611 q 740 496 739 529 q 731 472 742 481 q 707 463 721 463 l 585 463 q 563 469 571 463 q 549 490 556 476 q 494 569 528 546 q 407 592 460 592 q 297 548 338 592 q 253 410 256 504 q 253 313 250 357 q 297 174 256 217 q 407 131 338 131 q 494 153 461 131 q 549 232 528 176 q 563 253 556 246 q 585 260 571 260 l 707 260 q 731 251 721 260 q 740 226 742 242 q 727 170 739 201 q 690 106 715 139 q 625 47 664 74 q 531 3 586 19 q 404 -14 476 -14 m 340 826 q 318 849 318 826 q 325 867 318 860 l 438 1004 q 461 1024 451 1019 q 489 1029 471 1029 l 628 1029 q 654 1003 654 1029 q 647 986 654 993 l 475 844 q 453 831 464 835 q 425 826 443 826 l 340 826 z "},"č":{"ha":793,"x_min":63,"x_max":742,"o":"m 404 -14 q 228 24 304 -14 q 110 133 153 61 q 64 306 68 204 q 63 360 63 326 q 64 417 63 394 q 110 590 68 518 q 228 699 153 661 q 404 736 304 736 q 556 712 493 736 q 658 649 618 688 q 719 570 699 611 q 740 496 739 529 q 731 472 742 481 q 707 463 721 463 l 585 463 q 563 469 571 463 q 549 490 556 476 q 494 569 528 546 q 407 592 460 592 q 297 548 338 592 q 253 410 256 504 q 253 313 250 357 q 297 174 256 217 q 407 131 338 131 q 494 153 461 131 q 549 232 528 176 q 563 253 556 246 q 585 260 571 260 l 707 260 q 731 251 721 260 q 740 226 742 242 q 727 170 739 201 q 690 106 715 139 q 625 47 664 74 q 531 3 586 19 q 404 -14 476 -14 m 361 826 q 340 831 350 826 q 314 849 329 835 l 179 988 q 167 1011 167 1000 q 188 1029 167 1029 l 239 1029 q 260 1027 249 1029 q 282 1019 272 1025 l 400 947 l 517 1019 q 538 1027 526 1025 q 561 1029 550 1029 l 611 1029 q 632 1011 632 1029 q 619 988 632 1000 l 485 849 q 460 831 471 835 q 438 826 450 826 l 361 826 z "},"ç":{"ha":793,"x_min":63,"x_max":742,"o":"m 403 -306 q 334 -292 364 -304 q 291 -262 304 -279 q 292 -235 278 -246 l 315 -214 q 337 -208 328 -203 q 360 -222 346 -212 q 403 -231 375 -231 q 439 -217 424 -231 q 454 -183 454 -204 q 440 -151 454 -164 q 403 -139 425 -139 q 369 -144 383 -139 q 344 -151 356 -149 q 322 -142 333 -153 l 297 -117 q 292 -97 289 -107 q 300 -74 294 -86 l 329 -7 q 139 92 210 11 q 64 306 68 174 q 63 360 63 326 q 64 417 63 394 q 110 590 68 518 q 228 699 153 661 q 404 736 304 736 q 556 712 493 736 q 658 649 618 688 q 719 570 699 611 q 740 496 739 529 q 731 472 742 481 q 707 463 721 463 l 585 463 q 563 469 571 463 q 549 490 556 476 q 494 569 528 546 q 407 592 460 592 q 297 548 338 592 q 253 410 256 504 q 253 313 250 357 q 297 174 256 217 q 407 131 338 131 q 494 153 461 131 q 549 232 528 176 q 563 253 556 246 q 585 260 571 260 l 707 260 q 731 251 721 260 q 740 226 742 242 q 719 155 739 196 q 661 76 700 114 q 560 12 622 38 q 408 -14 497 -14 l 379 -74 q 402 -67 388 -69 q 428 -64 417 -64 q 506 -97 476 -64 q 536 -182 536 -131 q 501 -271 536 -235 q 403 -306 467 -307 z "},"ĉ":{"ha":793,"x_min":63,"x_max":742,"o":"m 404 -14 q 228 24 304 -14 q 110 133 153 61 q 64 306 68 204 q 63 360 63 326 q 64 417 63 394 q 110 590 68 518 q 228 699 153 661 q 404 736 304 736 q 556 712 493 736 q 658 649 618 688 q 719 570 699 611 q 740 496 739 529 q 731 472 742 481 q 707 463 721 463 l 585 463 q 563 469 571 463 q 549 490 556 476 q 494 569 528 546 q 407 592 460 592 q 297 548 338 592 q 253 410 256 504 q 253 313 250 357 q 297 174 256 217 q 407 131 338 131 q 494 153 461 131 q 549 232 528 176 q 563 253 556 246 q 585 260 571 260 l 707 260 q 731 251 721 260 q 740 226 742 242 q 727 170 739 201 q 690 106 715 139 q 625 47 664 74 q 531 3 586 19 q 404 -14 476 -14 m 188 826 q 167 844 167 826 q 179 868 167 856 l 314 1007 q 340 1026 329 1022 q 361 1029 350 1029 l 438 1029 q 460 1026 450 1029 q 485 1007 471 1022 l 619 868 q 632 844 632 856 q 611 826 632 826 l 561 826 q 538 828 550 826 q 517 836 526 831 l 400 910 l 282 836 q 260 828 272 831 q 239 826 249 826 l 188 826 z "},"ċ":{"ha":793,"x_min":63,"x_max":742,"o":"m 404 -14 q 228 24 304 -14 q 110 133 153 61 q 64 306 68 204 q 63 360 63 326 q 64 417 63 394 q 110 590 68 518 q 228 699 153 661 q 404 736 304 736 q 556 712 493 736 q 658 649 618 688 q 719 570 699 611 q 740 496 739 529 q 731 472 742 481 q 707 463 721 463 l 585 463 q 563 469 571 463 q 549 490 556 476 q 494 569 528 546 q 407 592 460 592 q 297 548 338 592 q 253 410 256 504 q 253 313 250 357 q 297 174 256 217 q 407 131 338 131 q 494 153 461 131 q 549 232 528 176 q 563 253 556 246 q 585 260 571 260 l 707 260 q 731 251 721 260 q 740 226 742 242 q 727 170 739 201 q 690 106 715 139 q 625 47 664 74 q 531 3 586 19 q 404 -14 476 -14 m 340 844 q 318 853 326 844 q 310 875 310 861 l 310 989 q 318 1012 310 1003 q 340 1021 326 1021 l 454 1021 q 477 1012 468 1021 q 486 989 486 1003 l 486 875 q 477 853 486 861 q 454 844 468 844 l 340 844 z "},"d":{"ha":851,"x_min":63,"x_max":758,"o":"m 360 -14 q 233 10 288 -14 q 142 79 178 35 q 86 184 106 124 q 64 317 67 244 q 63 362 63 342 q 64 407 63 382 q 85 536 67 476 q 141 641 104 596 q 233 711 178 686 q 360 736 288 736 q 487 710 435 736 q 574 644 539 685 l 574 953 q 583 976 574 967 q 607 986 592 986 l 725 986 q 749 976 739 986 q 758 953 758 967 l 758 33 q 749 10 758 19 q 725 0 739 0 l 615 0 q 591 10 600 0 q 582 33 582 19 l 582 85 q 494 14 547 42 q 360 -14 440 -14 m 411 135 q 504 161 469 135 q 556 228 539 188 q 574 313 572 269 q 575 366 575 338 q 574 419 575 394 q 554 499 572 461 q 501 563 536 538 q 411 588 467 588 q 319 562 353 588 q 269 494 285 536 q 251 403 254 453 q 251 319 250 361 q 269 228 254 269 q 319 160 285 186 q 411 135 353 135 z "},"ð":{"ha":814,"x_min":60,"x_max":749,"o":"m 403 -14 q 217 27 294 -14 q 100 143 140 68 q 60 321 60 218 q 101 497 60 422 q 221 613 143 572 q 403 653 299 653 q 468 644 439 653 q 521 621 497 636 q 450 751 494 693 l 304 696 q 288 692 294 692 q 267 699 275 692 q 260 718 260 706 l 260 749 q 267 775 260 767 q 290 789 274 783 l 383 825 q 333 870 360 847 q 276 914 306 893 q 260 931 265 924 q 256 943 256 938 q 264 964 256 956 q 285 972 272 972 l 407 972 q 442 967 428 972 q 467 954 457 963 q 506 921 486 938 q 542 886 525 904 l 669 935 q 686 939 681 939 q 706 932 699 939 q 714 913 714 925 l 714 882 q 707 857 714 865 q 683 842 700 849 l 610 814 q 708 626 671 735 q 747 354 744 517 q 749 335 749 344 q 747 315 749 325 q 704 141 746 215 q 588 26 663 67 q 403 -14 513 -14 m 403 124 q 490 147 456 124 q 542 212 525 171 q 560 303 560 253 q 560 319 560 313 q 560 336 560 326 q 542 426 558 386 q 492 491 526 467 q 403 515 458 515 q 315 491 350 515 q 265 426 281 467 q 247 336 249 386 q 247 318 247 325 q 247 301 247 311 q 266 211 249 251 q 317 147 283 171 q 403 124 351 124 z "},"ď":{"ha":938,"x_min":63,"x_max":1044,"o":"m 360 -14 q 233 10 288 -14 q 142 79 178 35 q 86 184 106 124 q 64 317 67 244 q 63 362 63 342 q 64 407 63 382 q 85 536 67 476 q 141 641 104 596 q 233 711 178 686 q 360 736 288 736 q 487 710 435 736 q 574 644 539 685 l 574 953 q 583 976 574 967 q 607 986 592 986 l 725 986 q 749 976 739 986 q 758 953 758 967 l 758 33 q 749 10 758 19 q 725 0 739 0 l 615 0 q 591 10 600 0 q 582 33 582 19 l 582 85 q 494 14 547 42 q 360 -14 440 -14 m 411 135 q 504 161 469 135 q 556 228 539 188 q 574 313 572 269 q 575 366 575 338 q 574 419 575 394 q 554 499 572 461 q 501 563 536 538 q 411 588 467 588 q 319 562 353 588 q 269 494 285 536 q 251 403 254 453 q 251 319 250 361 q 269 228 254 269 q 319 160 285 186 q 411 135 353 135 m 857 742 q 838 750 844 742 q 832 771 832 758 l 858 942 q 872 973 861 960 q 903 986 882 986 l 1019 986 q 1038 978 1031 986 q 1044 961 1044 971 q 1040 942 1044 951 l 976 776 q 961 752 971 763 q 931 742 951 742 l 857 742 z "},"đ":{"ha":851,"x_min":63,"x_max":857,"o":"m 360 -14 q 226 13 282 -14 q 136 85 171 39 q 84 192 101 132 q 64 317 67 251 q 63 362 63 342 q 64 407 63 382 q 83 528 67 469 q 135 635 100 588 q 226 709 171 682 q 360 736 282 736 q 488 710 435 736 q 574 644 540 685 l 574 781 l 510 781 q 485 790 494 781 q 476 814 476 799 l 476 854 q 485 878 476 868 q 510 888 494 888 l 574 888 l 574 953 q 583 976 574 967 q 607 986 593 986 l 726 986 q 750 976 740 986 q 760 953 760 967 l 760 888 l 824 888 q 848 878 839 888 q 857 854 857 868 l 857 814 q 848 790 857 799 q 824 781 839 781 l 760 781 l 760 33 q 750 10 760 19 q 726 0 740 0 l 615 0 q 592 10 601 0 q 582 33 582 19 l 582 89 q 495 15 550 44 q 360 -14 440 -14 m 413 135 q 504 161 469 135 q 556 228 539 188 q 574 313 572 269 q 576 366 576 338 q 574 419 576 394 q 555 499 572 461 q 503 563 538 538 q 413 588 468 588 q 319 562 354 588 q 270 494 285 536 q 253 403 256 453 q 253 319 250 361 q 270 228 256 269 q 319 160 285 186 q 413 135 354 135 z "},"e":{"ha":801,"x_min":60,"x_max":746,"o":"m 403 -14 q 158 75 249 -14 q 61 328 68 164 q 60 363 60 342 q 61 397 60 385 q 109 578 67 503 q 226 695 151 654 q 403 736 301 736 q 592 690 515 736 q 707 560 668 643 q 746 369 746 478 l 746 340 q 736 317 746 326 q 711 307 726 307 l 250 307 q 250 303 250 307 q 250 296 250 299 q 269 206 251 247 q 320 140 286 165 q 401 115 354 115 q 467 127 440 115 q 510 154 493 139 q 533 179 526 169 q 553 199 546 196 q 576 203 561 203 l 696 203 q 719 194 710 203 q 726 174 728 186 q 703 119 725 151 q 642 57 682 88 q 541 6 601 26 q 403 -14 481 -14 m 250 424 l 557 424 l 557 428 q 539 523 557 482 q 486 587 521 564 q 403 610 451 610 q 319 587 354 610 q 267 523 285 564 q 250 428 250 482 l 250 424 z "},"é":{"ha":801,"x_min":60,"x_max":746,"o":"m 403 -14 q 158 75 249 -14 q 61 328 68 164 q 60 363 60 342 q 61 397 60 385 q 109 578 67 503 q 226 695 151 654 q 403 736 301 736 q 592 690 515 736 q 707 560 668 643 q 746 369 746 478 l 746 340 q 736 317 746 326 q 711 307 726 307 l 250 307 q 250 303 250 307 q 250 296 250 299 q 269 206 251 247 q 320 140 286 165 q 401 115 354 115 q 467 127 440 115 q 510 154 493 139 q 533 179 526 169 q 553 199 546 196 q 576 203 561 203 l 696 203 q 719 194 710 203 q 726 174 728 186 q 703 119 725 151 q 642 57 682 88 q 541 6 601 26 q 403 -14 481 -14 m 250 424 l 557 424 l 557 428 q 539 523 557 482 q 486 587 521 564 q 403 610 451 610 q 319 587 354 610 q 267 523 285 564 q 250 428 250 482 l 250 424 m 343 826 q 321 849 321 826 q 328 867 321 860 l 440 1004 q 464 1024 454 1019 q 492 1029 474 1029 l 631 1029 q 657 1003 657 1029 q 650 986 657 993 l 478 844 q 456 831 467 835 q 428 826 446 826 l 343 826 z "},"ĕ":{"ha":801,"x_min":60,"x_max":746,"o":"m 403 -14 q 158 75 249 -14 q 61 328 68 164 q 60 363 60 342 q 61 397 60 385 q 109 578 67 503 q 226 695 151 654 q 403 736 301 736 q 592 690 515 736 q 707 560 668 643 q 746 369 746 478 l 746 340 q 736 317 746 326 q 711 307 726 307 l 250 307 q 250 303 250 307 q 250 296 250 299 q 269 206 251 247 q 320 140 286 165 q 401 115 354 115 q 467 127 440 115 q 510 154 493 139 q 533 179 526 169 q 553 199 546 196 q 576 203 561 203 l 696 203 q 719 194 710 203 q 726 174 728 186 q 703 119 725 151 q 642 57 682 88 q 541 6 601 26 q 403 -14 481 -14 m 250 424 l 557 424 l 557 428 q 539 523 557 482 q 486 587 521 564 q 403 610 451 610 q 319 587 354 610 q 267 523 285 564 q 250 428 250 482 l 250 424 m 401 819 q 293 845 335 819 q 233 913 251 871 q 214 1003 214 954 q 221 1022 214 1014 q 240 1029 228 1029 l 306 1029 q 325 1022 318 1029 q 332 1003 332 1014 q 347 944 332 971 q 401 918 361 918 q 457 944 443 918 q 471 1003 471 971 q 478 1022 471 1014 q 497 1029 485 1029 l 563 1029 q 582 1022 575 1029 q 589 1003 589 1014 q 570 913 589 954 q 510 845 551 871 q 401 819 469 819 z "},"ě":{"ha":801,"x_min":60,"x_max":746,"o":"m 403 -14 q 158 75 249 -14 q 61 328 68 164 q 60 363 60 342 q 61 397 60 385 q 109 578 67 503 q 226 695 151 654 q 403 736 301 736 q 592 690 515 736 q 707 560 668 643 q 746 369 746 478 l 746 340 q 736 317 746 326 q 711 307 726 307 l 250 307 q 250 303 250 307 q 250 296 250 299 q 269 206 251 247 q 320 140 286 165 q 401 115 354 115 q 467 127 440 115 q 510 154 493 139 q 533 179 526 169 q 553 199 546 196 q 576 203 561 203 l 696 203 q 719 194 710 203 q 726 174 728 186 q 703 119 725 151 q 642 57 682 88 q 541 6 601 26 q 403 -14 481 -14 m 250 424 l 557 424 l 557 428 q 539 523 557 482 q 486 587 521 564 q 403 610 451 610 q 319 587 354 610 q 267 523 285 564 q 250 428 250 482 l 250 424 m 364 826 q 342 831 353 826 q 317 849 332 835 l 182 988 q 169 1011 169 1000 q 190 1029 169 1029 l 242 1029 q 263 1027 251 1029 q 285 1019 275 1025 l 403 947 l 519 1019 q 541 1027 529 1025 q 564 1029 553 1029 l 614 1029 q 635 1011 635 1029 q 622 988 635 1000 l 488 849 q 463 831 474 835 q 440 826 453 826 l 364 826 z "},"ê":{"ha":801,"x_min":60,"x_max":746,"o":"m 403 -14 q 158 75 249 -14 q 61 328 68 164 q 60 363 60 342 q 61 397 60 385 q 109 578 67 503 q 226 695 151 654 q 403 736 301 736 q 592 690 515 736 q 707 560 668 643 q 746 369 746 478 l 746 340 q 736 317 746 326 q 711 307 726 307 l 250 307 q 250 303 250 307 q 250 296 250 299 q 269 206 251 247 q 320 140 286 165 q 401 115 354 115 q 467 127 440 115 q 510 154 493 139 q 533 179 526 169 q 553 199 546 196 q 576 203 561 203 l 696 203 q 719 194 710 203 q 726 174 728 186 q 703 119 725 151 q 642 57 682 88 q 541 6 601 26 q 403 -14 481 -14 m 250 424 l 557 424 l 557 428 q 539 523 557 482 q 486 587 521 564 q 403 610 451 610 q 319 587 354 610 q 267 523 285 564 q 250 428 250 482 l 250 424 m 190 826 q 169 844 169 826 q 182 868 169 856 l 317 1007 q 342 1026 332 1022 q 364 1029 353 1029 l 440 1029 q 463 1026 453 1029 q 488 1007 474 1022 l 622 868 q 635 844 635 856 q 614 826 635 826 l 564 826 q 541 828 553 826 q 519 836 529 831 l 403 910 l 285 836 q 263 828 275 831 q 242 826 251 826 l 190 826 z "},"ë":{"ha":801,"x_min":60,"x_max":746,"o":"m 403 -14 q 158 75 249 -14 q 61 328 68 164 q 60 363 60 342 q 61 397 60 385 q 109 578 67 503 q 226 695 151 654 q 403 736 301 736 q 592 690 515 736 q 707 560 668 643 q 746 369 746 478 l 746 340 q 736 317 746 326 q 711 307 726 307 l 250 307 q 250 303 250 307 q 250 296 250 299 q 269 206 251 247 q 320 140 286 165 q 401 115 354 115 q 467 127 440 115 q 510 154 493 139 q 533 179 526 169 q 553 199 546 196 q 576 203 561 203 l 696 203 q 719 194 710 203 q 726 174 728 186 q 703 119 725 151 q 642 57 682 88 q 541 6 601 26 q 403 -14 481 -14 m 250 424 l 557 424 l 557 428 q 539 523 557 482 q 486 587 521 564 q 403 610 451 610 q 319 587 354 610 q 267 523 285 564 q 250 428 250 482 l 250 424 m 481 853 q 458 861 467 853 q 450 883 450 869 l 450 985 q 458 1008 450 999 q 481 1017 467 1017 l 582 1017 q 605 1008 596 1017 q 614 985 614 999 l 614 883 q 605 861 614 869 q 582 853 596 853 l 481 853 m 219 853 q 197 861 206 853 q 189 883 189 869 l 189 985 q 197 1008 189 999 q 219 1017 206 1017 l 321 1017 q 344 1008 335 1017 q 353 985 353 999 l 353 883 q 344 861 353 869 q 321 853 335 853 l 219 853 z "},"ė":{"ha":801,"x_min":60,"x_max":746,"o":"m 403 -14 q 158 75 249 -14 q 61 328 68 164 q 60 363 60 342 q 61 397 60 385 q 109 578 67 503 q 226 695 151 654 q 403 736 301 736 q 592 690 515 736 q 707 560 668 643 q 746 369 746 478 l 746 340 q 736 317 746 326 q 711 307 726 307 l 250 307 q 250 303 250 307 q 250 296 250 299 q 269 206 251 247 q 320 140 286 165 q 401 115 354 115 q 467 127 440 115 q 510 154 493 139 q 533 179 526 169 q 553 199 546 196 q 576 203 561 203 l 696 203 q 719 194 710 203 q 726 174 728 186 q 703 119 725 151 q 642 57 682 88 q 541 6 601 26 q 403 -14 481 -14 m 250 424 l 557 424 l 557 428 q 539 523 557 482 q 486 587 521 564 q 403 610 451 610 q 319 587 354 610 q 267 523 285 564 q 250 428 250 482 l 250 424 m 344 844 q 322 853 331 844 q 314 875 314 861 l 314 989 q 322 1012 314 1003 q 344 1021 331 1021 l 458 1021 q 481 1012 472 1021 q 490 989 490 1003 l 490 875 q 481 853 490 861 q 458 844 472 844 l 344 844 z "},"è":{"ha":801,"x_min":60,"x_max":746,"o":"m 403 -14 q 158 75 249 -14 q 61 328 68 164 q 60 363 60 342 q 61 397 60 385 q 109 578 67 503 q 226 695 151 654 q 403 736 301 736 q 592 690 515 736 q 707 560 668 643 q 746 369 746 478 l 746 340 q 736 317 746 326 q 711 307 726 307 l 250 307 q 250 303 250 307 q 250 296 250 299 q 269 206 251 247 q 320 140 286 165 q 401 115 354 115 q 467 127 440 115 q 510 154 493 139 q 533 179 526 169 q 553 199 546 196 q 576 203 561 203 l 696 203 q 719 194 710 203 q 726 174 728 186 q 703 119 725 151 q 642 57 682 88 q 541 6 601 26 q 403 -14 481 -14 m 250 424 l 557 424 l 557 428 q 539 523 557 482 q 486 587 521 564 q 403 610 451 610 q 319 587 354 610 q 267 523 285 564 q 250 428 250 482 l 250 424 m 383 826 q 356 831 367 826 q 335 844 346 835 l 161 986 q 154 1003 154 993 q 181 1029 154 1029 l 319 1029 q 348 1024 338 1029 q 371 1004 358 1019 l 485 867 q 492 849 492 860 q 469 826 492 826 l 383 826 z "},"ē":{"ha":801,"x_min":60,"x_max":746,"o":"m 403 -14 q 158 75 249 -14 q 61 328 68 164 q 60 363 60 342 q 61 397 60 385 q 109 578 67 503 q 226 695 151 654 q 403 736 301 736 q 592 690 515 736 q 707 560 668 643 q 746 369 746 478 l 746 340 q 736 317 746 326 q 711 307 726 307 l 250 307 q 250 303 250 307 q 250 296 250 299 q 269 206 251 247 q 320 140 286 165 q 401 115 354 115 q 467 127 440 115 q 510 154 493 139 q 533 179 526 169 q 553 199 546 196 q 576 203 561 203 l 696 203 q 719 194 710 203 q 726 174 728 186 q 703 119 725 151 q 642 57 682 88 q 541 6 601 26 q 403 -14 481 -14 m 250 424 l 557 424 l 557 428 q 539 523 557 482 q 486 587 521 564 q 403 610 451 610 q 319 587 354 610 q 267 523 285 564 q 250 428 250 482 l 250 424 m 226 849 q 204 857 213 849 q 196 879 196 865 l 196 950 q 204 972 196 964 q 226 981 213 981 l 575 981 q 598 972 589 981 q 607 950 607 964 l 607 879 q 598 857 607 865 q 575 849 589 849 l 226 849 z "},"ę":{"ha":803,"x_min":61,"x_max":746,"o":"m 476 -306 q 363 -278 410 -306 q 294 -204 317 -251 q 271 -96 271 -157 q 290 0 271 -39 q 126 113 186 29 q 63 328 67 197 q 61 363 61 342 q 63 396 61 383 q 109 578 67 501 q 226 695 151 654 q 403 736 301 736 q 592 690 517 736 q 707 560 668 643 q 746 369 746 478 l 746 340 q 736 317 746 326 q 713 307 726 307 l 250 307 l 250 296 q 270 206 253 247 q 322 140 288 165 q 403 115 356 115 q 468 127 442 115 q 510 154 494 139 q 533 179 526 169 q 553 199 546 196 q 578 203 561 203 l 697 203 q 719 194 710 203 q 726 174 728 186 q 696 110 725 147 q 613 39 667 72 q 478 -8 558 6 q 414 -36 436 -15 q 392 -96 392 -57 q 415 -163 392 -136 q 482 -190 439 -190 l 500 -190 q 524 -199 514 -190 q 533 -224 533 -208 l 533 -272 q 524 -296 533 -286 q 500 -306 514 -306 l 476 -306 m 250 424 l 557 424 l 557 428 q 539 523 557 482 q 486 587 521 564 q 403 610 451 610 q 319 587 354 610 q 267 523 285 564 q 250 428 250 482 l 250 424 z "},"f":{"ha":575,"x_min":24,"x_max":569,"o":"m 203 0 q 179 10 189 0 q 169 33 169 19 l 169 575 l 57 575 q 33 585 43 575 q 24 610 24 594 l 24 689 q 33 713 24 703 q 57 722 43 722 l 169 722 l 169 779 q 200 917 169 863 q 290 1000 231 972 q 442 1028 350 1028 l 536 1028 q 560 1018 551 1028 q 569 994 569 1008 l 569 915 q 560 890 569 900 q 536 881 551 881 l 447 881 q 371 853 392 881 q 350 772 350 825 l 350 722 l 522 722 q 547 713 538 722 q 556 689 556 703 l 556 610 q 547 585 556 594 q 522 575 538 575 l 350 575 l 350 33 q 340 10 350 19 q 317 0 331 0 l 203 0 z "},"g":{"ha":856,"x_min":63,"x_max":763,"o":"m 418 -306 q 251 -279 317 -306 q 149 -215 186 -253 q 95 -141 111 -178 q 78 -83 79 -104 q 87 -59 76 -69 q 111 -49 97 -49 l 232 -49 q 254 -55 246 -49 q 268 -78 263 -61 q 290 -117 276 -96 q 333 -152 304 -137 q 411 -167 361 -167 q 500 -151 464 -167 q 555 -100 536 -136 q 574 0 574 -64 l 574 94 q 488 29 540 54 q 360 4 436 4 q 231 28 286 4 q 140 97 176 53 q 85 200 104 140 q 64 332 67 260 q 64 407 63 369 q 85 536 67 476 q 140 641 104 596 q 231 711 176 686 q 360 736 286 736 q 493 706 439 736 q 582 632 547 676 l 582 688 q 592 713 582 703 q 615 722 601 722 l 728 722 q 751 713 742 722 q 761 688 761 703 l 763 18 q 725 -154 763 -82 q 612 -266 688 -226 q 418 -306 536 -306 m 411 151 q 503 176 468 151 q 554 242 538 201 q 574 324 571 282 q 575 369 575 342 q 574 414 575 397 q 554 497 571 457 q 503 562 538 536 q 411 588 468 588 q 319 562 354 588 q 270 494 285 536 q 253 403 256 453 q 253 335 250 369 q 270 244 256 286 q 319 176 285 201 q 411 151 354 151 z "},"ğ":{"ha":856,"x_min":63,"x_max":763,"o":"m 418 -306 q 251 -279 317 -306 q 149 -215 186 -253 q 95 -141 111 -178 q 78 -83 79 -104 q 87 -59 76 -69 q 111 -49 97 -49 l 232 -49 q 254 -55 246 -49 q 268 -78 263 -61 q 290 -117 276 -96 q 333 -152 304 -137 q 411 -167 361 -167 q 500 -151 464 -167 q 555 -100 536 -136 q 574 0 574 -64 l 574 94 q 488 29 540 54 q 360 4 436 4 q 231 28 286 4 q 140 97 176 53 q 85 200 104 140 q 64 332 67 260 q 64 407 63 369 q 85 536 67 476 q 140 641 104 596 q 231 711 176 686 q 360 736 286 736 q 493 706 439 736 q 582 632 547 676 l 582 688 q 592 713 582 703 q 615 722 601 722 l 728 722 q 751 713 742 722 q 761 688 761 703 l 763 18 q 725 -154 763 -82 q 612 -266 688 -226 q 418 -306 536 -306 m 411 151 q 503 176 468 151 q 554 242 538 201 q 574 324 571 282 q 575 369 575 342 q 574 414 575 397 q 554 497 571 457 q 503 562 538 536 q 411 588 468 588 q 319 562 354 588 q 270 494 285 536 q 253 403 256 453 q 253 335 250 369 q 270 244 256 286 q 319 176 285 201 q 411 151 354 151 m 414 819 q 306 845 347 819 q 245 913 264 871 q 226 1003 226 954 q 233 1022 226 1014 q 253 1029 240 1029 l 318 1029 q 338 1022 331 1029 q 344 1003 344 1014 q 359 944 344 971 q 414 918 374 918 q 469 944 456 918 q 483 1003 483 971 q 490 1022 483 1014 q 510 1029 497 1029 l 575 1029 q 594 1022 588 1029 q 601 1003 601 1014 q 583 913 601 954 q 523 845 564 871 q 414 819 482 819 z "},"ĝ":{"ha":856,"x_min":63,"x_max":763,"o":"m 418 -306 q 251 -279 317 -306 q 149 -215 186 -253 q 95 -141 111 -178 q 78 -83 79 -104 q 87 -59 76 -69 q 111 -49 97 -49 l 232 -49 q 254 -55 246 -49 q 268 -78 263 -61 q 290 -117 276 -96 q 333 -152 304 -137 q 411 -167 361 -167 q 500 -151 464 -167 q 555 -100 536 -136 q 574 0 574 -64 l 574 94 q 488 29 540 54 q 360 4 436 4 q 231 28 286 4 q 140 97 176 53 q 85 200 104 140 q 64 332 67 260 q 64 407 63 369 q 85 536 67 476 q 140 641 104 596 q 231 711 176 686 q 360 736 286 736 q 493 706 439 736 q 582 632 547 676 l 582 688 q 592 713 582 703 q 615 722 601 722 l 728 722 q 751 713 742 722 q 761 688 761 703 l 763 18 q 725 -154 763 -82 q 612 -266 688 -226 q 418 -306 536 -306 m 411 151 q 503 176 468 151 q 554 242 538 201 q 574 324 571 282 q 575 369 575 342 q 574 414 575 397 q 554 497 571 457 q 503 562 538 536 q 411 588 468 588 q 319 562 354 588 q 270 494 285 536 q 253 403 256 453 q 253 335 250 369 q 270 244 256 286 q 319 176 285 201 q 411 151 354 151 m 201 826 q 181 844 181 826 q 193 868 181 856 l 328 1007 q 353 1026 343 1022 q 375 1029 364 1029 l 451 1029 q 474 1026 464 1029 q 499 1007 485 1022 l 633 868 q 646 844 646 856 q 625 826 646 826 l 575 826 q 552 828 564 826 q 531 836 540 831 l 414 910 l 296 836 q 274 828 286 831 q 253 826 263 826 l 201 826 z "},"ģ":{"ha":856,"x_min":63,"x_max":763,"o":"m 418 -306 q 251 -279 317 -306 q 149 -215 186 -253 q 95 -141 111 -178 q 78 -83 79 -104 q 87 -59 76 -69 q 111 -49 97 -49 l 232 -49 q 254 -55 246 -49 q 268 -78 263 -61 q 290 -117 276 -96 q 333 -152 304 -137 q 411 -167 361 -167 q 500 -151 464 -167 q 555 -100 536 -136 q 574 0 574 -64 l 574 94 q 488 29 540 54 q 360 4 436 4 q 231 28 286 4 q 140 97 176 53 q 85 200 104 140 q 64 332 67 260 q 64 407 63 369 q 85 536 67 476 q 140 641 104 596 q 231 711 176 686 q 360 736 286 736 q 493 706 439 736 q 582 632 547 676 l 582 688 q 592 713 582 703 q 615 722 601 722 l 728 722 q 751 713 742 722 q 761 688 761 703 l 763 18 q 725 -154 763 -82 q 612 -266 688 -226 q 418 -306 536 -306 m 411 151 q 503 176 468 151 q 554 242 538 201 q 574 324 571 282 q 575 369 575 342 q 574 414 575 397 q 554 497 571 457 q 503 562 538 536 q 411 588 468 588 q 319 562 354 588 q 270 494 285 536 q 253 403 256 453 q 253 335 250 369 q 270 244 256 286 q 319 176 285 201 q 411 151 354 151 m 354 826 q 336 834 343 826 q 329 851 329 842 q 333 871 329 861 l 397 1036 q 414 1060 404 1050 q 443 1071 424 1071 l 517 1071 q 536 1063 529 1071 q 542 1042 543 1054 l 515 871 q 503 840 514 853 q 471 826 492 826 l 354 826 z "},"ġ":{"ha":856,"x_min":63,"x_max":763,"o":"m 418 -306 q 251 -279 317 -306 q 149 -215 186 -253 q 95 -141 111 -178 q 78 -83 79 -104 q 87 -59 76 -69 q 111 -49 97 -49 l 232 -49 q 254 -55 246 -49 q 268 -78 263 -61 q 290 -117 276 -96 q 333 -152 304 -137 q 411 -167 361 -167 q 500 -151 464 -167 q 555 -100 536 -136 q 574 0 574 -64 l 574 94 q 488 29 540 54 q 360 4 436 4 q 231 28 286 4 q 140 97 176 53 q 85 200 104 140 q 64 332 67 260 q 64 407 63 369 q 85 536 67 476 q 140 641 104 596 q 231 711 176 686 q 360 736 286 736 q 493 706 439 736 q 582 632 547 676 l 582 688 q 592 713 582 703 q 615 722 601 722 l 728 722 q 751 713 742 722 q 761 688 761 703 l 763 18 q 725 -154 763 -82 q 612 -266 688 -226 q 418 -306 536 -306 m 411 151 q 503 176 468 151 q 554 242 538 201 q 574 324 571 282 q 575 369 575 342 q 574 414 575 397 q 554 497 571 457 q 503 562 538 536 q 411 588 468 588 q 319 562 354 588 q 270 494 285 536 q 253 403 256 453 q 253 335 250 369 q 270 244 256 286 q 319 176 285 201 q 411 151 354 151 m 356 844 q 333 853 342 844 q 325 875 325 861 l 325 989 q 333 1012 325 1003 q 356 1021 342 1021 l 469 1021 q 492 1012 483 1021 q 501 989 501 1003 l 501 875 q 492 853 501 861 q 469 844 483 844 l 356 844 z "},"h":{"ha":874,"x_min":93,"x_max":789,"o":"m 126 0 q 103 10 113 0 q 93 33 93 19 l 93 953 q 103 976 93 967 q 126 986 113 986 l 250 986 q 274 976 265 986 q 283 953 283 967 l 283 636 q 375 708 321 681 q 508 736 429 736 q 656 698 593 736 q 754 590 719 660 q 789 424 789 521 l 789 33 q 779 10 789 19 q 756 0 769 0 l 631 0 q 607 10 617 0 q 597 33 597 19 l 597 415 q 558 542 597 496 q 443 588 518 588 q 327 542 371 588 q 283 415 283 496 l 283 33 q 274 10 283 19 q 250 0 265 0 l 126 0 z "},"ħ":{"ha":874,"x_min":-3,"x_max":789,"o":"m 31 775 q 6 784 15 775 q -3 808 -3 793 l -3 849 q 6 872 -3 863 q 31 882 15 882 l 344 882 q 369 872 360 882 q 378 849 378 863 l 378 808 q 369 784 378 793 q 344 775 360 775 l 31 775 m 126 0 q 103 10 113 0 q 93 33 93 19 l 93 953 q 103 976 93 967 q 126 986 113 986 l 250 986 q 274 976 265 986 q 283 953 283 967 l 283 636 q 375 708 321 681 q 508 736 429 736 q 656 698 593 736 q 754 590 719 660 q 789 424 789 521 l 789 33 q 779 10 789 19 q 756 0 769 0 l 631 0 q 607 10 617 0 q 597 33 597 19 l 597 415 q 558 542 597 496 q 443 588 518 588 q 327 542 371 588 q 283 415 283 496 l 283 33 q 274 10 283 19 q 250 0 265 0 l 126 0 z "},"ĥ":{"ha":874,"x_min":93,"x_max":789,"o":"m 126 0 q 103 10 113 0 q 93 33 93 19 l 93 953 q 103 976 93 967 q 126 986 113 986 l 250 986 q 274 976 265 986 q 283 953 283 967 l 283 636 q 375 708 321 681 q 508 736 429 736 q 656 698 593 736 q 754 590 719 660 q 789 424 789 521 l 789 33 q 779 10 789 19 q 756 0 769 0 l 631 0 q 607 10 617 0 q 597 33 597 19 l 597 415 q 558 542 597 496 q 443 588 518 588 q 327 542 371 588 q 283 415 283 496 l 283 33 q 274 10 283 19 q 250 0 265 0 l 126 0 m 228 1042 q 207 1060 207 1042 q 219 1083 207 1071 l 354 1222 q 380 1241 369 1238 q 401 1244 390 1244 l 478 1244 q 501 1241 490 1244 q 525 1222 511 1238 l 660 1083 q 672 1060 672 1071 q 651 1042 672 1042 l 601 1042 q 578 1044 590 1042 q 557 1051 567 1046 l 440 1125 l 322 1051 q 301 1044 313 1046 q 279 1042 289 1042 l 228 1042 z "},"i":{"ha":367,"x_min":86,"x_max":281,"o":"m 125 0 q 101 10 111 0 q 92 33 92 19 l 92 689 q 101 713 92 703 q 125 722 111 722 l 240 722 q 265 713 256 722 q 274 689 274 703 l 274 33 q 265 10 274 19 q 240 0 256 0 l 125 0 m 119 842 q 96 851 106 842 q 86 875 86 861 l 86 975 q 96 999 86 989 q 119 1008 106 1008 l 246 1008 q 271 999 261 1008 q 281 975 281 989 l 281 875 q 271 851 281 861 q 246 842 261 842 l 119 842 z "},"ı":{"ha":367,"x_min":92,"x_max":274,"o":"m 125 0 q 101 10 111 0 q 92 33 92 19 l 92 689 q 101 713 92 703 q 125 722 111 722 l 240 722 q 265 713 256 722 q 274 689 274 703 l 274 33 q 265 10 274 19 q 240 0 256 0 l 125 0 z "},"í":{"ha":367,"x_min":92,"x_max":439,"o":"m 125 0 q 101 10 111 0 q 92 33 92 19 l 92 689 q 101 713 92 703 q 125 722 111 722 l 240 722 q 265 713 256 722 q 274 689 274 703 l 274 33 q 265 10 274 19 q 240 0 256 0 l 125 0 m 125 826 q 103 849 103 826 q 110 867 103 860 l 222 1004 q 246 1024 236 1019 q 274 1029 256 1029 l 413 1029 q 439 1003 439 1029 q 432 986 439 993 l 260 844 q 238 831 249 835 q 210 826 228 826 l 125 826 z "},"ĭ":{"ha":367,"x_min":-4,"x_max":372,"o":"m 125 0 q 101 10 111 0 q 92 33 92 19 l 92 689 q 101 713 92 703 q 125 722 111 722 l 240 722 q 265 713 256 722 q 274 689 274 703 l 274 33 q 265 10 274 19 q 240 0 256 0 l 125 0 m 183 819 q 75 845 117 819 q 15 913 33 871 q -4 1003 -4 954 q 3 1022 -4 1014 q 22 1029 10 1029 l 88 1029 q 107 1022 100 1029 q 114 1003 114 1014 q 128 944 114 971 q 183 918 143 918 q 239 944 225 918 q 253 1003 253 971 q 260 1022 253 1014 q 279 1029 267 1029 l 344 1029 q 364 1022 357 1029 q 371 1003 371 1014 q 352 913 371 954 q 292 845 333 871 q 183 819 251 819 z "},"î":{"ha":367,"x_min":-49,"x_max":417,"o":"m 125 0 q 101 10 111 0 q 92 33 92 19 l 92 689 q 101 713 92 703 q 125 722 111 722 l 240 722 q 265 713 256 722 q 274 689 274 703 l 274 33 q 265 10 274 19 q 240 0 256 0 l 125 0 m -28 826 q -49 844 -49 826 q -36 868 -49 856 l 99 1007 q 124 1026 114 1022 q 146 1029 135 1029 l 222 1029 q 245 1026 235 1029 q 269 1007 256 1022 l 404 868 q 417 844 417 856 q 396 826 417 826 l 346 826 q 323 828 335 826 q 301 836 311 831 l 185 910 l 67 836 q 45 828 57 831 q 24 826 33 826 l -28 826 z "},"ï":{"ha":367,"x_min":-29,"x_max":396,"o":"m 125 0 q 101 10 111 0 q 92 33 92 19 l 92 689 q 101 713 92 703 q 125 722 111 722 l 240 722 q 265 713 256 722 q 274 689 274 703 l 274 33 q 265 10 274 19 q 240 0 256 0 l 125 0 m 263 853 q 240 861 249 853 q 232 883 232 869 l 232 985 q 240 1008 232 999 q 263 1017 249 1017 l 364 1017 q 387 1008 378 1017 q 396 985 396 999 l 396 883 q 387 861 396 869 q 364 853 378 853 l 263 853 m 1 853 q -21 861 -12 853 q -29 883 -29 869 l -29 985 q -21 1008 -29 999 q 1 1017 -12 1017 l 103 1017 q 126 1008 117 1017 q 135 985 135 999 l 135 883 q 126 861 135 869 q 103 853 117 853 l 1 853 z "},"ì":{"ha":367,"x_min":-64,"x_max":274,"o":"m 125 0 q 101 10 111 0 q 92 33 92 19 l 92 689 q 101 713 92 703 q 125 722 111 722 l 240 722 q 265 713 256 722 q 274 689 274 703 l 274 33 q 265 10 274 19 q 240 0 256 0 l 125 0 m 165 826 q 138 831 149 826 q 117 844 128 835 l -57 986 q -64 1003 -64 993 q -37 1029 -64 1029 l 101 1029 q 130 1024 119 1029 q 153 1004 140 1019 l 267 867 q 274 849 274 860 q 251 826 274 826 l 165 826 z "},"ĳ":{"ha":778,"x_min":86,"x_max":692,"o":"m 125 0 q 101 10 111 0 q 92 33 92 19 l 92 689 q 101 713 92 703 q 125 722 111 722 l 240 722 q 265 713 256 722 q 274 689 274 703 l 274 33 q 265 10 274 19 q 240 0 256 0 l 125 0 m 119 842 q 96 851 106 842 q 86 875 86 861 l 86 975 q 96 999 86 989 q 119 1008 106 1008 l 246 1008 q 271 999 261 1008 q 281 975 281 989 l 281 875 q 271 851 281 861 q 246 842 261 842 l 119 842 m 364 -264 q 340 -254 350 -264 q 331 -231 331 -244 l 331 -150 q 340 -126 331 -136 q 364 -117 350 -117 l 400 -117 q 464 -101 443 -117 q 492 -59 485 -86 q 499 1 499 -32 l 499 689 q 508 713 499 703 q 532 722 518 722 l 653 722 q 676 713 667 722 q 686 689 686 703 l 686 -1 q 656 -142 686 -83 q 567 -232 626 -200 q 417 -264 508 -264 l 364 -264 m 526 842 q 502 851 511 842 q 493 875 493 861 l 493 975 q 502 999 493 989 q 526 1008 511 1008 l 657 1008 q 682 999 672 1008 q 692 975 692 989 l 692 875 q 682 851 692 861 q 657 842 672 842 l 526 842 z "},"ī":{"ha":367,"x_min":-22,"x_max":389,"o":"m 125 0 q 101 10 111 0 q 92 33 92 19 l 92 689 q 101 713 92 703 q 125 722 111 722 l 240 722 q 265 713 256 722 q 274 689 274 703 l 274 33 q 265 10 274 19 q 240 0 256 0 l 125 0 m 8 849 q -14 857 -6 849 q -22 879 -22 865 l -22 950 q -14 972 -22 964 q 8 981 -6 981 l 357 981 q 380 972 371 981 q 389 950 389 964 l 389 879 q 380 857 389 865 q 357 849 371 849 l 8 849 z "},"į":{"ha":383,"x_min":42,"x_max":300,"o":"m 243 -290 q 94 -235 146 -290 q 42 -90 42 -179 q 65 -3 42 -37 q 129 44 89 32 l 125 47 q 114 56 118 50 q 110 68 110 61 l 110 689 q 119 713 110 703 q 143 722 128 722 l 258 722 q 282 713 272 722 q 292 689 292 703 l 292 33 q 282 10 292 19 q 258 0 272 0 l 249 0 q 181 -25 204 0 q 157 -90 157 -50 q 181 -155 157 -131 q 249 -179 204 -179 l 267 -179 q 290 -189 281 -179 q 300 -212 300 -199 l 300 -257 q 290 -281 300 -271 q 267 -290 281 -290 l 243 -290 m 136 842 q 113 851 122 842 q 103 875 103 861 l 103 975 q 113 999 103 989 q 136 1008 122 1008 l 264 1008 q 288 999 278 1008 q 297 975 297 989 l 297 875 q 288 851 297 861 q 264 842 278 842 l 136 842 z "},"ĩ":{"ha":367,"x_min":-31,"x_max":396,"o":"m 125 0 q 101 10 111 0 q 92 33 92 19 l 92 689 q 101 713 92 703 q 125 722 111 722 l 240 722 q 265 713 256 722 q 274 689 274 703 l 274 33 q 265 10 274 19 q 240 0 256 0 l 125 0 m 260 819 q 201 831 224 819 q 160 856 179 843 q 119 868 142 868 q 94 858 101 868 q 79 837 86 847 q 57 826 72 826 l -7 826 q -24 833 -17 826 q -31 850 -31 840 q -23 897 -31 871 q 1 946 -15 922 q 44 984 18 969 q 104 999 69 999 q 164 987 142 999 q 205 963 186 975 q 246 950 224 950 q 272 961 264 950 q 286 983 279 972 q 308 993 293 993 l 372 993 q 390 985 383 993 q 396 968 396 978 q 388 922 396 947 q 364 872 381 896 q 322 834 347 849 q 260 819 296 819 z "},"j":{"ha":388,"x_min":-61,"x_max":300,"o":"m -28 -264 q -51 -254 -42 -264 q -61 -231 -61 -244 l -61 -150 q -51 -126 -61 -136 q -28 -117 -42 -117 l 8 -117 q 72 -101 51 -117 q 100 -59 93 -86 q 107 1 107 -32 l 107 689 q 117 713 107 703 q 140 722 126 722 l 261 722 q 285 713 275 722 q 294 689 294 703 l 294 -1 q 265 -142 294 -83 q 176 -232 235 -200 q 25 -264 117 -264 l -28 -264 m 135 842 q 110 851 119 842 q 101 875 101 861 l 101 975 q 110 999 101 989 q 135 1008 119 1008 l 265 1008 q 290 999 281 1008 q 300 975 300 989 l 300 875 q 290 851 300 861 q 265 842 281 842 l 135 842 z "},"ȷ":{"ha":494,"x_min":21,"x_max":401,"o":"m 54 -264 q 31 -254 40 -264 q 21 -231 21 -244 l 21 -131 q 31 -107 21 -117 q 54 -97 40 -97 l 114 -97 q 178 -82 157 -97 q 206 -40 199 -67 q 213 21 213 -12 l 213 571 l 64 571 q 40 581 50 571 q 31 604 31 590 l 31 689 q 40 713 31 703 q 64 722 50 722 l 368 722 q 392 713 382 722 q 401 689 401 703 l 401 21 q 372 -128 401 -64 q 283 -228 343 -192 q 132 -264 224 -264 l 54 -264 z "},"ĵ":{"ha":494,"x_min":-1,"x_max":464,"o":"m 54 -264 q 31 -254 40 -264 q 21 -231 21 -244 l 21 -131 q 31 -107 21 -117 q 54 -97 40 -97 l 114 -97 q 178 -82 157 -97 q 206 -40 199 -67 q 213 21 213 -12 l 213 571 l 64 571 q 40 581 50 571 q 31 604 31 590 l 31 689 q 40 713 31 703 q 64 722 50 722 l 368 722 q 392 713 382 722 q 401 689 401 703 l 401 21 q 372 -128 401 -64 q 283 -228 343 -192 q 132 -264 224 -264 l 54 -264 m 19 826 q -1 844 -1 826 q 11 868 -1 856 l 146 1007 q 172 1026 161 1022 q 193 1029 182 1029 l 269 1029 q 292 1026 282 1029 q 317 1007 303 1022 l 451 868 q 464 844 464 856 q 443 826 464 826 l 393 826 q 370 828 382 826 q 349 836 358 831 l 232 910 l 114 836 q 92 828 104 831 q 71 826 81 826 l 19 826 z "},"k":{"ha":764,"x_min":93,"x_max":751,"o":"m 126 0 q 103 10 113 0 q 93 33 93 19 l 93 953 q 103 976 93 967 q 126 986 113 986 l 239 986 q 263 976 254 986 q 272 953 272 967 l 272 478 l 506 699 q 528 716 519 710 q 557 722 538 722 l 686 722 q 708 714 700 722 q 717 692 717 706 q 714 679 717 686 q 703 667 711 672 l 417 399 l 738 54 q 751 31 751 40 q 742 8 751 17 q 721 0 733 0 l 589 0 q 559 6 568 0 q 538 24 550 13 l 272 303 l 272 33 q 263 10 272 19 q 239 0 254 0 l 126 0 z "},"ķ":{"ha":764,"x_min":93,"x_max":751,"o":"m 126 0 q 103 10 113 0 q 93 33 93 19 l 93 953 q 103 976 93 967 q 126 986 113 986 l 239 986 q 263 976 254 986 q 272 953 272 967 l 272 478 l 506 699 q 528 716 519 710 q 557 722 538 722 l 686 722 q 708 714 700 722 q 717 692 717 706 q 714 679 717 686 q 703 667 711 672 l 417 399 l 738 54 q 751 31 751 40 q 742 8 751 17 q 721 0 733 0 l 589 0 q 559 6 568 0 q 538 24 550 13 l 272 303 l 272 33 q 263 10 272 19 q 239 0 254 0 l 126 0 m 283 -314 q 265 -306 271 -314 q 258 -285 258 -297 l 285 -114 q 298 -83 288 -96 q 329 -69 308 -69 l 446 -69 q 464 -77 457 -69 q 471 -94 471 -85 q 467 -114 471 -104 l 403 -279 q 388 -303 397 -293 q 357 -314 378 -314 l 283 -314 z "},"ĸ":{"ha":765,"x_min":92,"x_max":750,"o":"m 125 0 q 101 10 111 0 q 92 33 92 19 l 92 689 q 101 713 92 703 q 125 722 111 722 l 239 722 q 263 713 253 722 q 272 689 272 703 l 272 440 l 518 699 q 540 716 531 710 q 568 722 549 722 l 690 722 q 711 714 703 722 q 719 692 719 706 q 717 679 719 686 q 707 667 714 672 l 421 364 l 738 54 q 750 31 750 42 q 742 8 750 17 q 719 0 733 0 l 586 0 q 556 7 565 0 q 535 24 546 14 l 272 281 l 272 33 q 263 10 272 19 q 239 0 253 0 l 125 0 z "},"l":{"ha":368,"x_min":93,"x_max":275,"o":"m 126 0 q 103 10 113 0 q 93 33 93 19 l 93 953 q 103 976 93 967 q 126 986 113 986 l 242 986 q 265 976 256 986 q 275 953 275 967 l 275 33 q 265 10 275 19 q 242 0 256 0 l 126 0 z "},"ĺ":{"ha":368,"x_min":93,"x_max":440,"o":"m 126 0 q 103 10 113 0 q 93 33 93 19 l 93 953 q 103 976 93 967 q 126 986 113 986 l 242 986 q 265 976 256 986 q 275 953 275 967 l 275 33 q 265 10 275 19 q 242 0 256 0 l 126 0 m 125 1043 q 103 1065 103 1043 q 110 1083 103 1076 l 222 1221 q 246 1241 236 1236 q 274 1246 256 1246 l 413 1246 q 439 1219 439 1246 q 432 1203 439 1210 l 260 1061 q 238 1047 249 1051 q 210 1043 228 1043 l 125 1043 z "},"ľ":{"ha":461,"x_min":93,"x_max":560,"o":"m 126 0 q 103 10 113 0 q 93 33 93 19 l 93 953 q 103 976 93 967 q 126 986 113 986 l 242 986 q 265 976 256 986 q 275 953 275 967 l 275 33 q 265 10 275 19 q 242 0 256 0 l 126 0 m 372 742 q 353 750 360 742 q 347 771 347 758 l 374 942 q 387 973 376 960 q 418 986 397 986 l 535 986 q 553 978 546 986 q 560 961 560 971 q 556 942 560 951 l 492 776 q 476 752 486 763 q 446 742 467 742 l 372 742 z "},"ļ":{"ha":368,"x_min":60,"x_max":275,"o":"m 126 0 q 103 10 113 0 q 93 33 93 19 l 93 953 q 103 976 93 967 q 126 986 113 986 l 242 986 q 265 976 256 986 q 275 953 275 967 l 275 33 q 265 10 275 19 q 242 0 256 0 l 126 0 m 85 -314 q 66 -306 72 -314 q 60 -285 60 -297 l 86 -114 q 99 -83 89 -96 q 131 -69 110 -69 l 247 -69 q 265 -77 258 -69 q 272 -94 272 -85 q 268 -114 272 -104 l 204 -279 q 189 -303 199 -293 q 158 -314 179 -314 l 85 -314 z "},"ŀ":{"ha":518,"x_min":93,"x_max":531,"o":"m 126 0 q 103 10 113 0 q 93 33 93 19 l 93 953 q 103 976 93 967 q 126 986 113 986 l 242 986 q 265 976 256 986 q 275 953 275 967 l 275 33 q 265 10 275 19 q 242 0 256 0 l 126 0 m 386 413 q 364 421 372 413 q 356 443 356 429 l 356 557 q 364 580 356 571 q 386 589 372 589 l 500 589 q 523 580 514 589 q 532 557 532 571 l 532 443 q 523 421 532 429 q 500 413 514 413 l 386 413 z "},"ł":{"ha":429,"x_min":33,"x_max":399,"o":"m 158 0 q 135 10 144 0 q 125 33 125 19 l 125 392 l 78 374 q 61 369 68 369 q 41 376 49 369 q 33 396 33 383 l 33 472 q 40 499 33 490 q 64 513 47 507 l 125 535 l 125 953 q 135 976 125 967 q 158 986 144 986 l 274 986 q 297 976 288 986 q 307 953 307 967 l 307 606 l 354 624 q 371 628 365 628 q 390 621 382 628 q 399 601 399 614 l 399 525 q 392 500 399 508 q 368 485 385 492 l 307 461 l 307 33 q 297 10 307 19 q 274 0 288 0 l 158 0 z "},"m":{"ha":1253,"x_min":92,"x_max":1168,"o":"m 125 0 q 101 10 111 0 q 92 33 92 19 l 92 689 q 101 713 92 703 q 125 722 111 722 l 233 722 q 257 713 247 722 q 267 689 267 703 l 267 642 q 345 708 296 681 q 463 736 394 735 q 683 613 621 739 q 776 702 715 668 q 910 736 836 736 q 1041 703 982 736 q 1134 602 1100 669 q 1168 432 1168 535 l 1168 33 q 1158 10 1168 19 q 1135 0 1149 0 l 1021 0 q 997 10 1007 0 q 988 33 988 19 l 988 421 q 969 520 988 483 q 921 572 951 557 q 853 588 890 588 q 792 572 822 588 q 742 520 761 557 q 722 421 722 483 l 722 33 q 713 10 722 19 q 689 0 703 0 l 575 0 q 551 10 561 0 q 542 33 542 19 l 542 421 q 522 520 542 483 q 472 572 503 557 q 407 588 442 588 q 344 572 375 588 q 294 519 314 556 q 275 421 275 483 l 275 33 q 265 10 275 19 q 242 0 256 0 l 125 0 z "},"n":{"ha":867,"x_min":92,"x_max":782,"o":"m 125 0 q 101 10 111 0 q 92 33 92 19 l 92 689 q 101 713 92 703 q 125 722 111 722 l 239 722 q 263 713 253 722 q 272 689 272 703 l 272 632 q 365 706 308 676 q 504 736 421 736 q 651 698 589 736 q 748 590 714 660 q 782 424 782 521 l 782 33 q 772 10 782 19 q 749 0 763 0 l 626 0 q 603 10 613 0 q 593 33 593 19 l 593 415 q 553 542 593 496 q 439 588 514 588 q 324 542 367 588 q 281 415 281 496 l 281 33 q 271 10 281 19 q 247 0 261 0 l 125 0 z "},"ń":{"ha":867,"x_min":92,"x_max":782,"o":"m 125 0 q 101 10 111 0 q 92 33 92 19 l 92 689 q 101 713 92 703 q 125 722 111 722 l 239 722 q 263 713 253 722 q 272 689 272 703 l 272 632 q 365 706 308 676 q 504 736 421 736 q 651 698 589 736 q 748 590 714 660 q 782 424 782 521 l 782 33 q 772 10 782 19 q 749 0 763 0 l 626 0 q 603 10 613 0 q 593 33 593 19 l 593 415 q 553 542 593 496 q 439 588 514 588 q 324 542 367 588 q 281 415 281 496 l 281 33 q 271 10 281 19 q 247 0 261 0 l 125 0 m 378 826 q 356 849 356 826 q 363 867 356 860 l 475 1004 q 499 1024 489 1019 q 526 1029 508 1029 l 665 1029 q 692 1003 692 1029 q 685 986 692 993 l 513 844 q 491 831 501 835 q 463 826 481 826 l 378 826 z "},"ŉ":{"ha":867,"x_min":-57,"x_max":782,"o":"m -32 790 q -50 799 -43 790 q -56 819 -57 807 l -29 990 q -16 1022 -26 1008 q 15 1035 -6 1035 l 132 1035 q 149 1027 142 1035 q 156 1010 156 1019 q 153 990 156 1000 l 89 825 q 73 801 83 811 q 43 790 63 790 l -32 790 m 125 0 q 101 10 111 0 q 92 33 92 19 l 92 689 q 101 713 92 703 q 125 722 111 722 l 239 722 q 263 713 253 722 q 272 689 272 703 l 272 632 q 365 706 308 676 q 504 736 421 736 q 651 698 589 736 q 748 590 714 660 q 782 424 782 521 l 782 33 q 772 10 782 19 q 749 0 763 0 l 626 0 q 603 10 613 0 q 593 33 593 19 l 593 415 q 553 542 593 496 q 439 588 514 588 q 324 542 367 588 q 281 415 281 496 l 281 33 q 271 10 281 19 q 247 0 261 0 l 125 0 z "},"ň":{"ha":867,"x_min":92,"x_max":782,"o":"m 125 0 q 101 10 111 0 q 92 33 92 19 l 92 689 q 101 713 92 703 q 125 722 111 722 l 239 722 q 263 713 253 722 q 272 689 272 703 l 272 632 q 365 706 308 676 q 504 736 421 736 q 651 698 589 736 q 748 590 714 660 q 782 424 782 521 l 782 33 q 772 10 782 19 q 749 0 763 0 l 626 0 q 603 10 613 0 q 593 33 593 19 l 593 415 q 553 542 593 496 q 439 588 514 588 q 324 542 367 588 q 281 415 281 496 l 281 33 q 271 10 281 19 q 247 0 261 0 l 125 0 m 399 826 q 377 831 388 826 q 351 849 367 835 l 217 988 q 204 1011 204 1000 q 225 1029 204 1029 l 276 1029 q 298 1027 286 1029 q 319 1019 310 1025 l 438 947 l 554 1019 q 576 1027 564 1025 q 599 1029 588 1029 l 649 1029 q 669 1011 669 1029 q 657 988 669 1000 l 522 849 q 498 831 508 835 q 475 826 488 826 l 399 826 z "},"ņ":{"ha":867,"x_min":92,"x_max":782,"o":"m 125 0 q 101 10 111 0 q 92 33 92 19 l 92 689 q 101 713 92 703 q 125 722 111 722 l 239 722 q 263 713 253 722 q 272 689 272 703 l 272 632 q 365 706 308 676 q 504 736 421 736 q 651 698 589 736 q 748 590 714 660 q 782 424 782 521 l 782 33 q 772 10 782 19 q 749 0 763 0 l 626 0 q 603 10 613 0 q 593 33 593 19 l 593 415 q 553 542 593 496 q 439 588 514 588 q 324 542 367 588 q 281 415 281 496 l 281 33 q 271 10 281 19 q 247 0 261 0 l 125 0 m 339 -314 q 320 -306 326 -314 q 314 -285 314 -297 l 340 -114 q 353 -83 343 -96 q 385 -69 364 -69 l 501 -69 q 519 -77 513 -69 q 526 -94 526 -85 q 522 -114 526 -104 l 458 -279 q 443 -303 453 -293 q 413 -314 433 -314 l 339 -314 z "},"ñ":{"ha":867,"x_min":92,"x_max":782,"o":"m 125 0 q 101 10 111 0 q 92 33 92 19 l 92 689 q 101 713 92 703 q 125 722 111 722 l 239 722 q 263 713 253 722 q 272 689 272 703 l 272 632 q 365 706 308 676 q 504 736 421 736 q 651 698 589 736 q 748 590 714 660 q 782 424 782 521 l 782 33 q 772 10 782 19 q 749 0 763 0 l 626 0 q 603 10 613 0 q 593 33 593 19 l 593 415 q 553 542 593 496 q 439 588 514 588 q 324 542 367 588 q 281 415 281 496 l 281 33 q 271 10 281 19 q 247 0 261 0 l 125 0 m 513 819 q 454 831 476 819 q 413 856 432 843 q 372 868 394 868 q 347 858 354 868 q 332 837 339 847 q 310 826 325 826 l 246 826 q 229 833 236 826 q 222 850 222 840 q 230 897 222 871 q 254 946 238 922 q 297 984 271 969 q 357 999 322 999 q 417 987 394 999 q 458 963 439 975 q 499 950 476 950 q 524 961 517 950 q 539 983 532 972 q 561 993 546 993 l 625 993 q 642 985 636 993 q 649 968 649 978 q 641 922 649 947 q 617 872 633 896 q 574 834 600 849 q 513 819 549 819 z "},"ŋ":{"ha":867,"x_min":92,"x_max":782,"o":"m 456 -312 q 432 -303 442 -312 q 422 -279 422 -293 l 422 -183 q 432 -160 422 -169 q 456 -150 442 -150 l 481 -150 q 551 -133 528 -150 q 584 -86 575 -117 q 593 -14 593 -56 l 593 415 q 553 542 593 496 q 439 588 514 588 q 324 542 367 588 q 281 415 281 496 l 281 33 q 271 10 281 19 q 247 0 261 0 l 125 0 q 101 10 111 0 q 92 33 92 19 l 92 689 q 101 713 92 703 q 125 722 111 722 l 239 722 q 263 713 253 722 q 272 689 272 703 l 272 632 q 365 706 308 676 q 504 736 421 736 q 651 698 589 736 q 748 590 714 660 q 782 424 782 521 l 782 -19 q 747 -178 782 -112 q 644 -278 713 -243 q 475 -312 576 -312 l 456 -312 z "},"o":{"ha":822,"x_min":63,"x_max":760,"o":"m 411 -14 q 224 25 300 -14 q 109 135 149 64 q 64 300 69 206 q 63 361 63 325 q 64 422 63 397 q 110 588 69 518 q 227 697 151 658 q 411 736 303 736 q 595 697 519 736 q 712 588 671 658 q 758 422 753 518 q 760 361 760 397 q 758 300 760 325 q 713 135 753 206 q 598 25 674 64 q 411 -14 522 -14 m 411 124 q 525 170 485 124 q 569 307 565 217 q 571 361 571 328 q 569 415 571 394 q 525 552 565 506 q 411 599 485 599 q 297 552 338 599 q 253 415 257 506 q 251 361 251 394 q 253 307 251 328 q 297 170 257 217 q 411 124 338 124 z "},"ó":{"ha":822,"x_min":63,"x_max":760,"o":"m 411 -14 q 224 25 300 -14 q 109 135 149 64 q 64 300 69 206 q 63 361 63 325 q 64 422 63 397 q 110 588 69 518 q 227 697 151 658 q 411 736 303 736 q 595 697 519 736 q 712 588 671 658 q 758 422 753 518 q 760 361 760 397 q 758 300 760 325 q 713 135 753 206 q 598 25 674 64 q 411 -14 522 -14 m 411 124 q 525 170 485 124 q 569 307 565 217 q 571 361 571 328 q 569 415 571 394 q 525 552 565 506 q 411 599 485 599 q 297 552 338 599 q 253 415 257 506 q 251 361 251 394 q 253 307 251 328 q 297 170 257 217 q 411 124 338 124 m 351 826 q 329 849 329 826 q 336 867 329 860 l 449 1004 q 472 1024 463 1019 q 500 1029 482 1029 l 639 1029 q 665 1003 665 1029 q 658 986 665 993 l 486 844 q 465 831 475 835 q 436 826 454 826 l 351 826 z "},"ŏ":{"ha":822,"x_min":63,"x_max":760,"o":"m 411 -14 q 224 25 300 -14 q 109 135 149 64 q 64 300 69 206 q 63 361 63 325 q 64 422 63 397 q 110 588 69 518 q 227 697 151 658 q 411 736 303 736 q 595 697 519 736 q 712 588 671 658 q 758 422 753 518 q 760 361 760 397 q 758 300 760 325 q 713 135 753 206 q 598 25 674 64 q 411 -14 522 -14 m 411 124 q 525 170 485 124 q 569 307 565 217 q 571 361 571 328 q 569 415 571 394 q 525 552 565 506 q 411 599 485 599 q 297 552 338 599 q 253 415 257 506 q 251 361 251 394 q 253 307 251 328 q 297 170 257 217 q 411 124 338 124 m 411 819 q 303 845 344 819 q 242 913 261 871 q 224 1003 224 954 q 231 1022 224 1014 q 250 1029 238 1029 l 315 1029 q 335 1022 328 1029 q 342 1003 342 1014 q 356 944 342 971 q 411 918 371 918 q 467 944 453 918 q 481 1003 481 971 q 488 1022 481 1014 q 507 1029 494 1029 l 572 1029 q 592 1022 585 1029 q 599 1003 599 1014 q 580 913 599 954 q 520 845 561 871 q 411 819 479 819 z "},"ô":{"ha":822,"x_min":63,"x_max":760,"o":"m 411 -14 q 224 25 300 -14 q 109 135 149 64 q 64 300 69 206 q 63 361 63 325 q 64 422 63 397 q 110 588 69 518 q 227 697 151 658 q 411 736 303 736 q 595 697 519 736 q 712 588 671 658 q 758 422 753 518 q 760 361 760 397 q 758 300 760 325 q 713 135 753 206 q 598 25 674 64 q 411 -14 522 -14 m 411 124 q 525 170 485 124 q 569 307 565 217 q 571 361 571 328 q 569 415 571 394 q 525 552 565 506 q 411 599 485 599 q 297 552 338 599 q 253 415 257 506 q 251 361 251 394 q 253 307 251 328 q 297 170 257 217 q 411 124 338 124 m 200 826 q 179 844 179 826 q 192 868 179 856 l 326 1007 q 352 1026 342 1022 q 374 1029 363 1029 l 450 1029 q 473 1026 463 1029 q 497 1007 483 1022 l 632 868 q 644 844 644 856 q 624 826 644 826 l 574 826 q 551 828 563 826 q 529 836 539 831 l 413 910 l 294 836 q 273 828 285 831 q 251 826 261 826 l 200 826 z "},"ö":{"ha":822,"x_min":63,"x_max":760,"o":"m 411 -14 q 224 25 300 -14 q 109 135 149 64 q 64 300 69 206 q 63 361 63 325 q 64 422 63 397 q 110 588 69 518 q 227 697 151 658 q 411 736 303 736 q 595 697 519 736 q 712 588 671 658 q 758 422 753 518 q 760 361 760 397 q 758 300 760 325 q 713 135 753 206 q 598 25 674 64 q 411 -14 522 -14 m 411 124 q 525 170 485 124 q 569 307 565 217 q 571 361 571 328 q 569 415 571 394 q 525 552 565 506 q 411 599 485 599 q 297 552 338 599 q 253 415 257 506 q 251 361 251 394 q 253 307 251 328 q 297 170 257 217 q 411 124 338 124 m 490 853 q 468 861 476 853 q 460 883 460 869 l 460 985 q 468 1008 460 999 q 490 1017 476 1017 l 592 1017 q 615 1008 606 1017 q 624 985 624 999 l 624 883 q 615 861 624 869 q 592 853 606 853 l 490 853 m 229 853 q 207 861 215 853 q 199 883 199 869 l 199 985 q 207 1008 199 999 q 229 1017 215 1017 l 331 1017 q 353 1008 344 1017 q 363 985 363 999 l 363 883 q 353 861 363 869 q 331 853 344 853 l 229 853 z "},"ò":{"ha":822,"x_min":63,"x_max":760,"o":"m 411 -14 q 224 25 300 -14 q 109 135 149 64 q 64 300 69 206 q 63 361 63 325 q 64 422 63 397 q 110 588 69 518 q 227 697 151 658 q 411 736 303 736 q 595 697 519 736 q 712 588 671 658 q 758 422 753 518 q 760 361 760 397 q 758 300 760 325 q 713 135 753 206 q 598 25 674 64 q 411 -14 522 -14 m 411 124 q 525 170 485 124 q 569 307 565 217 q 571 361 571 328 q 569 415 571 394 q 525 552 565 506 q 411 599 485 599 q 297 552 338 599 q 253 415 257 506 q 251 361 251 394 q 253 307 251 328 q 297 170 257 217 q 411 124 338 124 m 393 826 q 366 831 376 826 q 344 844 356 835 l 171 986 q 164 1003 164 993 q 190 1029 164 1029 l 329 1029 q 358 1024 347 1029 q 381 1004 368 1019 l 494 867 q 501 849 501 860 q 479 826 501 826 l 393 826 z "},"ő":{"ha":822,"x_min":63,"x_max":760,"o":"m 411 -14 q 224 25 300 -14 q 109 135 149 64 q 64 300 69 206 q 63 361 63 325 q 64 422 63 397 q 110 588 69 518 q 227 697 151 658 q 411 736 303 736 q 595 697 519 736 q 712 588 671 658 q 758 422 753 518 q 760 361 760 397 q 758 300 760 325 q 713 135 753 206 q 598 25 674 64 q 411 -14 522 -14 m 411 124 q 525 170 485 124 q 569 307 565 217 q 571 361 571 328 q 569 415 571 394 q 525 552 565 506 q 411 599 485 599 q 297 552 338 599 q 253 415 257 506 q 251 361 251 394 q 253 307 251 328 q 297 170 257 217 q 411 124 338 124 m 492 826 q 469 849 469 826 q 472 860 469 854 q 476 869 475 865 l 536 1003 q 588 1029 549 1029 l 699 1029 q 726 1003 726 1029 q 718 985 726 993 l 596 846 q 551 826 579 826 l 492 826 m 229 826 q 207 849 207 826 q 210 860 207 854 q 214 869 213 865 l 274 1003 q 325 1029 286 1029 l 438 1029 q 465 1003 465 1029 q 457 985 465 993 l 333 846 q 289 826 317 826 l 229 826 z "},"ō":{"ha":822,"x_min":63,"x_max":760,"o":"m 411 -14 q 224 25 300 -14 q 109 135 149 64 q 64 300 69 206 q 63 361 63 325 q 64 422 63 397 q 110 588 69 518 q 227 697 151 658 q 411 736 303 736 q 595 697 519 736 q 712 588 671 658 q 758 422 753 518 q 760 361 760 397 q 758 300 760 325 q 713 135 753 206 q 598 25 674 64 q 411 -14 522 -14 m 411 124 q 525 170 485 124 q 569 307 565 217 q 571 361 571 328 q 569 415 571 394 q 525 552 565 506 q 411 599 485 599 q 297 552 338 599 q 253 415 257 506 q 251 361 251 394 q 253 307 251 328 q 297 170 257 217 q 411 124 338 124 m 236 849 q 214 857 222 849 q 206 879 206 865 l 206 950 q 214 972 206 964 q 236 981 222 981 l 585 981 q 608 972 599 981 q 617 950 617 964 l 617 879 q 608 857 617 865 q 585 849 599 849 l 236 849 z "},"ø":{"ha":822,"x_min":63,"x_max":760,"o":"m 411 -14 q 224 25 300 -14 q 109 135 149 64 q 64 300 69 206 q 63 361 63 325 q 64 422 63 397 q 110 588 69 518 q 227 697 151 658 q 411 736 303 736 q 595 697 519 736 q 712 588 671 658 q 758 422 753 518 q 760 361 760 397 q 758 300 760 325 q 713 135 753 206 q 598 25 674 64 q 411 -14 522 -14 m 411 124 q 525 170 485 124 q 569 307 565 217 q 571 361 571 328 q 569 415 571 394 q 525 552 565 506 q 411 599 485 599 q 297 552 338 599 q 253 415 257 506 q 251 361 251 394 q 253 307 251 328 q 297 170 257 217 q 411 124 338 124 m 96 -39 q 76 -31 85 -39 q 68 -11 68 -22 q 69 -3 68 -7 q 74 8 69 1 l 657 739 q 668 752 661 744 q 689 760 675 760 l 725 760 q 744 751 736 760 q 753 732 753 743 q 752 725 753 731 q 747 713 751 719 l 164 -18 q 153 -31 160 -24 q 132 -39 146 -39 l 96 -39 z "},"ǿ":{"ha":822,"x_min":63,"x_max":760,"o":"m 411 -14 q 224 25 300 -14 q 109 135 149 64 q 64 300 69 206 q 63 361 63 325 q 64 422 63 397 q 110 588 69 518 q 227 697 151 658 q 411 736 303 736 q 595 697 519 736 q 712 588 671 658 q 758 422 753 518 q 760 361 760 397 q 758 300 760 325 q 713 135 753 206 q 598 25 674 64 q 411 -14 522 -14 m 411 124 q 525 170 485 124 q 569 307 565 217 q 571 361 571 328 q 569 415 571 394 q 525 552 565 506 q 411 599 485 599 q 297 552 338 599 q 253 415 257 506 q 251 361 251 394 q 253 307 251 328 q 297 170 257 217 q 411 124 338 124 m 96 -39 q 76 -31 85 -39 q 68 -11 68 -22 q 69 -3 68 -7 q 74 8 69 1 l 657 739 q 668 752 661 744 q 689 760 675 760 l 725 760 q 744 751 736 760 q 753 732 753 743 q 752 725 753 731 q 747 713 751 719 l 164 -18 q 153 -31 160 -24 q 132 -39 146 -39 l 96 -39 m 351 826 q 329 849 329 826 q 336 867 329 860 l 449 1004 q 472 1024 463 1019 q 500 1029 482 1029 l 639 1029 q 665 1003 665 1029 q 658 986 665 993 l 486 844 q 465 831 475 835 q 436 826 454 826 l 351 826 z "},"õ":{"ha":822,"x_min":63,"x_max":760,"o":"m 411 -14 q 224 25 300 -14 q 109 135 149 64 q 64 300 69 206 q 63 361 63 325 q 64 422 63 397 q 110 588 69 518 q 227 697 151 658 q 411 736 303 736 q 595 697 519 736 q 712 588 671 658 q 758 422 753 518 q 760 361 760 397 q 758 300 760 325 q 713 135 753 206 q 598 25 674 64 q 411 -14 522 -14 m 411 124 q 525 170 485 124 q 569 307 565 217 q 571 361 571 328 q 569 415 571 394 q 525 552 565 506 q 411 599 485 599 q 297 552 338 599 q 253 415 257 506 q 251 361 251 394 q 253 307 251 328 q 297 170 257 217 q 411 124 338 124 m 488 819 q 429 831 451 819 q 388 856 407 843 q 347 868 369 868 q 322 858 329 868 q 307 837 314 847 q 285 826 300 826 l 221 826 q 204 833 211 826 q 197 850 197 840 q 205 897 197 871 q 229 946 213 922 q 272 984 246 969 q 332 999 297 999 q 392 987 369 999 q 433 963 414 975 q 474 950 451 950 q 499 961 492 950 q 514 983 507 972 q 536 993 521 993 l 600 993 q 617 985 611 993 q 624 968 624 978 q 616 922 624 947 q 592 872 608 896 q 549 834 575 849 q 488 819 524 819 z "},"œ":{"ha":1311,"x_min":64,"x_max":1257,"o":"m 413 -14 q 226 25 301 -14 q 110 135 150 64 q 65 300 69 206 q 64 361 64 325 q 65 422 64 397 q 111 588 69 518 q 228 697 153 658 q 413 736 304 736 q 565 706 500 736 q 669 624 629 675 q 772 706 711 676 q 914 736 833 736 q 1103 690 1028 736 q 1218 560 1179 643 q 1257 369 1257 478 l 1257 340 q 1247 317 1257 326 q 1224 307 1238 307 l 761 307 l 761 296 q 781 206 763 247 q 833 140 799 165 q 914 115 867 115 q 976 127 950 115 q 1017 154 1001 139 q 1040 179 1033 169 q 1060 199 1053 196 q 1085 203 1068 203 l 1204 203 q 1226 194 1217 203 q 1233 174 1235 186 q 1211 119 1232 151 q 1150 57 1190 88 q 1051 6 1110 26 q 915 -14 992 -14 q 772 15 835 -14 q 668 96 710 44 q 565 15 629 44 q 413 -14 501 -14 m 413 124 q 526 170 486 124 q 571 307 567 217 q 572 361 572 328 q 571 415 572 394 q 526 552 567 506 q 413 599 486 599 q 298 552 339 599 q 254 415 257 506 q 253 361 253 394 q 254 307 253 328 q 298 170 257 217 q 413 124 339 124 m 761 424 l 1069 424 l 1069 428 q 1051 523 1069 482 q 997 587 1032 564 q 914 610 963 610 q 831 587 865 610 q 779 523 797 564 q 761 428 761 482 l 761 424 z "},"p":{"ha":853,"x_min":93,"x_max":789,"o":"m 126 -264 q 103 -254 113 -264 q 93 -231 93 -244 l 93 689 q 103 713 93 703 q 126 722 113 722 l 236 722 q 260 713 251 722 q 269 689 269 703 l 269 633 q 357 707 303 678 q 492 736 411 736 q 619 713 565 736 q 710 645 674 689 q 765 542 746 601 q 788 410 785 482 q 789 361 789 386 q 788 311 789 336 q 767 183 786 242 q 710 80 747 124 q 619 11 674 36 q 492 -14 565 -14 q 364 13 417 -14 q 278 85 311 40 l 278 -231 q 269 -254 278 -244 q 244 -264 260 -264 l 126 -264 m 440 135 q 533 160 500 135 q 582 228 567 186 q 600 319 597 269 q 600 403 601 361 q 582 494 597 453 q 533 562 567 536 q 440 588 500 588 q 348 561 383 588 q 297 494 313 535 q 278 410 281 453 q 276 357 276 385 q 278 303 276 329 q 297 223 279 261 q 350 160 315 185 q 440 135 385 135 z "},"þ":{"ha":853,"x_min":93,"x_max":790,"o":"m 126 -264 q 103 -254 113 -264 q 93 -231 93 -244 l 93 953 q 103 976 93 967 q 126 986 113 986 l 246 986 q 269 976 260 986 q 279 953 279 967 l 279 639 q 363 710 313 683 q 492 736 413 736 q 619 713 565 736 q 710 645 674 689 q 767 542 747 601 q 789 410 786 482 q 790 361 790 386 q 789 311 790 336 q 767 183 786 242 q 710 80 747 124 q 619 11 674 36 q 492 -14 565 -14 q 365 13 418 -14 q 279 85 313 40 l 279 -231 q 269 -254 279 -244 q 246 -264 260 -264 l 126 -264 m 440 135 q 533 160 500 135 q 582 228 567 186 q 600 319 597 269 q 600 403 603 361 q 582 494 597 453 q 533 562 567 536 q 440 588 500 588 q 349 561 383 588 q 297 494 314 535 q 279 410 281 453 q 278 357 278 385 q 279 303 278 329 q 298 223 281 261 q 351 160 315 185 q 440 135 386 135 z "},"q":{"ha":853,"x_min":63,"x_max":760,"o":"m 607 -264 q 583 -254 593 -264 q 574 -231 574 -244 l 574 85 q 488 13 540 40 q 360 -14 435 -14 q 234 11 289 -14 q 142 80 179 36 q 86 183 106 124 q 64 311 67 242 q 63 361 63 336 q 64 410 63 386 q 87 542 68 482 q 142 645 106 601 q 234 713 179 689 q 360 736 289 736 q 495 707 440 736 q 582 633 550 678 l 582 689 q 592 713 582 703 q 615 722 601 722 l 726 722 q 750 713 740 722 q 760 689 760 703 l 760 -231 q 750 -254 760 -244 q 726 -264 740 -264 l 607 -264 m 413 135 q 503 160 468 135 q 555 223 538 185 q 574 303 572 261 q 576 357 576 329 q 574 410 576 385 q 556 494 572 453 q 504 561 539 535 q 413 588 469 588 q 319 562 354 588 q 270 494 285 536 q 253 403 256 453 q 253 319 250 361 q 270 228 256 269 q 319 160 285 186 q 413 135 354 135 z "},"r":{"ha":579,"x_min":92,"x_max":563,"o":"m 125 0 q 101 10 111 0 q 92 33 92 19 l 92 688 q 101 713 92 703 q 125 722 111 722 l 238 722 q 262 713 251 722 q 272 688 272 703 l 272 631 q 355 699 304 675 q 472 722 406 722 l 529 722 q 553 713 544 722 q 563 689 563 703 l 563 589 q 553 565 563 575 q 529 556 544 556 l 421 556 q 317 519 354 556 q 281 415 281 482 l 281 33 q 271 10 281 19 q 246 0 261 0 l 125 0 z "},"ŕ":{"ha":579,"x_min":92,"x_max":569,"o":"m 125 0 q 101 10 111 0 q 92 33 92 19 l 92 688 q 101 713 92 703 q 125 722 111 722 l 238 722 q 262 713 251 722 q 272 688 272 703 l 272 631 q 355 699 304 675 q 472 722 406 722 l 529 722 q 553 713 544 722 q 563 689 563 703 l 563 589 q 553 565 563 575 q 529 556 544 556 l 421 556 q 317 519 354 556 q 281 415 281 482 l 281 33 q 271 10 281 19 q 246 0 261 0 l 125 0 m 254 826 q 232 849 232 826 q 239 867 232 860 l 351 1004 q 375 1024 365 1019 q 403 1029 385 1029 l 542 1029 q 568 1003 568 1029 q 561 986 568 993 l 389 844 q 367 831 378 835 q 339 826 357 826 l 254 826 z "},"ř":{"ha":579,"x_min":81,"x_max":563,"o":"m 125 0 q 101 10 111 0 q 92 33 92 19 l 92 688 q 101 713 92 703 q 125 722 111 722 l 238 722 q 262 713 251 722 q 272 688 272 703 l 272 631 q 355 699 304 675 q 472 722 406 722 l 529 722 q 553 713 544 722 q 563 689 563 703 l 563 589 q 553 565 563 575 q 529 556 544 556 l 421 556 q 317 519 354 556 q 281 415 281 482 l 281 33 q 271 10 281 19 q 246 0 261 0 l 125 0 m 275 826 q 253 831 264 826 q 228 849 243 835 l 93 988 q 81 1011 81 1000 q 101 1029 81 1029 l 153 1029 q 174 1027 163 1029 q 196 1019 186 1025 l 314 947 l 431 1019 q 452 1027 440 1025 q 475 1029 464 1029 l 525 1029 q 546 1011 546 1029 q 533 988 546 1000 l 399 849 q 374 831 385 835 q 351 826 364 826 l 275 826 z "},"ŗ":{"ha":579,"x_min":60,"x_max":563,"o":"m 125 0 q 101 10 111 0 q 92 33 92 19 l 92 688 q 101 713 92 703 q 125 722 111 722 l 238 722 q 262 713 251 722 q 272 688 272 703 l 272 631 q 355 699 304 675 q 472 722 406 722 l 529 722 q 553 713 544 722 q 563 689 563 703 l 563 589 q 553 565 563 575 q 529 556 544 556 l 421 556 q 317 519 354 556 q 281 415 281 482 l 281 33 q 271 10 281 19 q 246 0 261 0 l 125 0 m 85 -314 q 66 -306 72 -314 q 60 -285 60 -297 l 86 -114 q 99 -83 89 -96 q 131 -69 110 -69 l 247 -69 q 265 -77 258 -69 q 272 -94 272 -85 q 268 -114 272 -104 l 204 -279 q 189 -303 199 -293 q 158 -314 179 -314 l 85 -314 z "},"s":{"ha":739,"x_min":50,"x_max":688,"o":"m 365 -14 q 223 6 282 -14 q 126 54 164 25 q 71 113 89 83 q 51 161 53 142 q 60 185 50 176 q 83 194 71 194 l 193 194 q 203 193 199 194 q 214 185 207 192 q 252 153 232 169 q 300 124 272 136 q 369 113 328 113 q 460 134 424 113 q 497 196 497 156 q 481 243 497 225 q 422 276 465 261 q 300 307 379 290 q 171 353 222 325 q 94 422 119 381 q 69 519 69 464 q 102 623 69 574 q 199 704 135 672 q 360 736 264 736 q 490 717 435 736 q 583 671 546 699 q 639 615 619 643 q 660 565 658 586 q 651 541 661 550 q 629 532 642 532 l 526 532 q 514 535 519 532 q 503 542 508 538 q 469 572 488 556 q 426 599 451 588 q 358 610 400 610 q 278 587 306 610 q 250 529 250 564 q 263 488 250 506 q 317 456 276 471 q 439 424 357 440 q 587 374 532 407 q 665 299 642 342 q 688 206 688 257 q 651 93 688 143 q 542 15 614 43 q 365 -14 471 -14 z "},"ś":{"ha":739,"x_min":50,"x_max":688,"o":"m 365 -14 q 223 6 282 -14 q 126 54 164 25 q 71 113 89 83 q 51 161 53 142 q 60 185 50 176 q 83 194 71 194 l 193 194 q 203 193 199 194 q 214 185 207 192 q 252 153 232 169 q 300 124 272 136 q 369 113 328 113 q 460 134 424 113 q 497 196 497 156 q 481 243 497 225 q 422 276 465 261 q 300 307 379 290 q 171 353 222 325 q 94 422 119 381 q 69 519 69 464 q 102 623 69 574 q 199 704 135 672 q 360 736 264 736 q 490 717 435 736 q 583 671 546 699 q 639 615 619 643 q 660 565 658 586 q 651 541 661 550 q 629 532 642 532 l 526 532 q 514 535 519 532 q 503 542 508 538 q 469 572 488 556 q 426 599 451 588 q 358 610 400 610 q 278 587 306 610 q 250 529 250 564 q 263 488 250 506 q 317 456 276 471 q 439 424 357 440 q 587 374 532 407 q 665 299 642 342 q 688 206 688 257 q 651 93 688 143 q 542 15 614 43 q 365 -14 471 -14 m 307 826 q 285 849 285 826 q 292 867 285 860 l 404 1004 q 428 1024 418 1019 q 456 1029 438 1029 l 594 1029 q 621 1003 621 1029 q 614 986 621 993 l 442 844 q 420 831 431 835 q 392 826 410 826 l 307 826 z "},"š":{"ha":739,"x_min":50,"x_max":688,"o":"m 365 -14 q 223 6 282 -14 q 126 54 164 25 q 71 113 89 83 q 51 161 53 142 q 60 185 50 176 q 83 194 71 194 l 193 194 q 203 193 199 194 q 214 185 207 192 q 252 153 232 169 q 300 124 272 136 q 369 113 328 113 q 460 134 424 113 q 497 196 497 156 q 481 243 497 225 q 422 276 465 261 q 300 307 379 290 q 171 353 222 325 q 94 422 119 381 q 69 519 69 464 q 102 623 69 574 q 199 704 135 672 q 360 736 264 736 q 490 717 435 736 q 583 671 546 699 q 639 615 619 643 q 660 565 658 586 q 651 541 661 550 q 629 532 642 532 l 526 532 q 514 535 519 532 q 503 542 508 538 q 469 572 488 556 q 426 599 451 588 q 358 610 400 610 q 278 587 306 610 q 250 529 250 564 q 263 488 250 506 q 317 456 276 471 q 439 424 357 440 q 587 374 532 407 q 665 299 642 342 q 688 206 688 257 q 651 93 688 143 q 542 15 614 43 q 365 -14 471 -14 m 329 826 q 308 831 318 826 q 282 849 297 835 l 147 988 q 135 1011 135 1000 q 156 1029 135 1029 l 207 1029 q 228 1027 217 1029 q 250 1019 240 1025 l 368 947 l 485 1019 q 506 1027 494 1025 q 529 1029 518 1029 l 579 1029 q 600 1011 600 1029 q 588 988 600 1000 l 453 849 q 428 831 439 835 q 406 826 418 826 l 329 826 z "},"ş":{"ha":739,"x_min":50,"x_max":688,"o":"m 383 -306 q 315 -292 346 -304 q 272 -262 285 -279 q 272 -235 260 -246 l 296 -214 q 317 -208 308 -203 q 341 -222 326 -212 q 383 -231 356 -231 q 420 -217 406 -231 q 435 -183 435 -204 q 420 -151 435 -164 q 383 -139 406 -139 q 351 -144 365 -139 q 325 -151 336 -149 q 303 -142 314 -153 l 278 -117 q 272 -97 269 -107 q 281 -74 275 -86 l 308 -10 q 160 32 217 0 q 78 101 104 64 q 51 161 53 138 q 60 185 50 176 q 83 194 71 194 l 189 194 q 199 193 194 194 q 211 185 204 192 q 251 153 231 171 q 299 124 271 136 q 369 113 328 113 q 460 134 424 113 q 497 196 497 156 q 481 243 497 225 q 422 276 465 261 q 300 307 379 290 q 171 353 222 325 q 94 422 119 381 q 69 519 69 464 q 102 623 69 574 q 199 704 135 672 q 360 736 264 736 q 490 717 435 736 q 583 671 546 699 q 639 615 619 643 q 660 565 658 586 q 651 541 661 550 q 629 532 642 532 l 526 532 q 513 535 518 532 q 503 542 508 538 q 469 572 488 556 q 426 599 451 588 q 358 610 400 610 q 278 587 306 610 q 250 529 250 564 q 263 488 250 506 q 317 456 276 471 q 439 424 357 440 q 587 374 532 407 q 665 299 642 342 q 688 206 688 257 q 611 53 688 114 q 389 -14 535 -8 l 360 -74 q 383 -67 368 -69 q 408 -64 397 -64 q 487 -97 457 -64 q 517 -182 517 -131 q 482 -271 517 -235 q 383 -306 447 -307 z "},"ŝ":{"ha":739,"x_min":50,"x_max":688,"o":"m 365 -14 q 223 6 282 -14 q 126 54 164 25 q 71 113 89 83 q 51 161 53 142 q 60 185 50 176 q 83 194 71 194 l 193 194 q 203 193 199 194 q 214 185 207 192 q 252 153 232 169 q 300 124 272 136 q 369 113 328 113 q 460 134 424 113 q 497 196 497 156 q 481 243 497 225 q 422 276 465 261 q 300 307 379 290 q 171 353 222 325 q 94 422 119 381 q 69 519 69 464 q 102 623 69 574 q 199 704 135 672 q 360 736 264 736 q 490 717 435 736 q 583 671 546 699 q 639 615 619 643 q 660 565 658 586 q 651 541 661 550 q 629 532 642 532 l 526 532 q 514 535 519 532 q 503 542 508 538 q 469 572 488 556 q 426 599 451 588 q 358 610 400 610 q 278 587 306 610 q 250 529 250 564 q 263 488 250 506 q 317 456 276 471 q 439 424 357 440 q 587 374 532 407 q 665 299 642 342 q 688 206 688 257 q 651 93 688 143 q 542 15 614 43 q 365 -14 471 -14 m 156 826 q 135 844 135 826 q 147 868 135 856 l 282 1007 q 308 1026 297 1022 q 329 1029 318 1029 l 406 1029 q 428 1026 418 1029 q 453 1007 439 1022 l 588 868 q 600 844 600 856 q 579 826 600 826 l 529 826 q 506 828 518 826 q 485 836 494 831 l 368 910 l 250 836 q 228 828 240 831 q 207 826 217 826 l 156 826 z "},"ș":{"ha":739,"x_min":50,"x_max":688,"o":"m 365 -14 q 223 6 282 -14 q 126 54 164 25 q 71 113 89 83 q 51 161 53 142 q 60 185 50 176 q 83 194 71 194 l 193 194 q 203 193 199 194 q 214 185 207 192 q 252 153 232 169 q 300 124 272 136 q 369 113 328 113 q 460 134 424 113 q 497 196 497 156 q 481 243 497 225 q 422 276 465 261 q 300 307 379 290 q 171 353 222 325 q 94 422 119 381 q 69 519 69 464 q 102 623 69 574 q 199 704 135 672 q 360 736 264 736 q 490 717 435 736 q 583 671 546 699 q 639 615 619 643 q 660 565 658 586 q 651 541 661 550 q 629 532 642 532 l 526 532 q 514 535 519 532 q 503 542 508 538 q 469 572 488 556 q 426 599 451 588 q 358 610 400 610 q 278 587 306 610 q 250 529 250 564 q 263 488 250 506 q 317 456 276 471 q 439 424 357 440 q 587 374 532 407 q 665 299 642 342 q 688 206 688 257 q 651 93 688 143 q 542 15 614 43 q 365 -14 471 -14 m 269 -314 q 251 -306 257 -314 q 244 -285 244 -297 l 271 -114 q 284 -83 274 -96 q 315 -69 294 -69 l 432 -69 q 450 -77 443 -69 q 457 -94 457 -85 q 453 -114 457 -104 l 389 -279 q 374 -303 383 -293 q 343 -314 364 -314 l 269 -314 z "},"ß":{"ha":853,"x_min":93,"x_max":794,"o":"m 126 0 q 103 10 113 0 q 93 33 93 19 l 93 669 q 128 827 93 756 q 235 942 163 899 q 426 986 308 986 q 617 946 544 986 q 722 845 689 906 q 754 718 754 785 q 740 630 754 668 q 700 565 725 592 q 647 522 675 539 q 734 468 701 503 q 781 388 767 433 q 794 289 794 342 q 776 188 794 239 q 717 94 757 138 q 613 26 676 51 q 458 0 549 0 l 378 0 q 350 10 360 0 q 340 33 340 19 l 340 110 q 350 133 340 124 q 378 143 360 143 l 432 143 q 561 187 517 143 q 606 294 606 231 q 561 403 606 360 q 431 447 517 447 l 375 447 q 349 457 358 447 q 340 481 340 467 l 340 547 q 348 572 340 563 q 375 581 356 581 l 422 581 q 539 616 499 582 q 579 711 579 650 q 538 806 579 768 q 426 843 496 843 q 315 801 357 843 q 274 669 274 758 l 274 33 q 265 10 274 19 q 240 0 256 0 l 126 0 z "},"ſ":{"ha":443,"x_min":25,"x_max":571,"o":"m 204 0 q 180 10 189 0 q 171 33 171 19 l 171 575 l 58 575 q 34 585 43 575 q 25 610 25 594 l 25 689 q 34 713 25 703 q 58 722 43 722 l 171 722 l 171 775 q 201 916 171 860 q 291 1000 231 972 q 442 1028 351 1028 l 538 1028 q 561 1018 551 1028 q 571 994 571 1008 l 571 915 q 561 890 571 900 q 538 881 551 881 l 449 881 q 385 866 407 881 q 357 828 364 851 q 350 772 350 804 l 350 33 q 340 10 350 19 q 317 0 331 0 l 204 0 z "},"t":{"ha":596,"x_min":22,"x_max":564,"o":"m 418 0 q 278 29 335 0 q 193 116 221 58 q 165 260 165 174 l 165 575 l 56 575 q 32 585 42 575 q 22 610 22 594 l 22 689 q 32 713 22 703 q 56 722 42 722 l 165 722 l 165 953 q 174 976 165 967 q 199 986 183 986 l 311 986 q 335 976 325 986 q 344 953 344 967 l 344 722 l 518 722 q 542 713 532 722 q 551 689 551 703 l 551 610 q 542 585 551 594 q 518 575 532 575 l 344 575 l 344 274 q 365 185 344 217 q 435 153 385 153 l 531 153 q 554 143 544 153 q 564 119 564 133 l 564 33 q 554 10 564 19 q 531 0 544 0 l 418 0 z "},"ŧ":{"ha":603,"x_min":28,"x_max":568,"o":"m 422 0 q 283 29 339 0 q 198 116 226 58 q 169 260 169 174 l 169 400 l 61 400 q 37 410 46 400 q 28 433 28 419 l 28 474 q 37 498 28 489 q 61 507 46 507 l 169 507 l 169 615 l 61 615 q 37 625 46 615 q 28 649 28 635 l 28 689 q 37 713 28 703 q 61 722 46 722 l 169 722 l 169 953 q 179 976 169 967 q 203 986 189 986 l 315 986 q 340 976 331 986 q 349 953 349 967 l 349 722 l 522 722 q 547 713 538 722 q 556 689 556 703 l 556 649 q 547 625 556 635 q 522 615 538 615 l 349 615 l 349 507 l 522 507 q 547 498 538 507 q 556 474 556 489 l 556 433 q 547 410 556 419 q 522 400 538 400 l 349 400 l 349 274 q 369 185 349 217 q 439 153 390 153 l 535 153 q 559 143 550 153 q 568 119 568 133 l 568 33 q 559 10 568 19 q 535 0 550 0 l 422 0 z "},"ť":{"ha":596,"x_min":22,"x_max":654,"o":"m 418 0 q 278 29 335 0 q 193 116 221 58 q 165 260 165 174 l 165 575 l 56 575 q 32 585 42 575 q 22 610 22 594 l 22 689 q 32 713 22 703 q 56 722 42 722 l 165 722 l 165 953 q 174 976 165 967 q 199 986 183 986 l 311 986 q 335 976 325 986 q 344 953 344 967 l 344 722 l 518 722 q 542 713 532 722 q 551 689 551 703 l 551 610 q 542 585 551 594 q 518 575 532 575 l 344 575 l 344 274 q 365 185 344 217 q 435 153 385 153 l 531 153 q 554 143 544 153 q 564 119 564 133 l 564 33 q 554 10 564 19 q 531 0 544 0 l 418 0 m 467 847 q 448 856 454 847 q 442 876 442 864 l 468 1047 q 481 1078 471 1065 q 513 1092 492 1092 l 629 1092 q 647 1084 640 1092 q 654 1067 654 1076 q 650 1047 654 1057 l 586 882 q 571 858 581 868 q 540 847 561 847 l 467 847 z "},"ț":{"ha":596,"x_min":22,"x_max":564,"o":"m 418 0 q 278 29 335 0 q 193 116 221 58 q 165 260 165 174 l 165 575 l 56 575 q 32 585 42 575 q 22 610 22 594 l 22 689 q 32 713 22 703 q 56 722 42 722 l 165 722 l 165 953 q 174 976 165 967 q 199 986 183 986 l 311 986 q 335 976 325 986 q 344 953 344 967 l 344 722 l 518 722 q 542 713 532 722 q 551 689 551 703 l 551 610 q 542 585 551 594 q 518 575 532 575 l 344 575 l 344 274 q 365 185 344 217 q 435 153 385 153 l 531 153 q 554 143 544 153 q 564 119 564 133 l 564 33 q 554 10 564 19 q 531 0 544 0 l 418 0 m 265 -314 q 247 -306 253 -314 q 240 -285 240 -297 l 267 -114 q 280 -83 269 -96 q 311 -69 290 -69 l 428 -69 q 446 -77 439 -69 q 453 -94 453 -85 q 449 -114 453 -104 l 385 -279 q 369 -303 379 -293 q 339 -314 360 -314 l 265 -314 z "},"u":{"ha":863,"x_min":85,"x_max":771,"o":"m 360 -14 q 213 24 275 -14 q 118 133 151 63 q 85 299 85 203 l 85 689 q 94 713 85 703 q 118 722 104 722 l 240 722 q 265 713 256 722 q 274 689 274 703 l 274 307 q 425 135 274 135 q 540 181 497 135 q 582 307 582 226 l 582 689 q 592 713 582 703 q 615 722 601 722 l 738 722 q 761 713 751 722 q 771 689 771 703 l 771 33 q 761 10 771 19 q 738 0 751 0 l 625 0 q 601 10 610 0 q 592 33 592 19 l 592 90 q 499 14 554 42 q 360 -14 443 -14 z "},"ú":{"ha":863,"x_min":85,"x_max":771,"o":"m 360 -14 q 213 24 275 -14 q 118 133 151 63 q 85 299 85 203 l 85 689 q 94 713 85 703 q 118 722 104 722 l 240 722 q 265 713 256 722 q 274 689 274 703 l 274 307 q 425 135 274 135 q 540 181 497 135 q 582 307 582 226 l 582 689 q 592 713 582 703 q 615 722 601 722 l 738 722 q 761 713 751 722 q 771 689 771 703 l 771 33 q 761 10 771 19 q 738 0 751 0 l 625 0 q 601 10 610 0 q 592 33 592 19 l 592 90 q 499 14 554 42 q 360 -14 443 -14 m 369 826 q 347 849 347 826 q 354 867 347 860 l 467 1004 q 490 1024 481 1019 q 518 1029 500 1029 l 657 1029 q 683 1003 683 1029 q 676 986 683 993 l 504 844 q 483 831 493 835 q 454 826 472 826 l 369 826 z "},"ŭ":{"ha":863,"x_min":85,"x_max":771,"o":"m 360 -14 q 213 24 275 -14 q 118 133 151 63 q 85 299 85 203 l 85 689 q 94 713 85 703 q 118 722 104 722 l 240 722 q 265 713 256 722 q 274 689 274 703 l 274 307 q 425 135 274 135 q 540 181 497 135 q 582 307 582 226 l 582 689 q 592 713 582 703 q 615 722 601 722 l 738 722 q 761 713 751 722 q 771 689 771 703 l 771 33 q 761 10 771 19 q 738 0 751 0 l 625 0 q 601 10 610 0 q 592 33 592 19 l 592 90 q 499 14 554 42 q 360 -14 443 -14 m 428 819 q 319 845 361 819 q 259 913 278 871 q 240 1003 240 954 q 247 1022 240 1014 q 267 1029 254 1029 l 332 1029 q 351 1022 344 1029 q 358 1003 358 1014 q 373 944 358 971 q 428 918 388 918 q 483 944 469 918 q 497 1003 497 971 q 504 1022 497 1014 q 524 1029 511 1029 l 589 1029 q 608 1022 601 1029 q 615 1003 615 1014 q 597 913 615 954 q 537 845 578 871 q 428 819 496 819 z "},"û":{"ha":863,"x_min":85,"x_max":771,"o":"m 360 -14 q 213 24 275 -14 q 118 133 151 63 q 85 299 85 203 l 85 689 q 94 713 85 703 q 118 722 104 722 l 240 722 q 265 713 256 722 q 274 689 274 703 l 274 307 q 425 135 274 135 q 540 181 497 135 q 582 307 582 226 l 582 689 q 592 713 582 703 q 615 722 601 722 l 738 722 q 761 713 751 722 q 771 689 771 703 l 771 33 q 761 10 771 19 q 738 0 751 0 l 625 0 q 601 10 610 0 q 592 33 592 19 l 592 90 q 499 14 554 42 q 360 -14 443 -14 m 217 826 q 196 844 196 826 q 208 868 196 856 l 343 1007 q 369 1026 358 1022 q 390 1029 379 1029 l 467 1029 q 490 1026 479 1029 q 514 1007 500 1022 l 649 868 q 661 844 661 856 q 640 826 661 826 l 590 826 q 567 828 579 826 q 546 836 556 831 l 429 910 l 311 836 q 290 828 301 831 q 268 826 278 826 l 217 826 z "},"ü":{"ha":863,"x_min":85,"x_max":771,"o":"m 360 -14 q 213 24 275 -14 q 118 133 151 63 q 85 299 85 203 l 85 689 q 94 713 85 703 q 118 722 104 722 l 240 722 q 265 713 256 722 q 274 689 274 703 l 274 307 q 425 135 274 135 q 540 181 497 135 q 582 307 582 226 l 582 689 q 592 713 582 703 q 615 722 601 722 l 738 722 q 761 713 751 722 q 771 689 771 703 l 771 33 q 761 10 771 19 q 738 0 751 0 l 625 0 q 601 10 610 0 q 592 33 592 19 l 592 90 q 499 14 554 42 q 360 -14 443 -14 m 507 853 q 485 861 493 853 q 476 883 476 869 l 476 985 q 485 1008 476 999 q 507 1017 493 1017 l 608 1017 q 631 1008 622 1017 q 640 985 640 999 l 640 883 q 631 861 640 869 q 608 853 622 853 l 507 853 m 246 853 q 224 861 232 853 q 215 883 215 869 l 215 985 q 224 1008 215 999 q 246 1017 232 1017 l 347 1017 q 370 1008 361 1017 q 379 985 379 999 l 379 883 q 370 861 379 869 q 347 853 361 853 l 246 853 z "},"ù":{"ha":863,"x_min":85,"x_max":771,"o":"m 360 -14 q 213 24 275 -14 q 118 133 151 63 q 85 299 85 203 l 85 689 q 94 713 85 703 q 118 722 104 722 l 240 722 q 265 713 256 722 q 274 689 274 703 l 274 307 q 425 135 274 135 q 540 181 497 135 q 582 307 582 226 l 582 689 q 592 713 582 703 q 615 722 601 722 l 738 722 q 761 713 751 722 q 771 689 771 703 l 771 33 q 761 10 771 19 q 738 0 751 0 l 625 0 q 601 10 610 0 q 592 33 592 19 l 592 90 q 499 14 554 42 q 360 -14 443 -14 m 410 826 q 383 831 393 826 q 361 844 372 835 l 188 986 q 181 1003 181 993 q 207 1029 181 1029 l 346 1029 q 374 1024 364 1029 q 397 1004 385 1019 l 511 867 q 518 849 518 860 q 496 826 518 826 l 410 826 z "},"ű":{"ha":863,"x_min":85,"x_max":771,"o":"m 360 -14 q 213 24 275 -14 q 118 133 151 63 q 85 299 85 203 l 85 689 q 94 713 85 703 q 118 722 104 722 l 240 722 q 265 713 256 722 q 274 689 274 703 l 274 307 q 425 135 274 135 q 540 181 497 135 q 582 307 582 226 l 582 689 q 592 713 582 703 q 615 722 601 722 l 738 722 q 761 713 751 722 q 771 689 771 703 l 771 33 q 761 10 771 19 q 738 0 751 0 l 625 0 q 601 10 610 0 q 592 33 592 19 l 592 90 q 499 14 554 42 q 360 -14 443 -14 m 508 826 q 486 849 486 826 q 489 860 486 854 q 493 869 492 865 l 553 1003 q 604 1029 565 1029 l 715 1029 q 743 1003 743 1029 q 735 985 743 993 l 613 846 q 568 826 596 826 l 508 826 m 246 826 q 224 849 224 826 q 226 860 224 854 q 231 869 229 865 l 290 1003 q 342 1029 303 1029 l 454 1029 q 482 1003 482 1029 q 474 985 482 993 l 350 846 q 306 826 333 826 l 246 826 z "},"ū":{"ha":863,"x_min":85,"x_max":771,"o":"m 360 -14 q 213 24 275 -14 q 118 133 151 63 q 85 299 85 203 l 85 689 q 94 713 85 703 q 118 722 104 722 l 240 722 q 265 713 256 722 q 274 689 274 703 l 274 307 q 425 135 274 135 q 540 181 497 135 q 582 307 582 226 l 582 689 q 592 713 582 703 q 615 722 601 722 l 738 722 q 761 713 751 722 q 771 689 771 703 l 771 33 q 761 10 771 19 q 738 0 751 0 l 625 0 q 601 10 610 0 q 592 33 592 19 l 592 90 q 499 14 554 42 q 360 -14 443 -14 m 253 849 q 231 857 239 849 q 222 879 222 865 l 222 950 q 231 972 222 964 q 253 981 239 981 l 601 981 q 624 972 615 981 q 633 950 633 964 l 633 879 q 624 857 633 865 q 601 849 615 849 l 253 849 z "},"ų":{"ha":863,"x_min":85,"x_max":771,"o":"m 722 -306 q 621 -280 664 -306 q 555 -208 578 -254 q 532 -101 532 -162 q 543 -45 532 -71 q 571 -1 554 -19 q 603 29 588 18 q 594 38 597 32 q 592 51 592 43 l 592 90 q 499 14 554 42 q 360 -14 443 -14 q 213 24 275 -14 q 118 133 151 63 q 85 299 85 203 l 85 689 q 94 713 85 703 q 118 722 104 722 l 240 722 q 265 713 256 722 q 274 689 274 703 l 274 307 q 425 135 274 135 q 540 181 497 135 q 582 307 582 226 l 582 689 q 592 713 582 703 q 615 722 601 722 l 738 722 q 761 713 751 722 q 771 689 771 703 l 771 33 q 763 13 771 22 q 742 0 756 4 l 731 -1 q 672 -40 690 -14 q 653 -101 653 -65 q 672 -166 653 -142 q 728 -190 690 -190 l 738 -190 q 761 -199 751 -190 q 771 -224 771 -208 l 771 -272 q 761 -296 771 -286 q 738 -306 751 -306 l 722 -306 z "},"ů":{"ha":863,"x_min":85,"x_max":771,"o":"m 360 -14 q 213 24 275 -14 q 118 133 151 63 q 85 299 85 203 l 85 689 q 94 713 85 703 q 118 722 104 722 l 240 722 q 265 713 256 722 q 274 689 274 703 l 274 307 q 425 135 274 135 q 540 181 497 135 q 582 307 582 226 l 582 689 q 592 713 582 703 q 615 722 601 722 l 738 722 q 761 713 751 722 q 771 689 771 703 l 771 33 q 761 10 771 19 q 738 0 751 0 l 625 0 q 601 10 610 0 q 592 33 592 19 l 592 90 q 499 14 554 42 q 360 -14 443 -14 m 429 819 q 343 852 379 819 q 307 935 307 885 q 343 1017 307 985 q 429 1050 379 1050 q 515 1017 479 1050 q 551 935 551 985 q 515 852 551 885 q 429 819 479 819 m 429 893 q 459 905 447 893 q 471 935 471 917 q 459 965 471 953 q 429 976 447 976 q 399 965 411 976 q 388 935 388 953 q 399 905 388 917 q 429 893 411 893 z "},"ũ":{"ha":863,"x_min":85,"x_max":771,"o":"m 360 -14 q 213 24 275 -14 q 118 133 151 63 q 85 299 85 203 l 85 689 q 94 713 85 703 q 118 722 104 722 l 240 722 q 265 713 256 722 q 274 689 274 703 l 274 307 q 425 135 274 135 q 540 181 497 135 q 582 307 582 226 l 582 689 q 592 713 582 703 q 615 722 601 722 l 738 722 q 761 713 751 722 q 771 689 771 703 l 771 33 q 761 10 771 19 q 738 0 751 0 l 625 0 q 601 10 610 0 q 592 33 592 19 l 592 90 q 499 14 554 42 q 360 -14 443 -14 m 506 819 q 447 831 469 819 q 406 856 425 843 q 365 868 388 868 q 340 858 347 868 q 325 837 332 847 q 303 826 318 826 l 239 826 q 222 833 229 826 q 215 850 215 840 q 223 897 215 871 q 247 946 231 922 q 290 984 264 969 q 350 999 315 999 q 410 987 388 999 q 451 963 432 975 q 492 950 469 950 q 517 961 510 950 q 532 983 525 972 q 554 993 539 993 l 618 993 q 635 985 629 993 q 642 968 642 978 q 634 922 642 947 q 610 872 626 896 q 567 834 593 849 q 506 819 542 819 z "},"v":{"ha":797,"x_min":35,"x_max":763,"o":"m 347 0 q 315 10 325 0 q 297 35 304 21 l 38 679 q 35 692 35 686 q 44 713 35 704 q 65 722 53 722 l 178 722 q 203 713 194 722 q 214 696 211 704 l 399 208 l 583 696 q 594 713 586 704 q 619 722 603 722 l 733 722 q 753 713 744 722 q 763 692 763 704 q 761 679 763 686 l 500 35 q 483 10 494 21 q 450 0 472 0 l 347 0 z "},"w":{"ha":1139,"x_min":43,"x_max":1096,"o":"m 289 0 q 260 10 269 0 q 243 35 250 19 l 44 679 q 43 692 43 686 q 52 713 43 704 q 72 722 61 722 l 175 722 q 201 713 192 722 q 213 696 211 704 l 349 236 l 493 692 q 506 712 496 701 q 535 722 515 722 l 604 722 q 633 712 624 722 q 646 692 643 701 l 790 236 l 926 696 q 937 713 928 704 q 963 722 946 722 l 1065 722 q 1087 713 1078 722 q 1096 692 1096 704 q 1093 679 1096 686 l 894 35 q 880 10 890 19 q 850 0 869 0 l 760 0 q 730 10 742 0 q 714 35 718 19 l 569 474 l 425 35 q 409 10 419 19 q 378 0 399 0 l 289 0 z "},"ẃ":{"ha":1139,"x_min":43,"x_max":1096,"o":"m 289 0 q 260 10 269 0 q 243 35 250 19 l 44 679 q 43 692 43 686 q 52 713 43 704 q 72 722 61 722 l 175 722 q 201 713 192 722 q 213 696 211 704 l 349 236 l 493 692 q 506 712 496 701 q 535 722 515 722 l 604 722 q 633 712 624 722 q 646 692 643 701 l 790 236 l 926 696 q 937 713 928 704 q 963 722 946 722 l 1065 722 q 1087 713 1078 722 q 1096 692 1096 704 q 1093 679 1096 686 l 894 35 q 880 10 890 19 q 850 0 869 0 l 760 0 q 730 10 742 0 q 714 35 718 19 l 569 474 l 425 35 q 409 10 419 19 q 378 0 399 0 l 289 0 m 510 826 q 488 849 488 826 q 494 867 488 860 l 607 1004 q 631 1024 621 1019 q 658 1029 640 1029 l 797 1029 q 824 1003 824 1029 q 817 986 824 993 l 644 844 q 623 831 633 835 q 594 826 613 826 l 510 826 z "},"ŵ":{"ha":1139,"x_min":43,"x_max":1096,"o":"m 289 0 q 260 10 269 0 q 243 35 250 19 l 44 679 q 43 692 43 686 q 52 713 43 704 q 72 722 61 722 l 175 722 q 201 713 192 722 q 213 696 211 704 l 349 236 l 493 692 q 506 712 496 701 q 535 722 515 722 l 604 722 q 633 712 624 722 q 646 692 643 701 l 790 236 l 926 696 q 937 713 928 704 q 963 722 946 722 l 1065 722 q 1087 713 1078 722 q 1096 692 1096 704 q 1093 679 1096 686 l 894 35 q 880 10 890 19 q 850 0 869 0 l 760 0 q 730 10 742 0 q 714 35 718 19 l 569 474 l 425 35 q 409 10 419 19 q 378 0 399 0 l 289 0 m 358 826 q 338 844 338 826 q 350 868 338 856 l 485 1007 q 510 1026 500 1022 q 532 1029 521 1029 l 608 1029 q 631 1026 621 1029 q 656 1007 642 1022 l 790 868 q 803 844 803 856 q 782 826 803 826 l 732 826 q 709 828 721 826 q 688 836 697 831 l 571 910 l 453 836 q 431 828 443 831 q 410 826 419 826 l 358 826 z "},"ẅ":{"ha":1139,"x_min":43,"x_max":1096,"o":"m 289 0 q 260 10 269 0 q 243 35 250 19 l 44 679 q 43 692 43 686 q 52 713 43 704 q 72 722 61 722 l 175 722 q 201 713 192 722 q 213 696 211 704 l 349 236 l 493 692 q 506 712 496 701 q 535 722 515 722 l 604 722 q 633 712 624 722 q 646 692 643 701 l 790 236 l 926 696 q 937 713 928 704 q 963 722 946 722 l 1065 722 q 1087 713 1078 722 q 1096 692 1096 704 q 1093 679 1096 686 l 894 35 q 880 10 890 19 q 850 0 869 0 l 760 0 q 730 10 742 0 q 714 35 718 19 l 569 474 l 425 35 q 409 10 419 19 q 378 0 399 0 l 289 0 m 649 853 q 626 861 635 853 q 618 883 618 869 l 618 985 q 626 1008 618 999 q 649 1017 635 1017 l 750 1017 q 773 1008 764 1017 q 782 985 782 999 l 782 883 q 773 861 782 869 q 750 853 764 853 l 649 853 m 388 853 q 365 861 374 853 q 357 883 357 869 l 357 985 q 365 1008 357 999 q 388 1017 374 1017 l 489 1017 q 512 1008 503 1017 q 521 985 521 999 l 521 883 q 512 861 521 869 q 489 853 503 853 l 388 853 z "},"ẁ":{"ha":1139,"x_min":43,"x_max":1096,"o":"m 289 0 q 260 10 269 0 q 243 35 250 19 l 44 679 q 43 692 43 686 q 52 713 43 704 q 72 722 61 722 l 175 722 q 201 713 192 722 q 213 696 211 704 l 349 236 l 493 692 q 506 712 496 701 q 535 722 515 722 l 604 722 q 633 712 624 722 q 646 692 643 701 l 790 236 l 926 696 q 937 713 928 704 q 963 722 946 722 l 1065 722 q 1087 713 1078 722 q 1096 692 1096 704 q 1093 679 1096 686 l 894 35 q 880 10 890 19 q 850 0 869 0 l 760 0 q 730 10 742 0 q 714 35 718 19 l 569 474 l 425 35 q 409 10 419 19 q 378 0 399 0 l 289 0 m 551 826 q 524 831 535 826 q 503 844 514 835 l 329 986 q 322 1003 322 993 q 349 1029 322 1029 l 488 1029 q 516 1024 506 1029 q 539 1004 526 1019 l 653 867 q 660 849 660 860 q 638 826 660 826 l 551 826 z "},"x":{"ha":783,"x_min":31,"x_max":751,"o":"m 61 0 q 40 9 49 0 q 31 31 31 18 q 33 40 31 35 q 40 54 35 46 l 276 371 l 57 668 q 51 681 53 675 q 49 692 49 686 q 58 713 49 704 q 79 722 67 722 l 200 722 q 225 714 217 722 q 238 699 233 706 l 394 490 l 551 699 q 565 714 557 706 q 589 722 572 722 l 704 722 q 726 713 717 722 q 735 693 735 704 q 733 681 735 686 q 726 668 731 675 l 504 368 l 742 54 q 749 40 747 46 q 751 31 751 35 q 742 9 751 18 q 721 0 733 0 l 594 0 q 571 8 579 0 q 557 22 563 15 l 390 243 l 221 22 q 208 8 215 15 q 183 0 200 0 l 61 0 z "},"y":{"ha":797,"x_min":36,"x_max":769,"o":"m 222 -264 q 203 -256 211 -264 q 194 -236 194 -247 q 195 -226 194 -231 q 200 -214 196 -221 l 308 43 l 42 672 q 36 692 36 686 q 46 713 38 704 q 67 722 54 722 l 179 722 q 204 714 196 722 q 217 696 213 706 l 401 242 l 592 696 q 604 715 596 707 q 629 722 613 722 l 740 722 q 760 714 751 722 q 769 694 769 706 q 764 672 769 686 l 371 -237 q 357 -256 365 -249 q 332 -264 349 -264 l 222 -264 z "},"ý":{"ha":797,"x_min":36,"x_max":769,"o":"m 222 -264 q 203 -256 211 -264 q 194 -236 194 -247 q 195 -226 194 -231 q 200 -214 196 -221 l 308 43 l 42 672 q 36 692 36 686 q 46 713 38 704 q 67 722 54 722 l 179 722 q 204 714 196 722 q 217 696 213 706 l 401 242 l 592 696 q 604 715 596 707 q 629 722 613 722 l 740 722 q 760 714 751 722 q 769 694 769 706 q 764 672 769 686 l 371 -237 q 357 -256 365 -249 q 332 -264 349 -264 l 222 -264 m 339 826 q 317 849 317 826 q 324 867 317 860 l 436 1004 q 460 1024 450 1019 q 488 1029 469 1029 l 626 1029 q 653 1003 653 1029 q 646 986 653 993 l 474 844 q 452 831 463 835 q 424 826 442 826 l 339 826 z "},"ŷ":{"ha":797,"x_min":36,"x_max":769,"o":"m 222 -264 q 203 -256 211 -264 q 194 -236 194 -247 q 195 -226 194 -231 q 200 -214 196 -221 l 308 43 l 42 672 q 36 692 36 686 q 46 713 38 704 q 67 722 54 722 l 179 722 q 204 714 196 722 q 217 696 213 706 l 401 242 l 592 696 q 604 715 596 707 q 629 722 613 722 l 740 722 q 760 714 751 722 q 769 694 769 706 q 764 672 769 686 l 371 -237 q 357 -256 365 -249 q 332 -264 349 -264 l 222 -264 m 186 826 q 165 844 165 826 q 178 868 165 856 l 313 1007 q 338 1026 328 1022 q 360 1029 349 1029 l 436 1029 q 459 1026 449 1029 q 483 1007 469 1022 l 618 868 q 631 844 631 856 q 610 826 631 826 l 560 826 q 537 828 549 826 q 515 836 525 831 l 399 910 l 281 836 q 259 828 271 831 q 238 826 247 826 l 186 826 z "},"ÿ":{"ha":797,"x_min":36,"x_max":769,"o":"m 222 -264 q 203 -256 211 -264 q 194 -236 194 -247 q 195 -226 194 -231 q 200 -214 196 -221 l 308 43 l 42 672 q 36 692 36 686 q 46 713 38 704 q 67 722 54 722 l 179 722 q 204 714 196 722 q 217 696 213 706 l 401 242 l 592 696 q 604 715 596 707 q 629 722 613 722 l 740 722 q 760 714 751 722 q 769 694 769 706 q 764 672 769 686 l 371 -237 q 357 -256 365 -249 q 332 -264 349 -264 l 222 -264 m 478 853 q 456 861 464 853 q 447 883 447 869 l 447 985 q 456 1008 447 999 q 478 1017 464 1017 l 579 1017 q 602 1008 593 1017 q 611 985 611 999 l 611 883 q 602 861 611 869 q 579 853 593 853 l 478 853 m 217 853 q 194 861 203 853 q 186 883 186 869 l 186 985 q 194 1008 186 999 q 217 1017 203 1017 l 318 1017 q 341 1008 332 1017 q 350 985 350 999 l 350 883 q 341 861 350 869 q 318 853 332 853 l 217 853 z "},"ỳ":{"ha":797,"x_min":36,"x_max":769,"o":"m 222 -264 q 203 -256 211 -264 q 194 -236 194 -247 q 195 -226 194 -231 q 200 -214 196 -221 l 308 43 l 42 672 q 36 692 36 686 q 46 713 38 704 q 67 722 54 722 l 179 722 q 204 714 196 722 q 217 696 213 706 l 401 242 l 592 696 q 604 715 596 707 q 629 722 613 722 l 740 722 q 760 714 751 722 q 769 694 769 706 q 764 672 769 686 l 371 -237 q 357 -256 365 -249 q 332 -264 349 -264 l 222 -264 m 381 826 q 353 831 364 826 q 332 844 343 835 l 158 986 q 151 1003 151 993 q 178 1029 151 1029 l 317 1029 q 345 1024 335 1029 q 368 1004 356 1019 l 482 867 q 489 849 489 860 q 467 826 489 826 l 381 826 z "},"z":{"ha":738,"x_min":56,"x_max":689,"o":"m 89 0 q 65 10 74 0 q 56 33 56 19 l 56 113 q 62 137 56 125 q 75 157 68 149 l 431 578 l 100 578 q 76 587 86 578 q 67 611 67 596 l 67 689 q 76 713 67 703 q 100 722 86 722 l 626 722 q 651 713 642 722 q 660 689 660 703 l 660 604 q 654 582 660 592 q 640 563 649 572 l 293 144 l 656 144 q 679 135 669 144 q 689 111 689 126 l 689 33 q 679 10 689 19 q 656 0 669 0 l 89 0 z "},"ź":{"ha":738,"x_min":56,"x_max":689,"o":"m 89 0 q 65 10 74 0 q 56 33 56 19 l 56 113 q 62 137 56 125 q 75 157 68 149 l 431 578 l 100 578 q 76 587 86 578 q 67 611 67 596 l 67 689 q 76 713 67 703 q 100 722 86 722 l 626 722 q 651 713 642 722 q 660 689 660 703 l 660 604 q 654 582 660 592 q 640 563 649 572 l 293 144 l 656 144 q 679 135 669 144 q 689 111 689 126 l 689 33 q 679 10 689 19 q 656 0 669 0 l 89 0 m 310 826 q 288 849 288 826 q 294 867 288 860 l 407 1004 q 431 1024 421 1019 q 458 1029 440 1029 l 597 1029 q 624 1003 624 1029 q 617 986 624 993 l 444 844 q 423 831 433 835 q 394 826 413 826 l 310 826 z "},"ž":{"ha":738,"x_min":56,"x_max":689,"o":"m 89 0 q 65 10 74 0 q 56 33 56 19 l 56 113 q 62 137 56 125 q 75 157 68 149 l 431 578 l 100 578 q 76 587 86 578 q 67 611 67 596 l 67 689 q 76 713 67 703 q 100 722 86 722 l 626 722 q 651 713 642 722 q 660 689 660 703 l 660 604 q 654 582 660 592 q 640 563 649 572 l 293 144 l 656 144 q 679 135 669 144 q 689 111 689 126 l 689 33 q 679 10 689 19 q 656 0 669 0 l 89 0 m 332 826 q 310 831 321 826 q 285 849 300 835 l 150 988 q 138 1011 138 1000 q 158 1029 138 1029 l 210 1029 q 231 1027 219 1029 q 253 1019 243 1025 l 371 947 l 488 1019 q 509 1027 497 1025 q 532 1029 521 1029 l 582 1029 q 603 1011 603 1029 q 590 988 603 1000 l 456 849 q 431 831 442 835 q 408 826 421 826 l 332 826 z "},"ż":{"ha":738,"x_min":56,"x_max":689,"o":"m 89 0 q 65 10 74 0 q 56 33 56 19 l 56 113 q 62 137 56 125 q 75 157 68 149 l 431 578 l 100 578 q 76 587 86 578 q 67 611 67 596 l 67 689 q 76 713 67 703 q 100 722 86 722 l 626 722 q 651 713 642 722 q 660 689 660 703 l 660 604 q 654 582 660 592 q 640 563 649 572 l 293 144 l 656 144 q 679 135 669 144 q 689 111 689 126 l 689 33 q 679 10 689 19 q 656 0 669 0 l 89 0 m 311 844 q 289 853 297 844 q 281 875 281 861 l 281 989 q 289 1012 281 1003 q 311 1021 297 1021 l 425 1021 q 448 1012 439 1021 q 457 989 457 1003 l 457 875 q 448 853 457 861 q 425 844 439 844 l 311 844 z "},"ﬁ":{"ha":851,"x_min":24,"x_max":758,"o":"m 203 0 q 179 10 189 0 q 169 33 169 19 l 169 575 l 57 575 q 33 585 43 575 q 24 610 24 594 l 24 689 q 33 713 24 703 q 57 722 43 722 l 169 722 l 169 779 q 200 917 169 863 q 290 1000 231 972 q 442 1028 350 1028 l 725 1028 q 749 1018 740 1028 q 758 994 758 1008 l 758 915 q 749 890 758 900 q 725 881 740 881 l 447 881 q 371 853 392 881 q 350 772 350 825 l 350 722 l 725 722 q 749 713 740 722 q 758 689 758 703 l 758 33 q 749 10 758 19 q 725 0 740 0 l 613 0 q 589 10 599 0 q 579 33 579 19 l 579 575 l 350 575 l 350 33 q 340 10 350 19 q 317 0 331 0 l 203 0 z "},"ﬂ":{"ha":907,"x_min":24,"x_max":814,"o":"m 203 0 q 179 10 189 0 q 169 33 169 19 l 169 575 l 57 575 q 33 585 43 575 q 24 610 24 594 l 24 689 q 33 713 24 703 q 57 722 43 722 l 169 722 l 169 779 q 200 917 169 863 q 290 1000 231 972 q 442 1028 350 1028 l 525 1028 q 549 1018 540 1028 q 558 994 558 1008 l 558 915 q 549 890 558 900 q 525 881 540 881 l 447 881 q 371 853 392 881 q 350 772 350 825 l 350 722 l 635 722 l 635 994 q 644 1018 635 1008 q 668 1028 654 1028 l 781 1028 q 805 1018 796 1028 q 814 994 814 1008 l 814 33 q 805 10 814 19 q 781 0 796 0 l 668 0 q 644 10 654 0 q 635 33 635 19 l 635 575 l 350 575 l 350 33 q 340 10 350 19 q 317 0 331 0 l 203 0 z "}}}
